// Created by Crowbar 0.74
version 1
nodes
  0 "root" -1
  1 "Bone01" 0
  2 "Bone_Lefthand" 1
  3 "Bone13" 2
  4 "Bone14" 3
  5 "Bone15" 4
  6 "ValveBiped.Bip01_L_Finger32" 5
  7 "ValveBiped.Bip01_L_Finger31" 4
  8 "ValveBiped.Bip01_L_Finger3" 3
  9 "Bone17" 2
  10 "Bone18" 9
  11 "Bone19" 10
  12 "ValveBiped.Bip01_L_Finger22" 11
  13 "ValveBiped.Bip01_L_Finger21" 10
  14 "ValveBiped.Bip01_L_Finger2" 9
  15 "Bone21" 2
  16 "Bone22" 15
  17 "Bone23" 16
  18 "ValveBiped.Bip01_L_Finger12" 17
  19 "ValveBiped.Bip01_L_Finger11" 16
  20 "ValveBiped.Bip01_L_Finger1" 15
  21 "Bone09" 2
  22 "Bone10" 21
  23 "Bone11" 22
  24 "ValveBiped.Bip01_L_Finger42" 23
  25 "ValveBiped.Bip01_L_Finger41" 22
  26 "ValveBiped.Bip01_L_Finger4" 21
  27 "Bone05" 2
  28 "Bone06" 27
  29 "Bone07" 28
  30 "ValveBiped.Bip01_L_Finger02" 29
  31 "ValveBiped.Bip01_L_Finger01" 28
  32 "ValveBiped.Bip01_L_Finger0" 27
  33 "ValveBiped.Bip01_L_Hand" 2
  34 "Bone_L_Upper" 1
  35 "ValveBiped.Bip01_L_UpperArm" 34
  36 "ValveBiped.Bip01_L_Forearm" 1
  37 "Bone04" 0
  38 "Bone_Righthand" 37
  39 "Bone39" 38
  40 "Bone40" 39
  41 "Bone41" 40
  42 "ValveBiped.Bip01_R_Finger32" 41
  43 "ValveBiped.Bip01_R_Finger31" 40
  44 "ValveBiped.Bip01_R_Finger3" 39
  45 "Bone35" 38
  46 "Bone36" 45
  47 "Bone37" 46
  48 "ValveBiped.Bip01_R_Finger22" 47
  49 "ValveBiped.Bip01_R_Finger21" 46
  50 "ValveBiped.Bip01_R_Finger2" 45
  51 "Bone31" 38
  52 "Bone32" 51
  53 "Bone33" 52
  54 "ValveBiped.Bip01_R_Finger12" 53
  55 "ValveBiped.Bip01_R_Finger11" 52
  56 "ValveBiped.Bip01_R_Finger1" 51
  57 "Bone43" 38
  58 "Bone44" 57
  59 "Bone45" 58
  60 "ValveBiped.Bip01_R_Finger42" 59
  61 "ValveBiped.Bip01_R_Finger41" 58
  62 "ValveBiped.Bip01_R_Finger4" 57
  63 "Bone27" 38
  64 "Bone28" 63
  65 "Bone29" 64
  66 "ValveBiped.Bip01_R_Finger02" 65
  67 "ValveBiped.Bip01_R_Finger01" 64
  68 "ValveBiped.Bip01_R_Finger0" 63
  69 "ValveBiped.Bip01_R_Hand" 38
  70 "Bone_R_Upper" 37
  71 "ValveBiped.Bip01_R_UpperArm" 70
  72 "ValveBiped.Bip01_R_Forearm" 37
  73 "Bone_Se_Hand-L" 2
  74 "Bone_Se_Hand-R" 38
  75 "Bone25" 2
  76 "Bone48" 2
  77 "Bone50" 2
  78 "Bone52" 2
end
skeleton
  time 0
    0 1.629157 0.000000 0.541027 0.000000 0.000000 -1.570796
    1 -4.713762 9.125465 -10.712701 5.380472 -1.293521 -4.012222
    2 -0.001605 -10.698019 -0.002571 0.363612 -0.114003 -0.212386
    3 -0.653320 -3.630859 -0.348633 -1.003560 0.000001 -0.122172
    4 -0.013245 -1.509766 -0.000002 -1.090828 0.000000 0.000000
    5 0.000001 -0.953125 -0.000003 -1.343901 0.000000 0.000000
    6 0.007988 0.172184 -0.118553 -1.598091 -0.216549 -1.570593
    7 0.080660 0.135929 -0.203919 -1.506824 -0.066185 -1.662786
    8 0.117288 -0.155554 -0.604544 -1.412988 -0.374558 -1.569222
    9 0.128930 -3.758196 -0.343868 -0.890091 -0.000021 -0.148339
    10 -0.006790 -1.567259 0.006726 -1.212966 0.000000 -0.000003
    11 -0.006797 -1.160038 0.006655 -1.483442 0.000000 0.000000
    12 -0.018589 0.129953 -0.123721 -1.294580 0.001302 -1.635383
    13 -0.006160 0.170065 -0.110169 -1.280084 -0.068681 -1.597215
    14 0.047100 -0.104074 -0.352264 -1.243368 -0.257298 -1.694346
    15 0.948730 -3.617188 -0.348389 -0.235615 0.000001 0.130896
    16 -0.017794 -1.596358 -0.007350 -1.218122 0.087883 -0.065340
    17 -0.006735 -0.941812 0.007065 -0.593394 0.000000 -0.000001
    18 -0.022325 0.045424 -0.038284 -1.125544 -0.129230 -1.681412
    19 -0.042900 -0.061274 -0.071212 -1.124462 -0.060454 -1.586099
    20 0.063741 -0.109104 -0.248158 -1.142813 -0.125805 -1.693583
    21 -1.407227 -3.246094 -0.348633 -0.933748 -0.000002 -0.087263
    22 0.013458 -1.203125 0.000002 -0.610861 0.000000 0.000000
    23 -0.013008 -0.789551 0.000000 -1.212999 0.000000 0.000000
    24 -0.011721 0.093267 0.017949 -1.687855 -0.079155 -1.575164
    25 0.048863 -0.085541 0.028626 -1.715605 -0.034569 -1.653190
    26 0.173918 -0.198416 -0.336163 -1.668104 -0.422317 -1.710956
    27 0.438721 -0.485352 0.397461 0.342071 -0.443527 -1.083971
    28 2.356266 0.014158 0.001103 -0.305431 -0.000013 -0.401419
    29 1.251953 -0.000340 0.000000 0.000000 0.000000 -0.488689
    30 -0.267709 0.037512 -0.093907 2.913812 -0.143386 0.078467
    31 -0.029266 0.205408 -0.329287 2.788574 -0.255486 -0.188917
    32 0.204373 0.521055 -0.268577 2.886669 0.042206 -0.230367
    33 0.195697 -0.010059 -0.293538 -1.333586 0.150863 -1.672749
    34 1.257181 8.762590 -0.153713 -1.570562 0.002683 -1.566808
    35 -0.093500 -0.114213 -0.738866 -1.570842 0.061811 0.002096
    36 0.010843 0.093624 -0.081439 -3.141462 0.041719 -1.568236
    37 13.319490 -1.774122 -12.521197 -0.568981 0.316099 2.325607
    38 0.104748 -10.673144 -0.005453 0.518258 -0.002901 0.087806
    39 0.555176 -3.650391 -0.346924 -1.727303 -0.046222 -0.024598
    40 0.026276 -1.508789 -0.000002 -0.427609 0.000000 0.000000
    41 0.013245 -0.927246 0.000000 -0.453783 0.000000 0.000000
    42 0.006928 0.005329 -0.181358 -1.528500 -0.248579 -1.611362
    43 -0.052313 0.038589 -0.230757 -1.592493 -0.043415 -1.528515
    44 -0.232600 -0.209656 -0.420669 -1.713790 -0.167173 -1.438930
    45 -0.213013 -3.744141 -0.346924 -1.692963 0.000000 0.000000
    46 0.013245 -1.575195 0.000002 -0.253072 0.000000 0.000000
    47 -0.000001 -1.178711 0.000004 -0.532325 0.000000 0.000000
    48 -0.038065 0.069166 -0.159883 -1.816986 0.066178 -1.575392
    49 -0.025151 0.088762 -0.068837 -1.817843 0.044510 -1.568287
    50 -0.102916 -0.186983 -0.272246 -1.833683 -0.232962 -1.472375
    51 -1.034180 -3.583984 -0.346924 -1.396258 0.000000 0.000000
    52 -0.000001 -1.616211 0.000000 -0.445061 0.000000 0.000000
    53 0.000001 -0.939941 0.000000 -0.445059 0.000000 0.000000
    54 -0.004241 0.043707 -0.080203 -2.014997 -0.186996 -1.460723
    55 0.015383 -0.089136 -0.030010 -2.006083 0.036346 -1.568629
    56 -0.022610 -0.212357 -0.177905 -1.933161 -0.118801 -1.518895
    57 1.305107 -3.223642 -0.346114 -1.508108 -0.078965 -0.038609
    58 -0.000001 -1.244141 0.000000 -0.863938 0.000000 0.000000
    59 0.000001 -0.768066 0.000000 -0.523598 0.000000 0.000000
    60 -0.067138 0.063251 -0.010961 -0.899214 -0.014515 -1.600326
    61 -0.151180 -0.007395 -0.070065 -0.913061 -0.118819 -1.408558
    62 -0.178164 -0.244680 -0.357067 -1.159916 -0.384260 -1.556110
    63 -0.385254 -0.459229 0.383789 -0.145109 -0.159875 -2.467070
    64 2.472656 0.024429 0.000002 -0.085522 -0.129480 -0.019845
    65 1.227325 0.009356 -0.005766 -0.120221 0.053325 0.415647
    66 -0.263409 -0.117640 -0.015659 0.000036 -0.082210 -0.026800
    67 0.007707 -0.334360 -0.191575 0.070788 -0.181563 0.282364
    68 0.225562 -0.567923 -0.420715 0.119895 -0.183798 0.223460
    69 -0.203683 -0.095654 -0.328305 -1.745077 0.075142 -1.515382
    70 -1.393460 8.839182 -0.239439 1.580804 -0.005024 -1.566848
    71 0.036020 0.082815 -0.692656 -1.570769 0.065989 0.001276
    72 -0.088586 0.054020 -0.088594 0.010231 0.033800 -1.560851
    73 0.120153 -0.050270 -0.054489 -2.854024 0.030688 -1.580508
    74 -0.139399 -0.111694 0.014400 0.285395 -0.031353 1.580313
    75 2.295096 -5.257324 0.968839 -0.842766 1.438303 -1.178044
    76 0.738178 -7.079689 1.130307 -1.247039 1.437608 -1.233844
    77 2.398058 -8.977903 1.443857 -1.247039 1.437608 -1.233844
    78 3.900270 -5.750178 1.081505 -1.247039 1.437608 -1.233844
  time 1
    0 1.629157 0.000000 0.541027 0.000000 0.000000 -1.570796
    1 -5.221590 9.125465 -11.001773 5.293397 -1.256756 -3.921260
    2 -0.005512 -10.701926 -0.002571 0.377292 -0.103101 -0.251065
    3 -0.653320 -3.630859 -0.348633 -1.003560 0.000001 -0.122172
    4 -0.013245 -1.509766 -0.000002 -1.090828 0.000000 0.000000
    5 0.000001 -0.953125 -0.000003 -1.343901 0.000000 0.000000
    6 0.007988 0.172184 -0.118553 -1.598091 -0.216549 -1.570593
    7 0.080660 0.135929 -0.203919 -1.506824 -0.066185 -1.662786
    8 0.117288 -0.155554 -0.604544 -1.412988 -0.374558 -1.569222
    9 0.128930 -3.758196 -0.347774 -0.890119 -0.000021 -0.148339
    10 -0.006790 -1.567259 0.002820 -1.212966 0.000000 -0.000003
    11 -0.002891 -1.160038 0.002748 -1.483442 0.000000 0.000000
    12 -0.018589 0.129953 -0.123721 -1.294580 0.001302 -1.635383
    13 -0.006160 0.170065 -0.110169 -1.280084 -0.068681 -1.597215
    14 0.047100 -0.104074 -0.352264 -1.243368 -0.257298 -1.694346
    15 0.948730 -3.617188 -0.348389 -0.235615 0.000001 0.130896
    16 -0.017794 -1.596358 -0.007350 -1.218122 0.087883 -0.065352
    17 -0.006735 -0.941812 0.007065 -0.593394 0.000000 -0.000001
    18 -0.022325 0.045424 -0.038284 -1.125544 -0.129230 -1.681412
    19 -0.042900 -0.061274 -0.071212 -1.124462 -0.060454 -1.586099
    20 0.063741 -0.109104 -0.248158 -1.142813 -0.125805 -1.693583
    21 -1.407227 -3.246094 -0.348633 -0.933748 -0.000002 -0.087263
    22 0.013458 -1.203125 0.000002 -0.610861 0.000000 0.000000
    23 -0.013008 -0.789551 0.000000 -1.212999 0.000000 0.000000
    24 -0.011721 0.093267 0.017949 -1.687855 -0.079155 -1.575164
    25 0.048863 -0.085541 0.028626 -1.715605 -0.034569 -1.653190
    26 0.173918 -0.198416 -0.336163 -1.668104 -0.422317 -1.710956
    27 0.438721 -0.485352 0.397461 0.342071 -0.443527 -1.083971
    28 2.356266 0.014158 0.001103 -0.305419 -0.000013 -0.401419
    29 1.251953 -0.000340 0.000000 0.000000 0.000000 -0.488689
    30 -0.267709 0.037512 -0.093907 2.913812 -0.143386 0.078467
    31 -0.029266 0.205408 -0.329287 2.788574 -0.255486 -0.188917
    32 0.204373 0.521055 -0.268577 2.886669 0.042206 -0.230367
    33 0.195697 -0.010059 -0.293538 -1.333586 0.150863 -1.672749
    34 1.257181 8.762590 -0.153713 -1.570562 0.002683 -1.566808
    35 -0.093500 -0.114213 -0.738866 -1.570842 0.061811 0.002096
    36 0.010843 0.093624 -0.081439 -3.141462 0.041719 -1.568236
    37 13.784348 -2.110070 -12.212593 -0.572925 0.382558 2.441039
    38 0.104748 -10.673144 -0.005453 0.524720 -0.034773 -0.053722
    39 0.555176 -3.650391 -0.346924 -1.727303 -0.046222 -0.024598
    40 0.026276 -1.508789 -0.000002 -0.427609 0.000000 0.000000
    41 0.013245 -0.927246 0.000000 -0.453783 0.000000 0.000000
    42 0.006928 0.005329 -0.181358 -1.528500 -0.248579 -1.611362
    43 -0.052313 0.038589 -0.230757 -1.592493 -0.043415 -1.528515
    44 -0.232600 -0.209656 -0.420669 -1.713790 -0.167173 -1.438930
    45 -0.213013 -3.744141 -0.346924 -1.692963 0.000000 0.000000
    46 0.013245 -1.575195 0.000002 -0.253072 0.000000 0.000000
    47 -0.000001 -1.178711 0.000004 -0.532325 0.000000 0.000000
    48 -0.038065 0.069166 -0.159883 -1.816986 0.066178 -1.575392
    49 -0.025151 0.088762 -0.068837 -1.817843 0.044510 -1.568287
    50 -0.102916 -0.186983 -0.272246 -1.833683 -0.232962 -1.472375
    51 -1.034180 -3.583984 -0.346924 -1.396258 0.000000 0.000000
    52 -0.000001 -1.616211 0.000000 -0.445061 0.000000 0.000000
    53 0.000001 -0.939941 0.000000 -0.445059 0.000000 0.000000
    54 -0.004241 0.043707 -0.080203 -2.014997 -0.186996 -1.460723
    55 0.015383 -0.089136 -0.030010 -2.006083 0.036346 -1.568629
    56 -0.022610 -0.212357 -0.177905 -1.933161 -0.118801 -1.518895
    57 1.305107 -3.223642 -0.346114 -1.508108 -0.078965 -0.038593
    58 -0.000001 -1.244141 0.000000 -0.863938 0.000000 0.000000
    59 0.000001 -0.768066 0.000000 -0.523598 0.000000 0.000000
    60 -0.067138 0.063251 -0.010961 -0.899214 -0.014515 -1.600326
    61 -0.151180 -0.007395 -0.070065 -0.913061 -0.118819 -1.408558
    62 -0.178164 -0.244680 -0.357067 -1.159916 -0.384260 -1.556110
    63 -0.385254 -0.459229 0.383789 -0.145109 -0.159875 -2.467070
    64 2.472656 0.024429 0.000002 -0.085522 -0.129480 -0.019845
    65 1.227325 0.009356 -0.005766 -0.209853 0.092479 0.409131
    66 -0.263409 -0.117640 -0.015659 0.000036 -0.082210 -0.026800
    67 0.007707 -0.334360 -0.191575 0.070788 -0.181563 0.282364
    68 0.225562 -0.567923 -0.420715 0.119895 -0.183798 0.223460
    69 -0.203683 -0.095654 -0.328305 -1.745077 0.075142 -1.515382
    70 -1.393460 8.839182 -0.239439 1.580804 -0.005024 -1.566848
    71 0.036020 0.082815 -0.692656 -1.570769 0.065989 0.001276
    72 -0.088586 0.054020 -0.088594 0.010231 0.033800 -1.560851
    73 0.120153 -0.050270 -0.054489 -2.854024 0.030688 -1.580508
    74 -0.139399 -0.111694 0.014400 0.285395 -0.031353 1.580313
    75 2.295096 -5.257324 0.968839 -0.842766 1.438303 -1.178044
    76 0.738178 -7.079689 1.130307 -1.247039 1.437608 -1.233844
    77 2.398058 -8.977903 1.443857 -1.247039 1.437608 -1.233844
    78 3.911989 -6.687706 1.206509 -1.247039 1.437608 -1.233844
  time 2
    0 1.629157 0.000000 0.541027 0.000000 0.000000 -1.570796
    1 -5.397377 9.125465 -11.075994 5.301590 -1.260778 -3.929719
    2 -0.001605 -10.701926 -0.002571 0.375891 -0.102877 -0.250347
    3 -0.653320 -3.630859 -0.348633 -1.003560 0.000001 -0.122172
    4 -0.013245 -1.509766 -0.000002 -1.090828 0.000000 0.000000
    5 0.000001 -0.953125 -0.000003 -1.343901 0.000000 0.000000
    6 0.007988 0.172184 -0.118553 -1.598091 -0.216549 -1.570593
    7 0.080660 0.135929 -0.203919 -1.506824 -0.066185 -1.662786
    8 0.117288 -0.155554 -0.604544 -1.412988 -0.374558 -1.569222
    9 0.128930 -3.758196 -0.347774 -0.890091 -0.000021 -0.148339
    10 -0.006790 -1.567259 0.006726 -1.212966 0.000000 -0.000003
    11 -0.006797 -1.160038 0.002748 -1.483442 0.000000 0.000000
    12 -0.018589 0.129953 -0.123721 -1.294580 0.001302 -1.635383
    13 -0.006160 0.170065 -0.110169 -1.280084 -0.068681 -1.597215
    14 0.047100 -0.104074 -0.352264 -1.243368 -0.257298 -1.694346
    15 0.948730 -3.617188 -0.348389 -0.235615 0.000001 0.130896
    16 -0.021700 -1.596358 -0.003443 -1.218047 0.087883 -0.065352
    17 -0.006735 -0.941812 0.007065 -0.593394 0.000000 -0.000001
    18 -0.022325 0.045424 -0.038284 -1.125544 -0.129230 -1.681412
    19 -0.042900 -0.061274 -0.071212 -1.124462 -0.060454 -1.586099
    20 0.063741 -0.109104 -0.248158 -1.142813 -0.125805 -1.693583
    21 -1.407227 -3.246094 -0.348633 -0.933748 -0.000002 -0.087263
    22 0.013458 -1.203125 0.000002 -0.610861 0.000000 0.000000
    23 -0.013008 -0.789551 0.000000 -1.212999 0.000000 0.000000
    24 -0.011721 0.093267 0.017949 -1.687855 -0.079155 -1.575164
    25 0.048863 -0.085541 0.028626 -1.715605 -0.034569 -1.653190
    26 0.173918 -0.198416 -0.336163 -1.668104 -0.422317 -1.710956
    27 0.438721 -0.485352 0.397461 0.342071 -0.443527 -1.083971
    28 2.356266 0.014158 0.001103 -0.305419 -0.000013 -0.401419
    29 1.251953 -0.000340 0.000000 0.000000 0.000000 -0.488689
    30 -0.267709 0.037512 -0.093907 2.913812 -0.143386 0.078467
    31 -0.029266 0.205408 -0.329287 2.788574 -0.255486 -0.188917
    32 0.204373 0.521055 -0.268577 2.886669 0.042206 -0.230367
    33 0.195697 -0.010059 -0.293538 -1.333586 0.150863 -1.672749
    34 1.257181 8.762590 -0.153713 -1.570562 0.002683 -1.566808
    35 -0.093500 -0.114213 -0.738866 -1.570842 0.061811 0.002096
    36 0.010843 0.093624 -0.081439 -3.141462 0.041719 -1.568236
    37 13.557778 -2.227261 -12.251657 -0.561587 0.383042 2.443985
    38 0.104748 -10.673144 -0.001547 0.516886 -0.039072 -0.059931
    39 0.555176 -3.650391 -0.346924 -1.727303 -0.046222 -0.024598
    40 0.026276 -1.508789 -0.000002 -0.427609 0.000000 0.000000
    41 0.013245 -0.927246 0.000000 -0.453783 0.000000 0.000000
    42 0.006928 0.005329 -0.181358 -1.528500 -0.248579 -1.611362
    43 -0.052313 0.038589 -0.230757 -1.592493 -0.043415 -1.528515
    44 -0.232600 -0.209656 -0.420669 -1.713790 -0.167173 -1.438930
    45 -0.213013 -3.744141 -0.346924 -1.692963 0.000000 0.000000
    46 0.013245 -1.575195 0.000002 -0.253072 0.000000 0.000000
    47 -0.000001 -1.178711 0.000004 -0.532325 0.000000 0.000000
    48 -0.038065 0.069166 -0.159883 -1.816986 0.066178 -1.575392
    49 -0.025151 0.088762 -0.068837 -1.817843 0.044510 -1.568287
    50 -0.102916 -0.186983 -0.272246 -1.833683 -0.232962 -1.472375
    51 -1.034180 -3.583984 -0.346924 -1.396258 0.000000 0.000000
    52 -0.000001 -1.616211 0.000000 -0.445061 0.000000 0.000000
    53 0.000001 -0.939941 0.000000 -0.445059 0.000000 0.000000
    54 -0.004241 0.043707 -0.080203 -2.014997 -0.186996 -1.460723
    55 0.015383 -0.089136 -0.030010 -2.006083 0.036346 -1.568629
    56 -0.022610 -0.212357 -0.177905 -1.933161 -0.118801 -1.518895
    57 1.305107 -3.223642 -0.346114 -1.508108 -0.078965 -0.038593
    58 -0.000001 -1.244141 0.000000 -0.863938 0.000000 0.000000
    59 0.000001 -0.768066 0.000000 -0.523598 0.000000 0.000000
    60 -0.067138 0.063251 -0.010961 -0.899214 -0.014515 -1.600326
    61 -0.151180 -0.007395 -0.070065 -0.913061 -0.118819 -1.408558
    62 -0.178164 -0.244680 -0.357067 -1.159916 -0.384260 -1.556110
    63 -0.385254 -0.459229 0.383789 -0.145109 -0.159875 -2.467070
    64 2.472656 0.024429 0.000002 -0.085522 -0.129480 -0.019845
    65 1.227325 0.009356 -0.005766 -0.271946 0.119025 0.402563
    66 -0.263409 -0.117640 -0.015659 0.000036 -0.082210 -0.026800
    67 0.007707 -0.334360 -0.191575 0.070788 -0.181563 0.282364
    68 0.225562 -0.567923 -0.420715 0.119895 -0.183798 0.223460
    69 -0.203683 -0.095654 -0.328305 -1.745077 0.075142 -1.515382
    70 -1.393460 8.839182 -0.239439 1.580804 -0.005024 -1.566848
    71 0.036020 0.082815 -0.692656 -1.570769 0.065989 0.001276
    72 -0.088586 0.054020 -0.088594 0.010231 0.033800 -1.560851
    73 0.120153 -0.050270 -0.054489 -2.854024 0.030688 -1.580508
    74 -0.139399 -0.111694 0.014400 0.285395 -0.031353 1.580313
    75 2.295096 -5.257324 0.968839 -0.842766 1.438303 -1.178056
    76 0.738178 -7.079689 1.130307 -1.247039 1.437608 -1.233844
    77 2.398058 -8.977903 1.443857 -1.247039 1.437608 -1.233844
    78 3.923708 -8.234629 1.417453 -1.247039 1.437608 -1.233844
  time 3
    0 1.629157 0.000000 0.541027 0.000000 0.000000 -1.570796
    1 -5.350500 9.125465 -10.978334 5.331027 -1.274103 -3.960610
    2 -0.005512 -10.701926 -0.002571 0.371741 -0.104430 -0.242927
    3 -0.653320 -3.630859 -0.348633 -1.003560 0.000001 -0.122172
    4 -0.013245 -1.509766 -0.000002 -1.090828 0.000000 0.000000
    5 0.000001 -0.953125 -0.000003 -1.343901 0.000000 0.000000
    6 0.007988 0.172184 -0.118553 -1.598091 -0.216549 -1.570593
    7 0.080660 0.135929 -0.203919 -1.506824 -0.066185 -1.662786
    8 0.117288 -0.155554 -0.604544 -1.412988 -0.374558 -1.569222
    9 0.128930 -3.758196 -0.347774 -0.890091 -0.000021 -0.148339
    10 -0.006790 -1.567259 0.002820 -1.212966 0.000000 -0.000003
    11 -0.006797 -1.160038 0.002748 -1.483442 0.000000 0.000000
    12 -0.018589 0.129953 -0.123721 -1.294580 0.001302 -1.635383
    13 -0.006160 0.170065 -0.110169 -1.280084 -0.068681 -1.597215
    14 0.047100 -0.104074 -0.352264 -1.243368 -0.257298 -1.694346
    15 0.948730 -3.617188 -0.348389 -0.235615 0.000001 0.130896
    16 -0.021700 -1.596358 -0.003443 -1.218122 0.087883 -0.065352
    17 -0.006735 -0.937906 0.007065 -0.593394 0.000000 -0.000001
    18 -0.022325 0.045424 -0.038284 -1.125544 -0.129230 -1.681412
    19 -0.042900 -0.061274 -0.071212 -1.124462 -0.060454 -1.586099
    20 0.063741 -0.109104 -0.248158 -1.142813 -0.125805 -1.693583
    21 -1.407227 -3.246094 -0.348633 -0.933748 -0.000002 -0.087263
    22 0.013458 -1.203125 0.000002 -0.610861 0.000000 0.000000
    23 -0.013008 -0.789551 0.000000 -1.212999 0.000000 0.000000
    24 -0.011721 0.093267 0.017949 -1.687855 -0.079155 -1.575164
    25 0.048863 -0.085541 0.028626 -1.715605 -0.034569 -1.653190
    26 0.173918 -0.198416 -0.336163 -1.668104 -0.422317 -1.710956
    27 0.438721 -0.485352 0.397461 0.342071 -0.443527 -1.083971
    28 2.356266 0.014158 0.001103 -0.305419 -0.000013 -0.401419
    29 1.251953 -0.000340 0.000000 0.000000 0.000000 -0.488689
    30 -0.267709 0.037512 -0.093907 2.913812 -0.143386 0.078467
    31 -0.029266 0.205408 -0.329287 2.788574 -0.255486 -0.188917
    32 0.204373 0.521055 -0.268577 2.886669 0.042206 -0.230367
    33 0.195697 -0.010059 -0.293538 -1.333586 0.150863 -1.672749
    34 1.257181 8.762590 -0.153713 -1.570562 0.002683 -1.566808
    35 -0.093500 -0.114213 -0.738866 -1.570842 0.061811 0.002096
    36 0.010843 0.093624 -0.081439 -3.141462 0.041719 -1.568236
    37 13.139797 -2.219448 -12.380567 -0.545567 0.361709 2.408453
    38 0.104748 -10.673144 -0.005453 0.504937 -0.039413 -0.044542
    39 0.555176 -3.650391 -0.346924 -1.727303 -0.046222 -0.024598
    40 0.026276 -1.508789 -0.000002 -0.427609 0.000000 0.000000
    41 0.013245 -0.927246 0.000000 -0.453783 0.000000 0.000000
    42 0.006928 0.005329 -0.181358 -1.528500 -0.248579 -1.611362
    43 -0.052313 0.038589 -0.230757 -1.592493 -0.043415 -1.528515
    44 -0.232600 -0.209656 -0.420669 -1.713790 -0.167173 -1.438930
    45 -0.213013 -3.744141 -0.346924 -1.692963 0.000000 0.000000
    46 0.013245 -1.575195 0.000002 -0.253072 0.000000 0.000000
    47 -0.000001 -1.178711 0.000004 -0.532325 0.000000 0.000000
    48 -0.038065 0.069166 -0.159883 -1.816986 0.066178 -1.575392
    49 -0.025151 0.088762 -0.068837 -1.817843 0.044510 -1.568287
    50 -0.102916 -0.186983 -0.272246 -1.833683 -0.232962 -1.472375
    51 -1.034180 -3.583984 -0.346924 -1.396258 0.000000 0.000000
    52 -0.000001 -1.616211 0.000000 -0.445061 0.000000 0.000000
    53 0.000001 -0.939941 0.000000 -0.445059 0.000000 0.000000
    54 -0.004241 0.043707 -0.080203 -2.014997 -0.186996 -1.460723
    55 0.015383 -0.089136 -0.030010 -2.006083 0.036346 -1.568629
    56 -0.022610 -0.212357 -0.177905 -1.933161 -0.118801 -1.518895
    57 1.305107 -3.223642 -0.346114 -1.508108 -0.078965 -0.038593
    58 -0.000001 -1.244141 0.000000 -0.863938 0.000000 0.000000
    59 0.000001 -0.768066 0.000000 -0.523598 0.000000 0.000000
    60 -0.067138 0.063251 -0.010961 -0.899214 -0.014515 -1.600326
    61 -0.151180 -0.007395 -0.070065 -0.913061 -0.118819 -1.408558
    62 -0.178164 -0.244680 -0.357067 -1.159916 -0.384260 -1.556110
    63 -0.385254 -0.459229 0.383789 -0.145109 -0.159875 -2.467070
    64 2.472656 0.024429 0.000002 -0.085522 -0.129480 -0.019845
    65 1.223419 0.009356 -0.001860 -0.309386 0.134724 0.397831
    66 -0.263409 -0.117640 -0.015659 0.000036 -0.082210 -0.026800
    67 0.007707 -0.334360 -0.191575 0.070788 -0.181563 0.282364
    68 0.225562 -0.567923 -0.420715 0.119895 -0.183798 0.223460
    69 -0.203683 -0.095654 -0.328305 -1.745077 0.075142 -1.515382
    70 -1.393460 8.839182 -0.239439 1.580804 -0.005024 -1.566848
    71 0.036020 0.082815 -0.692656 -1.570769 0.065989 0.001276
    72 -0.088586 0.054020 -0.088594 0.010231 0.033800 -1.560851
    73 0.120153 -0.050270 -0.054489 -2.854024 0.030688 -1.580508
    74 -0.139399 -0.111694 0.014400 0.285395 -0.031353 1.580313
    75 2.295096 -5.257324 0.968839 -0.842766 1.438303 -1.178056
    76 0.738178 -7.079689 1.130307 -1.247039 1.437608 -1.233844
    77 2.398058 -8.977903 1.443857 -1.247039 1.437608 -1.233844
    78 3.923708 -8.234629 1.417453 -1.247039 1.437608 -1.233844
  time 4
    0 1.629157 0.000000 0.541027 0.000000 0.000000 -1.570796
    1 -5.159088 9.125465 -10.802548 5.373898 -1.291165 -4.005378
    2 -0.005512 -10.701926 -0.002571 0.366007 -0.107089 -0.231342
    3 -0.653320 -3.630859 -0.348633 -1.003560 0.000001 -0.122172
    4 -0.013245 -1.509766 -0.000002 -1.090828 0.000000 0.000000
    5 0.000001 -0.953125 -0.000003 -1.343901 0.000000 0.000000
    6 0.007988 0.172184 -0.118553 -1.598091 -0.216549 -1.570593
    7 0.080660 0.135929 -0.203919 -1.506824 -0.066185 -1.662786
    8 0.117288 -0.155554 -0.604544 -1.412988 -0.374558 -1.569222
    9 0.128930 -3.762102 -0.347774 -0.890091 -0.000021 -0.148339
    10 -0.006790 -1.567259 0.006726 -1.212966 0.000000 -0.000003
    11 -0.006797 -1.160038 0.002748 -1.483442 0.000000 0.000000
    12 -0.018589 0.129953 -0.123721 -1.294580 0.001302 -1.635383
    13 -0.006160 0.170065 -0.110169 -1.280084 -0.068681 -1.597215
    14 0.047100 -0.104074 -0.352264 -1.243368 -0.257298 -1.694346
    15 0.948730 -3.617188 -0.348389 -0.235615 0.000001 0.130896
    16 -0.021700 -1.596358 -0.003443 -1.218084 0.087883 -0.065352
    17 -0.006735 -0.937906 0.007065 -0.593394 0.000000 -0.000001
    18 -0.022325 0.045424 -0.038284 -1.125544 -0.129230 -1.681412
    19 -0.042900 -0.061274 -0.071212 -1.124462 -0.060454 -1.586099
    20 0.063741 -0.109104 -0.248158 -1.142813 -0.125805 -1.693583
    21 -1.407227 -3.246094 -0.348633 -0.933748 -0.000002 -0.087263
    22 0.013458 -1.203125 0.000002 -0.610861 0.000000 0.000000
    23 -0.013008 -0.789551 0.000000 -1.212999 0.000000 0.000000
    24 -0.011721 0.093267 0.017949 -1.687855 -0.079155 -1.575164
    25 0.048863 -0.085541 0.028626 -1.715605 -0.034569 -1.653190
    26 0.173918 -0.198416 -0.336163 -1.668104 -0.422317 -1.710956
    27 0.438721 -0.485352 0.397461 0.342071 -0.443527 -1.083971
    28 2.356266 0.014158 0.001103 -0.305431 -0.000013 -0.401419
    29 1.251953 -0.000340 0.000000 0.000000 0.000000 -0.488689
    30 -0.267709 0.037512 -0.093907 2.913812 -0.143386 0.078467
    31 -0.029266 0.205408 -0.329287 2.788574 -0.255486 -0.188917
    32 0.204373 0.521055 -0.268577 2.886669 0.042206 -0.230367
    33 0.195697 -0.010059 -0.293538 -1.333586 0.150863 -1.672749
    34 1.257181 8.762590 -0.153713 -1.570562 0.002683 -1.566808
    35 -0.093500 -0.114213 -0.738866 -1.570842 0.061811 0.002096
    36 0.010843 0.093624 -0.081439 -3.141462 0.041719 -1.568236
    37 12.889789 -2.090538 -12.407912 -0.527985 0.339408 2.370252
    38 0.104748 -10.673144 -0.005453 0.491328 -0.036477 -0.015006
    39 0.555176 -3.650391 -0.346924 -1.727303 -0.046222 -0.024598
    40 0.026276 -1.508789 -0.000002 -0.427609 0.000000 0.000000
    41 0.013245 -0.927246 0.000000 -0.453783 0.000000 0.000000
    42 0.006928 0.005329 -0.181358 -1.528500 -0.248579 -1.611362
    43 -0.052313 0.038589 -0.230757 -1.592493 -0.043415 -1.528515
    44 -0.232600 -0.209656 -0.420669 -1.713790 -0.167173 -1.438930
    45 -0.213013 -3.744141 -0.346924 -1.692963 0.000000 0.000000
    46 0.013245 -1.575195 0.000002 -0.253072 0.000000 0.000000
    47 -0.000001 -1.178711 0.000004 -0.532325 0.000000 0.000000
    48 -0.038065 0.069166 -0.159883 -1.816986 0.066178 -1.575392
    49 -0.025151 0.088762 -0.068837 -1.817843 0.044510 -1.568287
    50 -0.102916 -0.186983 -0.272246 -1.833683 -0.232962 -1.472375
    51 -1.034180 -3.583984 -0.346924 -1.396258 0.000000 0.000000
    52 -0.000001 -1.616211 0.000000 -0.445061 0.000000 0.000000
    53 0.000001 -0.939941 0.000000 -0.445059 0.000000 0.000000
    54 -0.004241 0.043707 -0.080203 -2.014997 -0.186996 -1.460723
    55 0.015383 -0.089136 -0.030010 -2.006083 0.036346 -1.568629
    56 -0.022610 -0.212357 -0.177905 -1.933161 -0.118801 -1.518895
    57 1.305107 -3.223642 -0.346114 -1.508108 -0.078965 -0.038593
    58 -0.000001 -1.244141 0.000000 -0.863938 0.000000 0.000000
    59 0.000001 -0.768066 0.000000 -0.523598 0.000000 0.000000
    60 -0.067138 0.063251 -0.010961 -0.899214 -0.014515 -1.600326
    61 -0.151180 -0.007395 -0.070065 -0.913061 -0.118819 -1.408558
    62 -0.178164 -0.244680 -0.357067 -1.159916 -0.384260 -1.556110
    63 -0.385254 -0.459229 0.383789 -0.145109 -0.159875 -2.467070
    64 2.472656 0.024429 0.000002 -0.085522 -0.129480 -0.019845
    65 1.223419 0.009356 -0.005766 -0.325157 0.141280 0.395659
    66 -0.263409 -0.117640 -0.015659 0.000036 -0.082210 -0.026800
    67 0.007707 -0.334360 -0.191575 0.070788 -0.181563 0.282364
    68 0.225562 -0.567923 -0.420715 0.119895 -0.183798 0.223460
    69 -0.203683 -0.095654 -0.328305 -1.745077 0.075142 -1.515382
    70 -1.393460 8.839182 -0.239439 1.580804 -0.005024 -1.566848
    71 0.036020 0.082815 -0.692656 -1.570769 0.065989 0.001276
    72 -0.088586 0.054020 -0.088594 0.010231 0.033800 -1.560851
    73 0.120153 -0.050270 -0.054489 -2.854024 0.030688 -1.580508
    74 -0.139399 -0.111694 0.014400 0.285395 -0.031353 1.580313
    75 2.295096 -5.257324 0.968839 -0.842741 1.438303 -1.178056
    76 0.738178 -7.079689 1.130307 -1.247039 1.437608 -1.233844
    77 2.398058 -8.977903 1.443857 -1.247039 1.437608 -1.233844
    78 3.923708 -8.234629 1.417453 -1.247039 1.437608 -1.233844
  time 5
    0 1.629157 0.000000 0.541027 0.000000 0.000000 -1.570796
    1 -4.940331 9.125465 -10.611136 5.419627 -1.306764 -4.052712
    2 -0.001605 -10.701926 -0.006478 0.359828 -0.110135 -0.218226
    3 -0.653320 -3.630859 -0.348633 -1.003560 0.000001 -0.122172
    4 -0.013245 -1.509766 -0.000002 -1.090828 0.000000 0.000000
    5 0.000001 -0.953125 -0.000003 -1.343901 0.000000 0.000000
    6 0.007988 0.172184 -0.118553 -1.598091 -0.216549 -1.570593
    7 0.080660 0.135929 -0.203919 -1.506824 -0.066185 -1.662786
    8 0.117288 -0.155554 -0.604544 -1.412988 -0.374558 -1.569222
    9 0.128930 -3.762102 -0.343868 -0.890091 -0.000021 -0.148339
    10 -0.002884 -1.567259 0.006726 -1.212966 0.000000 -0.000003
    11 -0.006797 -1.160038 0.006655 -1.483442 0.000000 0.000000
    12 -0.018589 0.129953 -0.123721 -1.294580 0.001302 -1.635383
    13 -0.006160 0.170065 -0.110169 -1.280084 -0.068681 -1.597215
    14 0.047100 -0.104074 -0.352264 -1.243368 -0.257298 -1.694346
    15 0.948730 -3.617188 -0.348389 -0.235615 0.000001 0.130896
    16 -0.021700 -1.596358 -0.007350 -1.057235 0.079278 -0.048610
    17 -0.006735 -0.937906 0.007065 -0.593394 0.000000 -0.000001
    18 -0.022325 0.045424 -0.038284 -1.125544 -0.129230 -1.681412
    19 -0.042900 -0.061274 -0.071212 -1.124462 -0.060454 -1.586099
    20 0.063741 -0.109104 -0.248158 -1.142813 -0.125805 -1.693583
    21 -1.407227 -3.246094 -0.348633 -0.933748 -0.000002 -0.087263
    22 0.013458 -1.203125 0.000002 -0.610861 0.000000 0.000000
    23 -0.013008 -0.789551 0.000000 -1.212999 0.000000 0.000000
    24 -0.011721 0.093267 0.017949 -1.687855 -0.079155 -1.575164
    25 0.048863 -0.085541 0.028626 -1.715605 -0.034569 -1.653190
    26 0.173918 -0.198416 -0.336163 -1.668104 -0.422317 -1.710956
    27 0.438721 -0.485352 0.397461 0.342071 -0.443527 -1.083971
    28 2.356266 0.014158 0.001103 -0.305419 -0.000013 -0.401419
    29 1.251953 -0.000340 0.000000 0.000000 0.000000 -0.488689
    30 -0.267709 0.037512 -0.093907 2.913812 -0.143386 0.078467
    31 -0.029266 0.205408 -0.329287 2.788574 -0.255486 -0.188917
    32 0.204373 0.521055 -0.268577 2.886669 0.042206 -0.230367
    33 0.195697 -0.010059 -0.293538 -1.333586 0.150863 -1.672749
    34 1.257181 8.762590 -0.153713 -1.570562 0.002683 -1.566808
    35 -0.093500 -0.114213 -0.738866 -1.570842 0.061811 0.002096
    36 0.010843 0.093624 -0.081439 -3.141462 0.041719 -1.568236
    37 12.651500 -1.899126 -12.380567 -0.510815 0.315857 2.328092
    38 0.108654 -10.673144 -0.001547 0.478427 -0.031194 0.021200
    39 0.555176 -3.650391 -0.346924 -1.727303 -0.046222 -0.024598
    40 0.026276 -1.508789 -0.000002 -0.427609 0.000000 0.000000
    41 0.013245 -0.927246 0.000000 -0.453783 0.000000 0.000000
    42 0.006928 0.005329 -0.181358 -1.528500 -0.248579 -1.611362
    43 -0.052313 0.038589 -0.230757 -1.592493 -0.043415 -1.528515
    44 -0.232600 -0.209656 -0.420669 -1.713790 -0.167173 -1.438930
    45 -0.213013 -3.744141 -0.346924 -1.692963 0.000000 0.000000
    46 0.013245 -1.575195 0.000002 -0.253072 0.000000 0.000000
    47 -0.000001 -1.178711 0.000004 -0.532325 0.000000 0.000000
    48 -0.038065 0.069166 -0.159883 -1.816986 0.066178 -1.575392
    49 -0.025151 0.088762 -0.068837 -1.817843 0.044510 -1.568287
    50 -0.102916 -0.186983 -0.272246 -1.833683 -0.232962 -1.472375
    51 -1.034180 -3.583984 -0.346924 -1.396258 0.000000 0.000000
    52 -0.000001 -1.616211 0.000000 -0.445061 0.000000 0.000000
    53 0.000001 -0.939941 0.000000 -0.445059 0.000000 0.000000
    54 -0.004241 0.043707 -0.080203 -2.014997 -0.186996 -1.460723
    55 0.015383 -0.089136 -0.030010 -2.006083 0.036346 -1.568629
    56 -0.022610 -0.212357 -0.177905 -1.933161 -0.118801 -1.518895
    57 1.305107 -3.223642 -0.346114 -1.508108 -0.078965 -0.038593
    58 -0.000001 -1.244141 0.000000 -0.863938 0.000000 0.000000
    59 0.000001 -0.768066 0.000000 -0.523598 0.000000 0.000000
    60 -0.067138 0.063251 -0.010961 -0.899214 -0.014515 -1.600326
    61 -0.151180 -0.007395 -0.070065 -0.913061 -0.118819 -1.408558
    62 -0.178164 -0.244680 -0.357067 -1.159916 -0.384260 -1.556110
    63 -0.385254 -0.459229 0.383789 -0.145109 -0.159875 -2.467070
    64 2.472656 0.024429 0.000002 -0.085522 -0.129480 -0.019845
    65 1.227325 0.009356 -0.005766 -0.322437 0.140141 0.396021
    66 -0.263409 -0.117640 -0.015659 0.000036 -0.082210 -0.026800
    67 0.007707 -0.334360 -0.191575 0.070788 -0.181563 0.282364
    68 0.225562 -0.567923 -0.420715 0.119895 -0.183798 0.223460
    69 -0.203683 -0.095654 -0.328305 -1.745077 0.075142 -1.515382
    70 -1.393460 8.839182 -0.239439 1.580804 -0.005024 -1.566848
    71 0.036020 0.082815 -0.692656 -1.570769 0.065989 0.001276
    72 -0.088586 0.054020 -0.088594 0.010231 0.033800 -1.560851
    73 0.120153 -0.050270 -0.054489 -2.854024 0.030688 -1.580508
    74 -0.139399 -0.111694 0.014400 0.285395 -0.031353 1.580313
    75 2.295096 -5.257324 0.968839 -0.922214 1.438399 -1.189165
    76 0.738178 -7.079689 1.130307 -1.247039 1.437608 -1.233844
    77 2.398058 -8.977903 1.443857 -1.247039 1.437608 -1.233844
    78 3.923708 -8.234629 1.417453 -1.247039 1.437608 -1.233844
  time 6
    0 1.629157 0.000000 0.541027 0.000000 0.000000 -1.570796
    1 -4.791889 9.125465 -10.482226 5.451256 -1.316270 -4.085409
    2 -0.005512 -10.701926 -0.002571 0.354382 -0.112972 -0.206099
    3 -0.653320 -3.630859 -0.348633 -1.003560 0.000001 -0.122172
    4 -0.013245 -1.509766 -0.000002 -1.090828 0.000000 0.000000
    5 0.000001 -0.953125 -0.000003 -1.343901 0.000000 0.000000
    6 0.007988 0.172184 -0.118553 -1.598091 -0.216549 -1.570593
    7 0.080660 0.135929 -0.203919 -1.506824 -0.066185 -1.662786
    8 0.117288 -0.155554 -0.604544 -1.412988 -0.374558 -1.569222
    9 0.128930 -3.762102 -0.347774 -0.890091 -0.000021 -0.148339
    10 -0.006790 -1.563353 0.006726 -1.212966 0.000000 -0.000003
    11 -0.006797 -1.160038 0.006655 -1.483486 0.000000 0.000000
    12 -0.018589 0.129953 -0.123721 -1.294580 0.001302 -1.635383
    13 -0.006160 0.170065 -0.110169 -1.280084 -0.068681 -1.597215
    14 0.047100 -0.104074 -0.352264 -1.243368 -0.257298 -1.694346
    15 0.948730 -3.617188 -0.348389 -0.235615 0.000001 0.130896
    16 -0.021700 -1.596358 -0.003443 -0.875706 0.066491 -0.031615
    17 -0.006735 -0.941812 0.007065 -0.593376 0.000000 -0.000001
    18 -0.022325 0.045424 -0.038284 -1.125544 -0.129230 -1.681412
    19 -0.042900 -0.061274 -0.071212 -1.124462 -0.060454 -1.586099
    20 0.063741 -0.109104 -0.248158 -1.142813 -0.125805 -1.693583
    21 -1.407227 -3.246094 -0.348633 -0.933748 -0.000002 -0.087263
    22 0.013458 -1.203125 0.000002 -0.610861 0.000000 0.000000
    23 -0.013008 -0.789551 0.000000 -1.212999 0.000000 0.000000
    24 -0.011721 0.093267 0.017949 -1.687855 -0.079155 -1.575164
    25 0.048863 -0.085541 0.028626 -1.715605 -0.034569 -1.653190
    26 0.173918 -0.198416 -0.336163 -1.668104 -0.422317 -1.710956
    27 0.438721 -0.485352 0.397461 0.342071 -0.443527 -1.083971
    28 2.356266 0.014158 0.001103 -0.305419 -0.000013 -0.401419
    29 1.251953 -0.000340 0.000000 0.000000 0.000000 -0.488689
    30 -0.267709 0.037512 -0.093907 2.913812 -0.143386 0.078467
    31 -0.029266 0.205408 -0.329287 2.788574 -0.255486 -0.188917
    32 0.204373 0.521055 -0.268577 2.886669 0.042206 -0.230367
    33 0.195697 -0.010059 -0.293538 -1.333586 0.150863 -1.672749
    34 1.257181 8.762590 -0.153713 -1.570562 0.002683 -1.566808
    35 -0.093500 -0.114213 -0.738866 -1.570842 0.061811 0.002096
    36 0.010843 0.093624 -0.081439 -3.141462 0.041719 -1.568236
    37 12.342897 -1.692088 -12.251657 -0.498163 0.296863 2.293113
    38 0.108654 -10.673144 -0.005453 0.468646 -0.024717 0.056676
    39 0.555176 -3.650391 -0.346924 -1.727303 -0.046222 -0.024598
    40 0.026276 -1.508789 -0.000002 -0.427609 0.000000 0.000000
    41 0.013245 -0.927246 0.000000 -0.453783 0.000000 0.000000
    42 0.006928 0.005329 -0.181358 -1.528500 -0.248579 -1.611362
    43 -0.052313 0.038589 -0.230757 -1.592493 -0.043415 -1.528515
    44 -0.232600 -0.209656 -0.420669 -1.713790 -0.167173 -1.438930
    45 -0.213013 -3.744141 -0.346924 -1.692963 0.000000 0.000000
    46 0.013245 -1.575195 0.000002 -0.253072 0.000000 0.000000
    47 -0.000001 -1.178711 0.000004 -0.532325 0.000000 0.000000
    48 -0.038065 0.069166 -0.159883 -1.816986 0.066178 -1.575392
    49 -0.025151 0.088762 -0.068837 -1.817843 0.044510 -1.568287
    50 -0.102916 -0.186983 -0.272246 -1.833683 -0.232962 -1.472375
    51 -1.034180 -3.583984 -0.346924 -1.396258 0.000000 0.000000
    52 -0.000001 -1.616211 0.000000 -0.445061 0.000000 0.000000
    53 0.000001 -0.939941 0.000000 -0.445059 0.000000 0.000000
    54 -0.004241 0.043707 -0.080203 -2.014997 -0.186996 -1.460723
    55 0.015383 -0.089136 -0.030010 -2.006083 0.036346 -1.568629
    56 -0.022610 -0.212357 -0.177905 -1.933161 -0.118801 -1.518895
    57 1.305107 -3.223642 -0.346114 -1.508108 -0.078965 -0.038593
    58 -0.000001 -1.244141 0.000000 -0.863938 0.000000 0.000000
    59 0.000001 -0.768066 0.000000 -0.523598 0.000000 0.000000
    60 -0.067138 0.063251 -0.010961 -0.899214 -0.014515 -1.600326
    61 -0.151180 -0.007395 -0.070065 -0.913061 -0.118819 -1.408558
    62 -0.178164 -0.244680 -0.357067 -1.159916 -0.384260 -1.556110
    63 -0.385254 -0.459229 0.383789 -0.145109 -0.159875 -2.467070
    64 2.472656 0.024429 0.000002 -0.085522 -0.129480 -0.019845
    65 1.227325 0.009356 -0.001860 -0.304496 0.132675 0.398451
    66 -0.263409 -0.117640 -0.015659 0.000036 -0.082210 -0.026800
    67 0.007707 -0.334360 -0.191575 0.070788 -0.181563 0.282364
    68 0.225562 -0.567923 -0.420715 0.119895 -0.183798 0.223460
    69 -0.203683 -0.095654 -0.328305 -1.745077 0.075142 -1.515382
    70 -1.393460 8.839182 -0.239439 1.580804 -0.005024 -1.566848
    71 0.036020 0.082815 -0.692656 -1.570769 0.065989 0.001276
    72 -0.088586 0.054020 -0.088594 0.010231 0.033800 -1.560851
    73 0.120153 -0.050270 -0.054489 -2.854024 0.030688 -1.580508
    74 -0.139399 -0.111694 0.014400 0.285395 -0.031353 1.580313
    75 2.295096 -5.257324 0.968839 -1.016222 1.438375 -1.202241
    76 0.738178 -7.079689 1.130307 -1.247039 1.437608 -1.233844
    77 2.398058 -8.977903 1.443857 -1.247039 1.437608 -1.233844
    78 3.923708 -8.234629 1.417453 -1.247039 1.437608 -1.233844
  time 7
    0 1.629157 0.000000 0.541027 0.000000 0.000000 -1.570796
    1 -4.709856 9.125465 -10.419724 5.466784 -1.320617 -4.101568
    2 -0.005512 -10.701926 -0.002571 0.350874 -0.115063 -0.197594
    3 -0.653320 -3.630859 -0.348633 -1.003560 0.000001 -0.122172
    4 -0.013245 -1.509766 -0.000002 -1.090828 0.000000 0.000000
    5 0.000001 -0.953125 -0.000003 -1.343901 0.000000 0.000000
    6 0.007988 0.172184 -0.118553 -1.598091 -0.216549 -1.570593
    7 0.080660 0.135929 -0.203919 -1.506824 -0.066185 -1.662786
    8 0.117288 -0.155554 -0.604544 -1.412988 -0.374558 -1.569222
    9 0.128930 -3.762102 -0.347774 -0.890091 -0.000021 -0.148339
    10 -0.006790 -1.563353 0.002820 -1.212966 0.000000 -0.000003
    11 -0.006797 -1.160038 0.002748 -1.483442 0.000000 0.000000
    12 -0.018589 0.129953 -0.123721 -1.294580 0.001302 -1.635383
    13 -0.006160 0.170065 -0.110169 -1.280084 -0.068681 -1.597215
    14 0.047100 -0.104074 -0.352264 -1.243368 -0.257298 -1.694346
    15 0.948730 -3.617188 -0.348389 -0.235615 0.000001 0.130896
    16 -0.021700 -1.596358 -0.003443 -0.687672 0.050192 -0.016766
    17 -0.006735 -0.941812 0.007065 -0.593394 0.000000 -0.000001
    18 -0.022325 0.045424 -0.038284 -1.125544 -0.129230 -1.681412
    19 -0.042900 -0.061274 -0.071212 -1.124462 -0.060454 -1.586099
    20 0.063741 -0.109104 -0.248158 -1.142813 -0.125805 -1.693583
    21 -1.407227 -3.246094 -0.348633 -0.933748 -0.000002 -0.087263
    22 0.013458 -1.203125 0.000002 -0.610861 0.000000 0.000000
    23 -0.013008 -0.789551 0.000000 -1.212999 0.000000 0.000000
    24 -0.011721 0.093267 0.017949 -1.687855 -0.079155 -1.575164
    25 0.048863 -0.085541 0.028626 -1.715605 -0.034569 -1.653190
    26 0.173918 -0.198416 -0.336163 -1.668104 -0.422317 -1.710956
    27 0.438721 -0.485352 0.397461 0.342071 -0.443527 -1.083971
    28 2.356266 0.014158 0.001103 -0.305419 -0.000013 -0.401419
    29 1.251953 -0.000340 0.000000 0.000000 0.000000 -0.488689
    30 -0.267709 0.037512 -0.093907 2.913812 -0.143386 0.078467
    31 -0.029266 0.205408 -0.329287 2.788574 -0.255486 -0.188917
    32 0.204373 0.521055 -0.268577 2.886669 0.042206 -0.230367
    33 0.195697 -0.010059 -0.293538 -1.333586 0.150863 -1.672749
    34 1.257181 8.762590 -0.153713 -1.570562 0.002683 -1.566808
    35 -0.093500 -0.114213 -0.738866 -1.570842 0.061811 0.002096
    36 0.010843 0.093624 -0.081439 -3.141462 0.041719 -1.568236
    37 12.100702 -1.512395 -12.138372 -0.490604 0.282063 2.265221
    38 0.108654 -10.673144 -0.001547 0.464265 -0.018657 0.084080
    39 0.555176 -3.650391 -0.346924 -1.727303 -0.046222 -0.024598
    40 0.026276 -1.508789 -0.000002 -0.427609 0.000000 0.000000
    41 0.013245 -0.927246 0.000000 -0.453783 0.000000 0.000000
    42 0.006928 0.005329 -0.181358 -1.528500 -0.248579 -1.611362
    43 -0.052313 0.038589 -0.230757 -1.592493 -0.043415 -1.528515
    44 -0.232600 -0.209656 -0.420669 -1.713790 -0.167173 -1.438930
    45 -0.213013 -3.744141 -0.346924 -1.692963 0.000000 0.000000
    46 0.013245 -1.575195 0.000002 -0.253072 0.000000 0.000000
    47 -0.000001 -1.178711 0.000004 -0.532325 0.000000 0.000000
    48 -0.038065 0.069166 -0.159883 -1.816986 0.066178 -1.575392
    49 -0.025151 0.088762 -0.068837 -1.817843 0.044510 -1.568287
    50 -0.102916 -0.186983 -0.272246 -1.833683 -0.232962 -1.472375
    51 -1.034180 -3.583984 -0.346924 -1.396258 0.000000 0.000000
    52 -0.000001 -1.616211 0.000000 -0.445061 0.000000 0.000000
    53 0.000001 -0.939941 0.000000 -0.445059 0.000000 0.000000
    54 -0.004241 0.043707 -0.080203 -2.014997 -0.186996 -1.460723
    55 0.015383 -0.089136 -0.030010 -2.006083 0.036346 -1.568629
    56 -0.022610 -0.212357 -0.177905 -1.933161 -0.118801 -1.518895
    57 1.305107 -3.223642 -0.346114 -1.508108 -0.078965 -0.038593
    58 -0.000001 -1.244141 0.000000 -0.863938 0.000000 0.000000
    59 0.000001 -0.768066 0.000000 -0.523598 0.000000 0.000000
    60 -0.067138 0.063251 -0.010961 -0.899214 -0.014515 -1.600326
    61 -0.151180 -0.007395 -0.070065 -0.913061 -0.118819 -1.408558
    62 -0.178164 -0.244680 -0.357067 -1.159916 -0.384260 -1.556110
    63 -0.385254 -0.459229 0.383789 -0.145109 -0.159875 -2.467070
    64 2.472656 0.024429 0.000002 -0.085522 -0.129480 -0.019845
    65 1.223419 0.009356 -0.005766 -0.274642 0.120151 0.402253
    66 -0.263409 -0.117640 -0.015659 0.000036 -0.082210 -0.026800
    67 0.007707 -0.334360 -0.191575 0.070788 -0.181563 0.282364
    68 0.225562 -0.567923 -0.420715 0.119895 -0.183798 0.223460
    69 -0.203683 -0.095654 -0.328305 -1.745077 0.075142 -1.515382
    70 -1.393460 8.839182 -0.239439 1.580804 -0.005024 -1.566848
    71 0.036020 0.082815 -0.692656 -1.570769 0.065989 0.001276
    72 -0.088586 0.054020 -0.088594 0.010231 0.033800 -1.560851
    73 0.120153 -0.050270 -0.054489 -2.854024 0.030688 -1.580508
    74 -0.139399 -0.111694 0.014400 0.285395 -0.031353 1.580313
    75 2.295096 -5.257324 0.968839 -1.111006 1.438159 -1.215424
    76 0.738178 -7.079689 1.130307 -1.247039 1.437608 -1.233844
    77 2.398058 -8.977903 1.443857 -1.247039 1.437608 -1.233844
    78 3.923708 -8.234629 1.417453 -1.247039 1.437608 -1.233844
  time 8
    0 1.629157 0.000000 0.541027 0.000000 0.000000 -1.570796
    1 -4.639541 9.125465 -10.368941 5.478217 -1.323664 -4.113354
    2 -0.001605 -10.698019 -0.006478 0.349132 -0.116526 -0.192313
    3 -0.653320 -3.630859 -0.348633 -1.003560 0.000001 -0.122172
    4 -0.013245 -1.509766 -0.000002 -1.090828 0.000000 0.000000
    5 0.000001 -0.953125 -0.000003 -1.343901 0.000000 0.000000
    6 0.007988 0.172184 -0.118553 -1.598091 -0.216549 -1.570593
    7 0.080660 0.135929 -0.203919 -1.506824 -0.066185 -1.662786
    8 0.117288 -0.155554 -0.604544 -1.412988 -0.374558 -1.569222
    9 0.128930 -3.758196 -0.347774 -0.890091 -0.000021 -0.148339
    10 -0.006790 -1.563353 0.002820 -1.212966 0.000000 -0.000003
    11 -0.006797 -1.160038 0.006655 -1.483442 0.000000 0.000000
    12 -0.018589 0.129953 -0.123721 -1.294580 0.001302 -1.635383
    13 -0.006160 0.170065 -0.110169 -1.280084 -0.068681 -1.597215
    14 0.047100 -0.104074 -0.352264 -1.243368 -0.257298 -1.694346
    15 0.948730 -3.617188 -0.348389 -0.235615 0.000001 0.130896
    16 -0.017794 -1.596358 -0.003443 -0.506895 0.032155 -0.005609
    17 -0.006735 -0.941812 0.003159 -0.593394 0.000000 -0.000001
    18 -0.022325 0.045424 -0.038284 -1.125544 -0.129230 -1.681412
    19 -0.042900 -0.061274 -0.071212 -1.124462 -0.060454 -1.586099
    20 0.063741 -0.109104 -0.248158 -1.142813 -0.125805 -1.693583
    21 -1.407227 -3.246094 -0.348633 -0.933748 -0.000002 -0.087263
    22 0.013458 -1.203125 0.000002 -0.610861 0.000000 0.000000
    23 -0.013008 -0.789551 0.000000 -1.212999 0.000000 0.000000
    24 -0.011721 0.093267 0.017949 -1.687855 -0.079155 -1.575164
    25 0.048863 -0.085541 0.028626 -1.715605 -0.034569 -1.653190
    26 0.173918 -0.198416 -0.336163 -1.668104 -0.422317 -1.710956
    27 0.438721 -0.485352 0.397461 0.342071 -0.443527 -1.083971
    28 2.356266 0.014158 0.001103 -0.305431 -0.000013 -0.401419
    29 1.251953 -0.000340 0.000000 0.000000 0.000000 -0.488689
    30 -0.267709 0.037512 -0.093907 2.913812 -0.143386 0.078467
    31 -0.029266 0.205408 -0.329287 2.788574 -0.255486 -0.188917
    32 0.204373 0.521055 -0.268577 2.886669 0.042206 -0.230367
    33 0.195697 -0.010059 -0.293538 -1.333586 0.150863 -1.672749
    34 1.257181 8.762590 -0.153713 -1.570562 0.002683 -1.566808
    35 -0.093500 -0.114213 -0.738866 -1.570842 0.061811 0.002096
    36 0.010843 0.093624 -0.081439 -3.141462 0.041719 -1.568236
    37 12.096796 -1.434268 -12.126653 -0.490029 0.273836 2.249849
    38 0.104748 -10.673144 -0.005453 0.464840 -0.013071 0.104572
    39 0.555176 -3.650391 -0.346924 -1.727303 -0.046222 -0.024598
    40 0.026276 -1.508789 -0.000002 -0.427609 0.000000 0.000000
    41 0.013245 -0.927246 0.000000 -0.453783 0.000000 0.000000
    42 0.006928 0.005329 -0.181358 -1.528500 -0.248579 -1.611362
    43 -0.052313 0.038589 -0.230757 -1.592493 -0.043415 -1.528515
    44 -0.232600 -0.209656 -0.420669 -1.713790 -0.167173 -1.438930
    45 -0.213013 -3.744141 -0.346924 -1.692963 0.000000 0.000000
    46 0.013245 -1.575195 0.000002 -0.253072 0.000000 0.000000
    47 -0.000001 -1.178711 0.000004 -0.532325 0.000000 0.000000
    48 -0.038065 0.069166 -0.159883 -1.816986 0.066178 -1.575392
    49 -0.025151 0.088762 -0.068837 -1.817843 0.044510 -1.568287
    50 -0.102916 -0.186983 -0.272246 -1.833683 -0.232962 -1.472375
    51 -1.034180 -3.583984 -0.346924 -1.396258 0.000000 0.000000
    52 -0.000001 -1.616211 0.000000 -0.445061 0.000000 0.000000
    53 0.000001 -0.939941 0.000000 -0.445059 0.000000 0.000000
    54 -0.004241 0.043707 -0.080203 -2.014997 -0.186996 -1.460723
    55 0.015383 -0.089136 -0.030010 -2.006083 0.036346 -1.568629
    56 -0.022610 -0.212357 -0.177905 -1.933161 -0.118801 -1.518895
    57 1.305107 -3.223642 -0.346114 -1.508108 -0.078965 -0.038609
    58 -0.000001 -1.244141 0.000000 -0.863938 0.000000 0.000000
    59 0.000001 -0.768066 0.000000 -0.523598 0.000000 0.000000
    60 -0.067138 0.063251 -0.010961 -0.899214 -0.014515 -1.600326
    61 -0.151180 -0.007395 -0.070065 -0.913061 -0.118819 -1.408558
    62 -0.178164 -0.244680 -0.357067 -1.159916 -0.384260 -1.556110
    63 -0.385254 -0.459229 0.383789 -0.145109 -0.159875 -2.467070
    64 2.472656 0.024429 0.000002 -0.085522 -0.129480 -0.019845
    65 1.223419 0.009356 -0.001860 -0.236268 0.103840 0.406519
    66 -0.263409 -0.117640 -0.015659 0.000036 -0.082210 -0.026800
    67 0.007707 -0.334360 -0.191575 0.070788 -0.181563 0.282364
    68 0.225562 -0.567923 -0.420715 0.119895 -0.183798 0.223460
    69 -0.203683 -0.095654 -0.328305 -1.745077 0.075142 -1.515382
    70 -1.393460 8.839182 -0.239439 1.580804 -0.005024 -1.566848
    71 0.036020 0.082815 -0.692656 -1.570769 0.065989 0.001276
    72 -0.088586 0.054020 -0.088594 0.010231 0.033800 -1.560851
    73 0.120153 -0.050270 -0.054489 -2.854024 0.030688 -1.580508
    74 -0.139399 -0.111694 0.014400 0.285395 -0.031353 1.580313
    75 2.295096 -5.257324 0.968839 -1.192552 1.437872 -1.226593
    76 0.738178 -7.079689 1.130307 -1.247039 1.437608 -1.233844
    77 2.398058 -8.977903 1.443857 -1.247039 1.437608 -1.233844
    78 3.923708 -8.234629 1.417453 -1.247039 1.437608 -1.233844
  time 9
    0 1.629157 0.000000 0.541027 0.000000 0.000000 -1.570796
    1 -4.569226 9.125465 -10.337690 5.486219 -1.325735 -4.121718
    2 -0.001605 -10.701926 -0.002571 0.348072 -0.117885 -0.187957
    3 -0.653320 -3.630859 -0.348633 -1.003560 0.000001 -0.122172
    4 -0.013245 -1.509766 -0.000002 -1.090828 0.000000 0.000000
    5 0.000001 -0.953125 -0.000003 -1.343901 0.000000 0.000000
    6 0.007988 0.172184 -0.118553 -1.598091 -0.216549 -1.570593
    7 0.080660 0.135929 -0.203919 -1.506824 -0.066185 -1.662786
    8 0.117288 -0.155554 -0.604544 -1.412988 -0.374558 -1.569222
    9 0.132836 -3.758196 -0.347774 -0.890091 -0.000021 -0.148339
    10 -0.002884 -1.567259 0.006726 -1.212966 0.000000 -0.000003
    11 -0.006797 -1.160038 0.002748 -1.483442 0.000000 0.000000
    12 -0.018589 0.129953 -0.123721 -1.294580 0.001302 -1.635383
    13 -0.006160 0.170065 -0.110169 -1.280084 -0.068681 -1.597215
    14 0.047100 -0.104074 -0.352264 -1.243368 -0.257298 -1.694346
    15 0.948730 -3.617188 -0.348389 -0.235615 0.000001 0.130896
    16 -0.017794 -1.596358 -0.007350 -0.347324 0.014717 0.001390
    17 -0.002829 -0.937906 0.007065 -0.593394 0.000000 -0.000001
    18 -0.022325 0.045424 -0.038284 -1.125544 -0.129230 -1.681412
    19 -0.042900 -0.061274 -0.071212 -1.124462 -0.060454 -1.586099
    20 0.063741 -0.109104 -0.248158 -1.142813 -0.125805 -1.693583
    21 -1.407227 -3.246094 -0.348633 -0.933748 -0.000002 -0.087263
    22 0.013458 -1.203125 0.000002 -0.610861 0.000000 0.000000
    23 -0.013008 -0.789551 0.000000 -1.212999 0.000000 0.000000
    24 -0.011721 0.093267 0.017949 -1.687855 -0.079155 -1.575164
    25 0.048863 -0.085541 0.028626 -1.715605 -0.034569 -1.653190
    26 0.173918 -0.198416 -0.336163 -1.668104 -0.422317 -1.710956
    27 0.438721 -0.485352 0.397461 0.342071 -0.443527 -1.083971
    28 2.356266 0.014158 0.001103 -0.305431 -0.000013 -0.401419
    29 1.251953 -0.000340 0.000000 0.000000 0.000000 -0.488689
    30 -0.267709 0.037512 -0.093907 2.913812 -0.143386 0.078467
    31 -0.029266 0.205408 -0.329287 2.788574 -0.255486 -0.188917
    32 0.204373 0.521055 -0.268577 2.886669 0.042206 -0.230367
    33 0.195697 -0.010059 -0.293538 -1.333586 0.150863 -1.672749
    34 1.257181 8.762590 -0.153713 -1.570562 0.002683 -1.566808
    35 -0.093500 -0.114213 -0.738866 -1.570842 0.061811 0.002096
    36 0.010843 0.093624 -0.081439 -3.141462 0.041719 -1.568236
    37 12.182736 -1.403017 -12.153998 -0.495534 0.269642 2.242208
    38 0.104748 -10.673144 -0.001547 0.468226 -0.006897 0.124551
    39 0.555176 -3.650391 -0.346924 -1.727303 -0.046222 -0.024598
    40 0.026276 -1.508789 -0.000002 -0.427609 0.000000 0.000000
    41 0.013245 -0.927246 0.000000 -0.453783 0.000000 0.000000
    42 0.006928 0.005329 -0.181358 -1.528500 -0.248579 -1.611362
    43 -0.052313 0.038589 -0.230757 -1.592493 -0.043415 -1.528515
    44 -0.232600 -0.209656 -0.420669 -1.713790 -0.167173 -1.438930
    45 -0.213013 -3.744141 -0.346924 -1.692963 0.000000 0.000000
    46 0.013245 -1.575195 0.000002 -0.253072 0.000000 0.000000
    47 -0.000001 -1.178711 0.000004 -0.532325 0.000000 0.000000
    48 -0.038065 0.069166 -0.159883 -1.816986 0.066178 -1.575392
    49 -0.025151 0.088762 -0.068837 -1.817843 0.044510 -1.568287
    50 -0.102916 -0.186983 -0.272246 -1.833683 -0.232962 -1.472375
    51 -1.034180 -3.583984 -0.346924 -1.396258 0.000000 0.000000
    52 -0.000001 -1.616211 0.000000 -0.445061 0.000000 0.000000
    53 0.000001 -0.939941 0.000000 -0.445059 0.000000 0.000000
    54 -0.004241 0.043707 -0.080203 -2.014997 -0.186996 -1.460723
    55 0.015383 -0.089136 -0.030010 -2.006083 0.036346 -1.568629
    56 -0.022610 -0.212357 -0.177905 -1.933161 -0.118801 -1.518895
    57 1.305107 -3.223642 -0.346114 -1.508108 -0.078965 -0.038609
    58 -0.000001 -1.244141 0.000000 -0.863938 0.000000 0.000000
    59 0.000001 -0.768066 0.000000 -0.523598 0.000000 0.000000
    60 -0.067138 0.063251 -0.010961 -0.899214 -0.014515 -1.600326
    61 -0.151180 -0.007395 -0.070065 -0.913061 -0.118819 -1.408558
    62 -0.178164 -0.244680 -0.357067 -1.159916 -0.384260 -1.556110
    63 -0.385254 -0.459229 0.383789 -0.145109 -0.159875 -2.467070
    64 2.472656 0.024429 0.000002 -0.085522 -0.129480 -0.019845
    65 1.223419 0.009356 -0.005766 -0.192644 0.085012 0.410657
    66 -0.263409 -0.117640 -0.015659 0.000036 -0.082210 -0.026800
    67 0.007707 -0.334360 -0.191575 0.070788 -0.181563 0.282364
    68 0.225562 -0.567923 -0.420715 0.119895 -0.183798 0.223460
    69 -0.203683 -0.095654 -0.328305 -1.745077 0.075142 -1.515382
    70 -1.393460 8.839182 -0.239439 1.580804 -0.005024 -1.566848
    71 0.036020 0.082815 -0.692656 -1.570769 0.065989 0.001276
    72 -0.088586 0.054020 -0.088594 0.010231 0.033800 -1.560851
    73 0.120153 -0.050270 -0.054489 -2.854024 0.030688 -1.580508
    74 -0.139399 -0.111694 0.014400 0.285395 -0.031353 1.580313
    75 2.295096 -5.257324 0.968839 -1.247039 1.437608 -1.233844
    76 0.738178 -7.079689 1.130307 -1.247039 1.437608 -1.233844
    77 2.398058 -8.977903 1.443857 -1.247039 1.437608 -1.233844
    78 3.923708 -8.234629 1.417453 -1.247039 1.437608 -1.233844
  time 10
    0 1.629157 0.000000 0.541027 0.000000 0.000000 -1.570796
    1 -4.498912 9.125465 -10.318158 5.491554 -1.327076 -4.127041
    2 -0.001605 -10.698019 -0.002571 0.347588 -0.119169 -0.184319
    3 -0.653320 -3.630859 -0.348633 -1.003560 0.000001 -0.122172
    4 -0.013245 -1.509766 -0.000002 -1.090828 0.000000 0.000000
    5 0.000001 -0.953125 -0.000003 -1.343901 0.000000 0.000000
    6 0.007988 0.172184 -0.118553 -1.598091 -0.216549 -1.570593
    7 0.080660 0.135929 -0.203919 -1.506824 -0.066185 -1.662786
    8 0.117288 -0.155554 -0.604544 -1.412988 -0.374558 -1.569222
    9 0.128930 -3.758196 -0.347774 -0.890091 -0.000021 -0.148339
    10 -0.006790 -1.567259 0.006726 -1.212966 0.000000 -0.000003
    11 -0.006797 -1.160038 0.002748 -1.483442 0.000000 0.000000
    12 -0.018589 0.129953 -0.123721 -1.294580 0.001302 -1.635383
    13 -0.006160 0.170065 -0.110169 -1.280084 -0.068681 -1.597215
    14 0.047100 -0.104074 -0.352264 -1.243368 -0.257298 -1.694346
    15 0.948730 -3.617188 -0.348389 -0.235615 0.000001 0.130896
    16 -0.021700 -1.596358 -0.007350 -0.347324 0.014717 0.001390
    17 -0.006735 -0.941812 0.007065 -0.593394 0.000000 -0.000001
    18 -0.022325 0.045424 -0.038284 -1.125544 -0.129230 -1.681412
    19 -0.042900 -0.061274 -0.071212 -1.124462 -0.060454 -1.586099
    20 0.063741 -0.109104 -0.248158 -1.142813 -0.125805 -1.693583
    21 -1.407227 -3.246094 -0.348633 -0.933748 -0.000002 -0.087263
    22 0.013458 -1.203125 0.000002 -0.610861 0.000000 0.000000
    23 -0.013008 -0.789551 0.000000 -1.212999 0.000000 0.000000
    24 -0.011721 0.093267 0.017949 -1.687855 -0.079155 -1.575164
    25 0.048863 -0.085541 0.028626 -1.715605 -0.034569 -1.653190
    26 0.173918 -0.198416 -0.336163 -1.668104 -0.422317 -1.710956
    27 0.438721 -0.485352 0.397461 0.342071 -0.443527 -1.083971
    28 2.356266 0.014158 0.001103 -0.305419 -0.000013 -0.401419
    29 1.251953 -0.000340 0.000000 0.000000 0.000000 -0.488689
    30 -0.267709 0.037512 -0.093907 2.913812 -0.143386 0.078467
    31 -0.029266 0.205408 -0.329287 2.788574 -0.255486 -0.188917
    32 0.204373 0.521055 -0.268577 2.886669 0.042206 -0.230367
    33 0.195697 -0.010059 -0.293538 -1.333586 0.150863 -1.672749
    34 1.257181 8.762590 -0.153713 -1.570562 0.002683 -1.566808
    35 -0.093500 -0.114213 -0.738866 -1.570842 0.061811 0.002096
    36 0.010843 0.093624 -0.081439 -3.141462 0.041719 -1.568236
    37 12.241332 -1.363953 -12.204781 -0.504160 0.266577 2.237054
    38 0.108654 -10.673144 -0.005453 0.473780 -0.000439 0.144044
    39 0.555176 -3.650391 -0.346924 -1.727303 -0.046222 -0.024598
    40 0.026276 -1.508789 -0.000002 -0.427609 0.000000 0.000000
    41 0.013245 -0.927246 0.000000 -0.453783 0.000000 0.000000
    42 0.006928 0.005329 -0.181358 -1.528500 -0.248579 -1.611362
    43 -0.052313 0.038589 -0.230757 -1.592493 -0.043415 -1.528515
    44 -0.232600 -0.209656 -0.420669 -1.713790 -0.167173 -1.438930
    45 -0.213013 -3.744141 -0.346924 -1.692963 0.000000 0.000000
    46 0.013245 -1.575195 0.000002 -0.253072 0.000000 0.000000
    47 -0.000001 -1.178711 0.000004 -0.532325 0.000000 0.000000
    48 -0.038065 0.069166 -0.159883 -1.816986 0.066178 -1.575392
    49 -0.025151 0.088762 -0.068837 -1.817843 0.044510 -1.568287
    50 -0.102916 -0.186983 -0.272246 -1.833683 -0.232962 -1.472375
    51 -1.034180 -3.583984 -0.346924 -1.396258 0.000000 0.000000
    52 -0.000001 -1.616211 0.000000 -0.445061 0.000000 0.000000
    53 0.000001 -0.939941 0.000000 -0.445059 0.000000 0.000000
    54 -0.004241 0.043707 -0.080203 -2.014997 -0.186996 -1.460723
    55 0.015383 -0.089136 -0.030010 -2.006083 0.036346 -1.568629
    56 -0.022610 -0.212357 -0.177905 -1.933161 -0.118801 -1.518895
    57 1.305107 -3.223642 -0.346114 -1.508108 -0.078965 -0.038609
    58 -0.000001 -1.244141 0.000000 -0.863938 0.000000 0.000000
    59 0.000001 -0.768066 0.000000 -0.523598 0.000000 0.000000
    60 -0.067138 0.063251 -0.010961 -0.899214 -0.014515 -1.600326
    61 -0.151180 -0.007395 -0.070065 -0.913061 -0.118819 -1.408558
    62 -0.178164 -0.244680 -0.357067 -1.159916 -0.384260 -1.556110
    63 -0.385254 -0.459229 0.383789 -0.145109 -0.159875 -2.467070
    64 2.472656 0.024429 0.000002 -0.085522 -0.129480 -0.019845
    65 1.223419 0.009356 -0.005766 -0.146994 0.065118 0.414044
    66 -0.263409 -0.117640 -0.015659 0.000036 -0.082210 -0.026800
    67 0.007707 -0.334360 -0.191575 0.070788 -0.181563 0.282364
    68 0.225562 -0.567923 -0.420715 0.119895 -0.183798 0.223460
    69 -0.203683 -0.095654 -0.328305 -1.745077 0.075142 -1.515382
    70 -1.393460 8.839182 -0.239439 1.580804 -0.005024 -1.566848
    71 0.036020 0.082815 -0.692656 -1.570769 0.065989 0.001276
    72 -0.088586 0.054020 -0.088594 0.010231 0.033800 -1.560851
    73 0.120153 -0.050270 -0.054489 -2.854024 0.030688 -1.580508
    74 -0.139399 -0.111694 0.014400 0.285395 -0.031353 1.580313
    75 2.295096 -5.257324 0.968839 -1.272333 1.437464 -1.237152
    76 0.738178 -7.079689 1.130307 -1.247039 1.437608 -1.233844
    77 2.398058 -8.977903 1.443857 -1.247039 1.437608 -1.233844
    78 3.923708 -8.234629 1.417453 -1.247039 1.437608 -1.233844
  time 11
    0 1.629157 0.000000 0.541027 0.000000 0.000000 -1.570796
    1 -4.436410 9.125465 -10.306439 5.494889 -1.327929 -4.130557
    2 -0.001605 -10.701926 -0.002571 0.347470 -0.120409 -0.181191
    3 -0.653320 -3.630859 -0.348633 -1.003560 0.000001 -0.122172
    4 -0.013245 -1.509766 -0.000002 -1.090828 0.000000 0.000000
    5 0.000001 -0.953125 -0.000003 -1.343901 0.000000 0.000000
    6 0.007988 0.172184 -0.118553 -1.598091 -0.216549 -1.570593
    7 0.080660 0.135929 -0.203919 -1.506824 -0.066185 -1.662786
    8 0.117288 -0.155554 -0.604544 -1.412988 -0.374558 -1.569222
    9 0.128930 -3.758196 -0.347774 -0.890091 -0.000021 -0.148339
    10 -0.002884 -1.567259 0.006726 -1.212966 0.000000 -0.000003
    11 -0.002891 -1.160038 0.002748 -1.483442 0.000000 0.000000
    12 -0.018589 0.129953 -0.123721 -1.294580 0.001302 -1.635383
    13 -0.006160 0.170065 -0.110169 -1.280084 -0.068681 -1.597215
    14 0.047100 -0.104074 -0.352264 -1.243368 -0.257298 -1.694346
    15 0.948730 -3.617188 -0.348389 -0.235615 0.000001 0.130896
    16 -0.021700 -1.596358 -0.003443 -0.347324 0.014717 0.001390
    17 -0.006735 -0.941812 0.007065 -0.593394 0.000000 -0.000001
    18 -0.022325 0.045424 -0.038284 -1.125544 -0.129230 -1.681412
    19 -0.042900 -0.061274 -0.071212 -1.124462 -0.060454 -1.586099
    20 0.063741 -0.109104 -0.248158 -1.142813 -0.125805 -1.693583
    21 -1.407227 -3.246094 -0.348633 -0.933748 -0.000002 -0.087263
    22 0.013458 -1.203125 0.000002 -0.610861 0.000000 0.000000
    23 -0.013008 -0.789551 0.000000 -1.212999 0.000000 0.000000
    24 -0.011721 0.093267 0.017949 -1.687855 -0.079155 -1.575164
    25 0.048863 -0.085541 0.028626 -1.715605 -0.034569 -1.653190
    26 0.173918 -0.198416 -0.336163 -1.668104 -0.422317 -1.710956
    27 0.438721 -0.485352 0.397461 0.342071 -0.443527 -1.083971
    28 2.356266 0.014158 0.001103 -0.305419 -0.000013 -0.401419
    29 1.251953 -0.000340 0.000000 0.000000 0.000000 -0.488689
    30 -0.267709 0.037512 -0.093907 2.913812 -0.143386 0.078467
    31 -0.029266 0.205408 -0.329287 2.788574 -0.255486 -0.188917
    32 0.204373 0.521055 -0.268577 2.886669 0.042206 -0.230367
    33 0.195697 -0.010059 -0.293538 -1.333586 0.150863 -1.672749
    34 1.257181 8.762590 -0.153713 -1.570562 0.002683 -1.566808
    35 -0.093500 -0.114213 -0.738866 -1.570842 0.061811 0.002096
    36 0.010843 0.093624 -0.081439 -3.141462 0.041719 -1.568236
    37 12.307740 -1.348328 -12.286814 -0.513772 0.263996 2.232727
    38 0.108654 -10.673144 -0.001547 0.480950 0.006151 0.163294
    39 0.555176 -3.650391 -0.346924 -1.727303 -0.046222 -0.024598
    40 0.026276 -1.508789 -0.000002 -0.427609 0.000000 0.000000
    41 0.013245 -0.927246 0.000000 -0.453783 0.000000 0.000000
    42 0.006928 0.005329 -0.181358 -1.528500 -0.248579 -1.611362
    43 -0.052313 0.038589 -0.230757 -1.592493 -0.043415 -1.528515
    44 -0.232600 -0.209656 -0.420669 -1.713790 -0.167173 -1.438930
    45 -0.213013 -3.744141 -0.346924 -1.692963 0.000000 0.000000
    46 0.013245 -1.575195 0.000002 -0.253072 0.000000 0.000000
    47 -0.000001 -1.178711 0.000004 -0.532325 0.000000 0.000000
    48 -0.038065 0.069166 -0.159883 -1.816986 0.066178 -1.575392
    49 -0.025151 0.088762 -0.068837 -1.817843 0.044510 -1.568287
    50 -0.102916 -0.186983 -0.272246 -1.833683 -0.232962 -1.472375
    51 -1.034180 -3.583984 -0.346924 -1.396258 0.000000 0.000000
    52 -0.000001 -1.616211 0.000000 -0.445061 0.000000 0.000000
    53 0.000001 -0.939941 0.000000 -0.445059 0.000000 0.000000
    54 -0.004241 0.043707 -0.080203 -2.014997 -0.186996 -1.460723
    55 0.015383 -0.089136 -0.030010 -2.006083 0.036346 -1.568629
    56 -0.022610 -0.212357 -0.177905 -1.933161 -0.118801 -1.518895
    57 1.305107 -3.223642 -0.346114 -1.508108 -0.078965 -0.038593
    58 -0.000001 -1.244141 0.000000 -0.863938 0.000000 0.000000
    59 0.000001 -0.768066 0.000000 -0.523598 0.000000 0.000000
    60 -0.067138 0.063251 -0.010961 -0.899214 -0.014515 -1.600326
    61 -0.151180 -0.007395 -0.070065 -0.913061 -0.118819 -1.408558
    62 -0.178164 -0.244680 -0.357067 -1.159916 -0.384260 -1.556110
    63 -0.385254 -0.459229 0.383789 -0.145109 -0.159875 -2.467070
    64 2.472656 0.024429 0.000002 -0.085522 -0.129480 -0.019845
    65 1.223419 0.009356 -0.005766 -0.102543 0.045547 0.416527
    66 -0.263409 -0.117640 -0.015659 0.000036 -0.082210 -0.026800
    67 0.007707 -0.334360 -0.191575 0.070788 -0.181563 0.282364
    68 0.225562 -0.567923 -0.420715 0.119895 -0.183798 0.223460
    69 -0.203683 -0.095654 -0.328305 -1.745077 0.075142 -1.515382
    70 -1.393460 8.839182 -0.239439 1.580804 -0.005024 -1.566848
    71 0.036020 0.082815 -0.692656 -1.570769 0.065989 0.001276
    72 -0.088586 0.054020 -0.088594 0.010231 0.033800 -1.560851
    73 0.120153 -0.050270 -0.054489 -2.854024 0.030688 -1.580508
    74 -0.139399 -0.111694 0.014400 0.285395 -0.031353 1.580313
    75 2.295096 -5.257324 0.968839 -1.279440 1.437440 -1.238087
    76 0.738178 -7.079689 1.130307 -1.247039 1.437608 -1.233844
    77 2.398058 -8.977903 1.443857 -1.247039 1.437608 -1.233844
    78 3.923708 -8.234629 1.417453 -1.247039 1.437608 -1.233844
  time 12
    0 1.629157 0.000000 0.541027 0.000000 0.000000 -1.570796
    1 -4.377814 9.125465 -10.314252 5.497366 -1.328538 -4.133219
    2 -0.001605 -10.701926 -0.002571 0.347561 -0.121589 -0.178399
    3 -0.653320 -3.630859 -0.348633 -1.003560 0.000001 -0.122172
    4 -0.013245 -1.509766 -0.000002 -1.090828 0.000000 0.000000
    5 0.000001 -0.953125 -0.000003 -1.343901 0.000000 0.000000
    6 0.007988 0.172184 -0.118553 -1.598091 -0.216549 -1.570593
    7 0.080660 0.135929 -0.203919 -1.506824 -0.066185 -1.662786
    8 0.117288 -0.155554 -0.604544 -1.412988 -0.374558 -1.569222
    9 0.128930 -3.758196 -0.343868 -0.890091 -0.000021 -0.148339
    10 -0.006790 -1.567259 0.006726 -1.212966 0.000000 -0.000003
    11 -0.006797 -1.160038 0.006655 -1.483442 0.000000 0.000000
    12 -0.018589 0.129953 -0.123721 -1.294580 0.001302 -1.635383
    13 -0.006160 0.170065 -0.110169 -1.280084 -0.068681 -1.597215
    14 0.047100 -0.104074 -0.352264 -1.243368 -0.257298 -1.694346
    15 0.948730 -3.617188 -0.348389 -0.235615 0.000001 0.130896
    16 -0.017794 -1.596358 -0.003443 -0.347324 0.014717 0.001390
    17 -0.002829 -0.941812 0.003159 -0.593394 0.000000 -0.000001
    18 -0.022325 0.045424 -0.038284 -1.125544 -0.129230 -1.681412
    19 -0.042900 -0.061274 -0.071212 -1.124462 -0.060454 -1.586099
    20 0.063741 -0.109104 -0.248158 -1.142813 -0.125805 -1.693583
    21 -1.407227 -3.246094 -0.348633 -0.933748 -0.000002 -0.087263
    22 0.013458 -1.203125 0.000002 -0.610861 0.000000 0.000000
    23 -0.013008 -0.789551 0.000000 -1.212999 0.000000 0.000000
    24 -0.011721 0.093267 0.017949 -1.687855 -0.079155 -1.575164
    25 0.048863 -0.085541 0.028626 -1.715605 -0.034569 -1.653190
    26 0.173918 -0.198416 -0.336163 -1.668104 -0.422317 -1.710956
    27 0.438721 -0.485352 0.397461 0.342071 -0.443527 -1.083971
    28 2.356266 0.014158 0.001103 -0.305419 -0.000013 -0.401419
    29 1.251953 -0.000340 0.000000 0.000000 0.000000 -0.488689
    30 -0.267709 0.037512 -0.093907 2.913812 -0.143386 0.078467
    31 -0.029266 0.205408 -0.329287 2.788574 -0.255486 -0.188917
    32 0.204373 0.521055 -0.268577 2.886669 0.042206 -0.230367
    33 0.195697 -0.010059 -0.293538 -1.333586 0.150863 -1.672749
    34 1.257181 8.762590 -0.153713 -1.570562 0.002683 -1.566808
    35 -0.093500 -0.114213 -0.738866 -1.570842 0.061811 0.002096
    36 0.010843 0.093624 -0.081439 -3.141462 0.041719 -1.568236
    37 12.389774 -1.340515 -12.396193 -0.523960 0.261738 2.229229
    38 0.104748 -10.673144 -0.005453 0.489093 0.012741 0.182436
    39 0.555176 -3.650391 -0.346924 -1.727303 -0.046222 -0.024598
    40 0.026276 -1.508789 -0.000002 -0.427609 0.000000 0.000000
    41 0.013245 -0.927246 0.000000 -0.453783 0.000000 0.000000
    42 0.006928 0.005329 -0.181358 -1.528500 -0.248579 -1.611362
    43 -0.052313 0.038589 -0.230757 -1.592493 -0.043415 -1.528515
    44 -0.232600 -0.209656 -0.420669 -1.713790 -0.167173 -1.438930
    45 -0.213013 -3.744141 -0.346924 -1.692963 0.000000 0.000000
    46 0.013245 -1.575195 0.000002 -0.253072 0.000000 0.000000
    47 -0.000001 -1.178711 0.000004 -0.532325 0.000000 0.000000
    48 -0.038065 0.069166 -0.159883 -1.816986 0.066178 -1.575392
    49 -0.025151 0.088762 -0.068837 -1.817843 0.044510 -1.568287
    50 -0.102916 -0.186983 -0.272246 -1.833683 -0.232962 -1.472375
    51 -1.034180 -3.583984 -0.346924 -1.396258 0.000000 0.000000
    52 -0.000001 -1.616211 0.000000 -0.445061 0.000000 0.000000
    53 0.000001 -0.939941 0.000000 -0.445059 0.000000 0.000000
    54 -0.004241 0.043707 -0.080203 -2.014997 -0.186996 -1.460723
    55 0.015383 -0.089136 -0.030010 -2.006083 0.036346 -1.568629
    56 -0.022610 -0.212357 -0.177905 -1.933161 -0.118801 -1.518895
    57 1.305107 -3.223642 -0.346114 -1.508108 -0.078965 -0.038609
    58 -0.000001 -1.244141 0.000000 -0.863938 0.000000 0.000000
    59 0.000001 -0.768066 0.000000 -0.523598 0.000000 0.000000
    60 -0.067138 0.063251 -0.010961 -0.899214 -0.014515 -1.600326
    61 -0.151180 -0.007395 -0.070065 -0.913061 -0.118819 -1.408558
    62 -0.178164 -0.244680 -0.357067 -1.159916 -0.384260 -1.556110
    63 -0.385254 -0.459229 0.383789 -0.145109 -0.159875 -2.467070
    64 2.472656 0.024429 0.000002 -0.085522 -0.129480 -0.019845
    65 1.227325 0.009356 -0.005766 -0.062455 0.027774 0.417975
    66 -0.263409 -0.117640 -0.015659 0.000036 -0.082210 -0.026800
    67 0.007707 -0.334360 -0.191575 0.070788 -0.181563 0.282364
    68 0.225562 -0.567923 -0.420715 0.119895 -0.183798 0.223460
    69 -0.203683 -0.095654 -0.328305 -1.745077 0.075142 -1.515382
    70 -1.393460 8.839182 -0.239439 1.580804 -0.005024 -1.566848
    71 0.036020 0.082815 -0.692656 -1.570769 0.065989 0.001276
    72 -0.088586 0.054020 -0.088594 0.010231 0.033800 -1.560851
    73 0.120153 -0.050270 -0.054489 -2.854024 0.030688 -1.580508
    74 -0.139399 -0.111694 0.014400 0.285395 -0.031353 1.580313
    75 2.295096 -5.257324 0.968839 -1.274394 1.437452 -1.237463
    76 0.738178 -7.079689 1.130307 -1.247039 1.437608 -1.233844
    77 2.398058 -8.977903 1.443857 -1.247039 1.437608 -1.233844
    78 3.923708 -8.234629 1.417453 -1.247039 1.437608 -1.233844
  time 13
    0 1.629157 0.000000 0.541027 0.000000 0.000000 -1.570796
    1 -4.319219 9.125465 -10.333784 5.499842 -1.329148 -4.135690
    2 -0.005512 -10.701926 -0.006478 0.347705 -0.122783 -0.175622
    3 -0.653320 -3.630859 -0.348633 -1.003560 0.000001 -0.122172
    4 -0.013245 -1.509766 -0.000002 -1.090828 0.000000 0.000000
    5 0.000001 -0.953125 -0.000003 -1.343901 0.000000 0.000000
    6 0.007988 0.172184 -0.118553 -1.598091 -0.216549 -1.570593
    7 0.080660 0.135929 -0.203919 -1.506824 -0.066185 -1.662786
    8 0.117288 -0.155554 -0.604544 -1.412988 -0.374558 -1.569222
    9 0.128930 -3.758196 -0.347774 -0.890091 -0.000021 -0.148339
    10 -0.006790 -1.563353 0.006726 -1.212966 0.000000 -0.000003
    11 -0.002891 -1.160038 0.002748 -1.483486 0.000000 0.000000
    12 -0.018589 0.129953 -0.123721 -1.294580 0.001302 -1.635383
    13 -0.006160 0.170065 -0.110169 -1.280084 -0.068681 -1.597215
    14 0.047100 -0.104074 -0.352264 -1.243368 -0.257298 -1.694346
    15 0.948730 -3.617188 -0.348389 -0.235615 0.000001 0.130896
    16 -0.021700 -1.596358 -0.007350 -0.347324 0.014717 0.001390
    17 -0.006735 -0.941812 0.007065 -0.593394 0.000000 -0.000001
    18 -0.022325 0.045424 -0.038284 -1.125544 -0.129230 -1.681412
    19 -0.042900 -0.061274 -0.071212 -1.124462 -0.060454 -1.586099
    20 0.063741 -0.109104 -0.248158 -1.142813 -0.125805 -1.693583
    21 -1.407227 -3.246094 -0.348633 -0.933748 -0.000002 -0.087263
    22 0.013458 -1.203125 0.000002 -0.610861 0.000000 0.000000
    23 -0.013008 -0.789551 0.000000 -1.212999 0.000000 0.000000
    24 -0.011721 0.093267 0.017949 -1.687855 -0.079155 -1.575164
    25 0.048863 -0.085541 0.028626 -1.715605 -0.034569 -1.653190
    26 0.173918 -0.198416 -0.336163 -1.668104 -0.422317 -1.710956
    27 0.438721 -0.485352 0.397461 0.342071 -0.443527 -1.083971
    28 2.356266 0.014158 0.001103 -0.305431 -0.000013 -0.401419
    29 1.251953 -0.000340 0.000000 0.000000 0.000000 -0.488689
    30 -0.267709 0.037512 -0.093907 2.913812 -0.143386 0.078467
    31 -0.029266 0.205408 -0.329287 2.788574 -0.255486 -0.188917
    32 0.204373 0.521055 -0.268577 2.886669 0.042206 -0.230367
    33 0.195697 -0.010059 -0.293538 -1.333586 0.150863 -1.672749
    34 1.257181 8.762590 -0.153713 -1.570562 0.002683 -1.566808
    35 -0.093500 -0.114213 -0.738866 -1.570842 0.061811 0.002096
    36 0.010843 0.093624 -0.081439 -3.141462 0.041719 -1.568236
    37 12.487433 -1.348328 -12.525103 -0.534394 0.259560 2.226099
    38 0.104748 -10.673144 -0.005453 0.497546 0.019256 0.201524
    39 0.555176 -3.650391 -0.346924 -1.727303 -0.046222 -0.024598
    40 0.026276 -1.508789 -0.000002 -0.427609 0.000000 0.000000
    41 0.013245 -0.927246 0.000000 -0.453783 0.000000 0.000000
    42 0.006928 0.005329 -0.181358 -1.528500 -0.248579 -1.611362
    43 -0.052313 0.038589 -0.230757 -1.592493 -0.043415 -1.528515
    44 -0.232600 -0.209656 -0.420669 -1.713790 -0.167173 -1.438930
    45 -0.213013 -3.744141 -0.346924 -1.692963 0.000000 0.000000
    46 0.013245 -1.575195 0.000002 -0.253072 0.000000 0.000000
    47 -0.000001 -1.178711 0.000004 -0.532325 0.000000 0.000000
    48 -0.038065 0.069166 -0.159883 -1.816986 0.066178 -1.575392
    49 -0.025151 0.088762 -0.068837 -1.817843 0.044510 -1.568287
    50 -0.102916 -0.186983 -0.272246 -1.833683 -0.232962 -1.472375
    51 -1.034180 -3.583984 -0.346924 -1.396258 0.000000 0.000000
    52 -0.000001 -1.616211 0.000000 -0.445061 0.000000 0.000000
    53 0.000001 -0.939941 0.000000 -0.445059 0.000000 0.000000
    54 -0.004241 0.043707 -0.080203 -2.014997 -0.186996 -1.460723
    55 0.015383 -0.089136 -0.030010 -2.006083 0.036346 -1.568629
    56 -0.022610 -0.212357 -0.177905 -1.933161 -0.118801 -1.518895
    57 1.305107 -3.223642 -0.346114 -1.508108 -0.078965 -0.038593
    58 -0.000001 -1.244141 0.000000 -0.863938 0.000000 0.000000
    59 0.000001 -0.768066 0.000000 -0.523598 0.000000 0.000000
    60 -0.067138 0.063251 -0.010961 -0.899214 -0.014515 -1.600326
    61 -0.151180 -0.007395 -0.070065 -0.913061 -0.118819 -1.408558
    62 -0.178164 -0.244680 -0.357067 -1.159916 -0.384260 -1.556110
    63 -0.385254 -0.459229 0.383789 -0.145109 -0.159875 -2.467070
    64 2.472656 0.024429 0.000002 -0.085522 -0.129480 -0.019845
    65 1.227325 0.009356 -0.005766 -0.029881 0.013284 0.418673
    66 -0.263409 -0.117640 -0.015659 0.000036 -0.082210 -0.026800
    67 0.007707 -0.334360 -0.191575 0.070788 -0.181563 0.282364
    68 0.225562 -0.567923 -0.420715 0.119895 -0.183798 0.223460
    69 -0.203683 -0.095654 -0.328305 -1.745077 0.075142 -1.515382
    70 -1.393460 8.839182 -0.239439 1.580804 -0.005024 -1.566848
    71 0.036020 0.082815 -0.692656 -1.570769 0.065989 0.001276
    72 -0.088586 0.054020 -0.088594 0.010231 0.033800 -1.560851
    73 0.120153 -0.050270 -0.054489 -2.854024 0.030688 -1.580508
    74 -0.139399 -0.111694 0.014400 0.285395 -0.031353 1.580313
    75 2.295096 -5.257324 0.968839 -1.263215 1.437536 -1.235953
    76 0.738178 -7.079689 1.130307 -1.247039 1.437608 -1.233844
    77 2.398058 -8.977903 1.443857 -1.247039 1.437608 -1.233844
    78 3.923708 -8.234629 1.417453 -1.247039 1.437608 -1.233844
  time 14
    0 1.629157 0.000000 0.541027 0.000000 0.000000 -1.570796
    1 -4.260623 9.125465 -10.357222 5.503367 -1.330001 -4.139207
    2 -0.005512 -10.701926 -0.002571 0.347745 -0.124008 -0.172718
    3 -0.653320 -3.630859 -0.348633 -1.003560 0.000001 -0.122172
    4 -0.013245 -1.509766 -0.000002 -1.090828 0.000000 0.000000
    5 0.000001 -0.953125 -0.000003 -1.343901 0.000000 0.000000
    6 0.007988 0.172184 -0.118553 -1.598091 -0.216549 -1.570593
    7 0.080660 0.135929 -0.203919 -1.506824 -0.066185 -1.662786
    8 0.117288 -0.155554 -0.604544 -1.412988 -0.374558 -1.569222
    9 0.128930 -3.758196 -0.347774 -0.890091 -0.000021 -0.148339
    10 -0.006790 -1.563353 0.006726 -1.212966 0.000000 -0.000003
    11 -0.006797 -1.160038 0.002748 -1.483530 0.000000 0.000000
    12 -0.018589 0.129953 -0.123721 -1.294580 0.001302 -1.635383
    13 -0.006160 0.170065 -0.110169 -1.280084 -0.068681 -1.597215
    14 0.047100 -0.104074 -0.352264 -1.243368 -0.257298 -1.694346
    15 0.948730 -3.617188 -0.348389 -0.235615 0.000001 0.130896
    16 -0.017794 -1.596358 -0.007350 -0.347324 0.014717 0.001390
    17 -0.002829 -0.941812 0.007065 -0.593394 0.000000 -0.000001
    18 -0.022325 0.045424 -0.038284 -1.125544 -0.129230 -1.681412
    19 -0.042900 -0.061274 -0.071212 -1.124462 -0.060454 -1.586099
    20 0.063741 -0.109104 -0.248158 -1.142813 -0.125805 -1.693583
    21 -1.407227 -3.246094 -0.348633 -0.933748 -0.000002 -0.087263
    22 0.013458 -1.203125 0.000002 -0.610861 0.000000 0.000000
    23 -0.013008 -0.789551 0.000000 -1.212999 0.000000 0.000000
    24 -0.011721 0.093267 0.017949 -1.687855 -0.079155 -1.575164
    25 0.048863 -0.085541 0.028626 -1.715605 -0.034569 -1.653190
    26 0.173918 -0.198416 -0.336163 -1.668104 -0.422317 -1.710956
    27 0.438721 -0.485352 0.397461 0.342071 -0.443527 -1.083971
    28 2.356266 0.014158 0.001103 -0.305419 -0.000013 -0.401419
    29 1.251953 -0.000340 0.000000 0.000000 0.000000 -0.488689
    30 -0.267709 0.037512 -0.093907 2.913812 -0.143386 0.078467
    31 -0.029266 0.205408 -0.329287 2.788574 -0.255486 -0.188917
    32 0.204373 0.521055 -0.268577 2.886669 0.042206 -0.230367
    33 0.195697 -0.010059 -0.293538 -1.333586 0.150863 -1.672749
    34 1.257181 8.762590 -0.153713 -1.570562 0.002683 -1.566808
    35 -0.093500 -0.114213 -0.738866 -1.570842 0.061811 0.002096
    36 0.010843 0.093624 -0.081439 -3.141462 0.041719 -1.568236
    37 12.596811 -1.371766 -12.693077 -0.544827 0.257423 2.222970
    38 0.104748 -10.673144 -0.005453 0.505689 0.025524 0.220829
    39 0.555176 -3.650391 -0.346924 -1.727303 -0.046222 -0.024598
    40 0.026276 -1.508789 -0.000002 -0.427609 0.000000 0.000000
    41 0.013245 -0.927246 0.000000 -0.453783 0.000000 0.000000
    42 0.006928 0.005329 -0.181358 -1.528500 -0.248579 -1.611362
    43 -0.052313 0.038589 -0.230757 -1.592493 -0.043415 -1.528515
    44 -0.232600 -0.209656 -0.420669 -1.713790 -0.167173 -1.438930
    45 -0.213013 -3.744141 -0.346924 -1.692963 0.000000 0.000000
    46 0.013245 -1.575195 0.000002 -0.253072 0.000000 0.000000
    47 -0.000001 -1.178711 0.000004 -0.532325 0.000000 0.000000
    48 -0.038065 0.069166 -0.159883 -1.816986 0.066178 -1.575392
    49 -0.025151 0.088762 -0.068837 -1.817843 0.044510 -1.568287
    50 -0.102916 -0.186983 -0.272246 -1.833683 -0.232962 -1.472375
    51 -1.034180 -3.583984 -0.346924 -1.396258 0.000000 0.000000
    52 -0.000001 -1.616211 0.000000 -0.445061 0.000000 0.000000
    53 0.000001 -0.939941 0.000000 -0.445059 0.000000 0.000000
    54 -0.004241 0.043707 -0.080203 -2.014997 -0.186996 -1.460723
    55 0.015383 -0.089136 -0.030010 -2.006083 0.036346 -1.568629
    56 -0.022610 -0.212357 -0.177905 -1.933161 -0.118801 -1.518895
    57 1.305107 -3.223642 -0.346114 -1.508108 -0.078965 -0.038593
    58 -0.000001 -1.244141 0.000000 -0.863938 0.000000 0.000000
    59 0.000001 -0.768066 0.000000 -0.523598 0.000000 0.000000
    60 -0.067138 0.063251 -0.010961 -0.899214 -0.014515 -1.600326
    61 -0.151180 -0.007395 -0.070065 -0.913061 -0.118819 -1.408558
    62 -0.178164 -0.244680 -0.357067 -1.159916 -0.384260 -1.556110
    63 -0.385254 -0.459229 0.383789 -0.145109 -0.159875 -2.467070
    64 2.472656 0.024429 0.000002 -0.085522 -0.129480 -0.019845
    65 1.227325 0.009356 -0.005766 -0.007985 0.003541 0.418880
    66 -0.263409 -0.117640 -0.015659 0.000036 -0.082210 -0.026800
    67 0.007707 -0.334360 -0.191575 0.070788 -0.181563 0.282364
    68 0.225562 -0.567923 -0.420715 0.119895 -0.183798 0.223460
    69 -0.203683 -0.095654 -0.328305 -1.745077 0.075142 -1.515382
    70 -1.393460 8.839182 -0.239439 1.580804 -0.005024 -1.566848
    71 0.036020 0.082815 -0.692656 -1.570769 0.065989 0.001276
    72 -0.088586 0.054020 -0.088594 0.010231 0.033800 -1.560851
    73 0.120153 -0.050270 -0.054489 -2.854024 0.030688 -1.580508
    74 -0.139399 -0.111694 0.014400 0.285395 -0.031353 1.580313
    75 2.295096 -5.257324 0.968839 -1.252036 1.437596 -1.234467
    76 0.738178 -7.079689 1.130307 -1.247039 1.437608 -1.233844
    77 2.398058 -8.977903 1.443857 -1.247039 1.437608 -1.233844
    78 3.923708 -8.234629 1.417453 -1.247039 1.437608 -1.233844
  time 15
    0 1.629157 0.000000 0.541027 0.000000 0.000000 -1.570796
    1 -4.205934 9.125465 -10.411911 5.508798 -1.331341 -4.145005
    2 -0.005512 -10.701926 -0.006478 0.347483 -0.125232 -0.169447
    3 -0.653320 -3.630859 -0.348633 -1.003560 0.000001 -0.122172
    4 -0.013245 -1.509766 -0.000002 -1.090828 0.000000 0.000000
    5 0.000001 -0.953125 -0.000003 -1.343901 0.000000 0.000000
    6 0.007988 0.172184 -0.118553 -1.598091 -0.216549 -1.570593
    7 0.080660 0.135929 -0.203919 -1.506824 -0.066185 -1.662786
    8 0.117288 -0.155554 -0.604544 -1.412988 -0.374558 -1.569222
    9 0.132836 -3.762102 -0.343868 -0.890119 -0.000021 -0.148339
    10 -0.006790 -1.563353 0.002820 -1.212966 0.000000 -0.000003
    11 -0.002891 -1.160038 0.002748 -1.483442 0.000000 0.000000
    12 -0.018589 0.129953 -0.123721 -1.294580 0.001302 -1.635383
    13 -0.006160 0.170065 -0.110169 -1.280084 -0.068681 -1.597215
    14 0.047100 -0.104074 -0.352264 -1.243368 -0.257298 -1.694346
    15 0.948730 -3.617188 -0.348389 -0.235615 0.000001 0.130896
    16 -0.017794 -1.596358 -0.003443 -0.347324 0.014717 0.001390
    17 -0.002829 -0.941812 0.003159 -0.593394 0.000000 -0.000001
    18 -0.022325 0.045424 -0.038284 -1.125544 -0.129230 -1.681412
    19 -0.042900 -0.061274 -0.071212 -1.124462 -0.060454 -1.586099
    20 0.063741 -0.109104 -0.248158 -1.142813 -0.125805 -1.693583
    21 -1.407227 -3.246094 -0.348633 -0.933748 -0.000002 -0.087263
    22 0.013458 -1.203125 0.000002 -0.610861 0.000000 0.000000
    23 -0.013008 -0.789551 0.000000 -1.212999 0.000000 0.000000
    24 -0.011721 0.093267 0.017949 -1.687855 -0.079155 -1.575164
    25 0.048863 -0.085541 0.028626 -1.715605 -0.034569 -1.653190
    26 0.173918 -0.198416 -0.336163 -1.668104 -0.422317 -1.710956
    27 0.438721 -0.485352 0.397461 0.342071 -0.443527 -1.083971
    28 2.356266 0.014158 0.001103 -0.305419 -0.000013 -0.401419
    29 1.251953 -0.000340 0.000000 0.000000 0.000000 -0.488689
    30 -0.267709 0.037512 -0.093907 2.913812 -0.143386 0.078467
    31 -0.029266 0.205408 -0.329287 2.788574 -0.255486 -0.188917
    32 0.204373 0.521055 -0.268577 2.886669 0.042206 -0.230367
    33 0.195697 -0.010059 -0.293538 -1.333586 0.150863 -1.672749
    34 1.257181 8.762590 -0.153713 -1.570562 0.002683 -1.566808
    35 -0.093500 -0.114213 -0.738866 -1.570842 0.061811 0.002096
    36 0.010843 0.093624 -0.081439 -3.141462 0.041719 -1.568236
    37 12.717909 -1.414736 -12.888395 -0.555015 0.255044 2.219472
    38 0.104748 -10.673144 -0.005453 0.512925 0.031451 0.240376
    39 0.555176 -3.650391 -0.346924 -1.727303 -0.046222 -0.024598
    40 0.026276 -1.508789 -0.000002 -0.427609 0.000000 0.000000
    41 0.013245 -0.927246 0.000000 -0.453783 0.000000 0.000000
    42 0.006928 0.005329 -0.181358 -1.528500 -0.248579 -1.611362
    43 -0.052313 0.038589 -0.230757 -1.592493 -0.043415 -1.528515
    44 -0.232600 -0.209656 -0.420669 -1.713790 -0.167173 -1.438930
    45 -0.213013 -3.744141 -0.346924 -1.692963 0.000000 0.000000
    46 0.013245 -1.575195 0.000002 -0.253072 0.000000 0.000000
    47 -0.000001 -1.178711 0.000004 -0.532325 0.000000 0.000000
    48 -0.038065 0.069166 -0.159883 -1.816986 0.066178 -1.575392
    49 -0.025151 0.088762 -0.068837 -1.817843 0.044510 -1.568287
    50 -0.102916 -0.186983 -0.272246 -1.833683 -0.232962 -1.472375
    51 -1.034180 -3.583984 -0.346924 -1.396258 0.000000 0.000000
    52 -0.000001 -1.616211 0.000000 -0.445061 0.000000 0.000000
    53 0.000001 -0.939941 0.000000 -0.445059 0.000000 0.000000
    54 -0.004241 0.043707 -0.080203 -2.014997 -0.186996 -1.460723
    55 0.015383 -0.089136 -0.030010 -2.006083 0.036346 -1.568629
    56 -0.022610 -0.212357 -0.177905 -1.933161 -0.118801 -1.518895
    57 1.305107 -3.223642 -0.346114 -1.508108 -0.078965 -0.038593
    58 -0.000001 -1.244141 0.000000 -0.863938 0.000000 0.000000
    59 0.000001 -0.768066 0.000000 -0.523598 0.000000 0.000000
    60 -0.067138 0.063251 -0.010961 -0.899214 -0.014515 -1.600326
    61 -0.151180 -0.007395 -0.070065 -0.913061 -0.118819 -1.408558
    62 -0.178164 -0.244680 -0.357067 -1.159916 -0.384260 -1.556110
    63 -0.385254 -0.459229 0.383789 -0.145109 -0.159875 -2.467070
    64 2.472656 0.024429 0.000002 -0.085522 -0.129480 -0.019845
    65 1.227325 0.009356 -0.005766 -0.000003 -0.000006 0.418880
    66 -0.263409 -0.117640 -0.015659 0.000036 -0.082210 -0.026800
    67 0.007707 -0.334360 -0.191575 0.070788 -0.181563 0.282364
    68 0.225562 -0.567923 -0.420715 0.119895 -0.183798 0.223460
    69 -0.203683 -0.095654 -0.328305 -1.745077 0.075142 -1.515382
    70 -1.393460 8.839182 -0.239439 1.580804 -0.005024 -1.566848
    71 0.036020 0.082815 -0.692656 -1.570769 0.065989 0.001276
    72 -0.088586 0.054020 -0.088594 0.010231 0.033800 -1.560851
    73 0.120153 -0.050270 -0.054489 -2.854024 0.030688 -1.580508
    74 -0.139399 -0.111694 0.014400 0.285395 -0.031353 1.580313
    75 2.295096 -5.257324 0.968839 -1.247039 1.437608 -1.233844
    76 0.738178 -7.079689 1.130307 -1.247039 1.437608 -1.233844
    77 2.398058 -8.977903 1.443857 -1.247039 1.437608 -1.233844
    78 3.923708 -8.234629 1.417453 -1.247039 1.437608 -1.233844
end
