// Created by Crowbar 0.74
version 1
nodes
  0 "Bone01" -1
  1 "Bone02" 0
  2 "Bone03" 1
  3 "Bone04" 2
  4 "Bone05" 3
  5 "Bone06" 4
  6 "Bone07" 2
  7 "Bone08" 6
  8 "Bone09" 7
  9 "Bone11" 2
  10 "Bone12" 9
  11 "Bone13" 10
  12 "Bone15" 2
  13 "Bone16" 12
  14 "Bone17" 13
  15 "Bone19" 2
  16 "Bone20" 15
  17 "Bone21" 16
  18 "Bone24" -1
  19 "Bone25" 18
  20 "Bone48" 1
  21 "Bone49" 20
  22 "Bone52" 21
  23 "Bone47" 19
  24 "Bone58" 23
  25 "Bone63" 24
  26 "Bone26" 19
  27 "Bone27" 26
  28 "Bone28" 27
  29 "Bone29" 28
  30 "Bone31" 26
  31 "Bone32" 30
  32 "Bone33" 31
  33 "Bone35" 26
  34 "Bone36" 33
  35 "Bone37" 34
  36 "Bone39" 26
  37 "Bone40" 36
  38 "Bone41" 37
  39 "Bone43" 26
  40 "Bone44" 39
  41 "Bone45" 40
  42 "Bone56" 21
  43 "Bone50" 21
  44 "Bone54" 21
  45 "Bone65" 24
  46 "Bone59" 24
  47 "Bone61" 24
  48 "ValveBiped.Bip01_L_Clavicle" 18
  49 "ValveBiped.Bip01_L_UpperArm" 18
  50 "ValveBiped.Bip01_L_Forearm" 18
  51 "ValveBiped.Bip01_L_Hand" 19
  52 "ValveBiped.Bip01_L_Finger4" 39
  53 "ValveBiped.Bip01_L_Finger41" 40
  54 "ValveBiped.Bip01_L_Finger42" 41
  55 "ValveBiped.Bip01_L_Finger3" 36
  56 "ValveBiped.Bip01_L_Finger31" 37
  57 "ValveBiped.Bip01_L_Finger32" 38
  58 "ValveBiped.Bip01_L_Finger2" 33
  59 "ValveBiped.Bip01_L_Finger21" 34
  60 "ValveBiped.Bip01_L_Finger22" 35
  61 "ValveBiped.Bip01_L_Finger1" 30
  62 "ValveBiped.Bip01_L_Finger11" 31
  63 "ValveBiped.Bip01_L_Finger12" 32
  64 "ValveBiped.Bip01_L_Finger0" 27
  65 "ValveBiped.Bip01_L_Finger01" 28
  66 "ValveBiped.Bip01_L_Finger02" 29
  67 "ValveBiped.Bip01_R_Clavicle" 0
  68 "ValveBiped.Bip01_R_UpperArm" 0
  69 "ValveBiped.Bip01_R_Forearm" 0
  70 "ValveBiped.Bip01_R_Hand" 1
  71 "ValveBiped.Bip01_R_Finger4" 15
  72 "ValveBiped.Bip01_R_Finger41" 16
  73 "ValveBiped.Bip01_R_Finger42" 17
  74 "ValveBiped.Bip01_R_Finger3" 12
  75 "ValveBiped.Bip01_R_Finger31" 13
  76 "ValveBiped.Bip01_R_Finger32" 14
  77 "ValveBiped.Bip01_R_Finger2" 9
  78 "ValveBiped.Bip01_R_Finger21" 10
  79 "ValveBiped.Bip01_R_Finger22" 11
  80 "ValveBiped.Bip01_R_Finger1" 6
  81 "ValveBiped.Bip01_R_Finger11" 7
  82 "ValveBiped.Bip01_R_Finger12" 8
  83 "ValveBiped.Bip01_R_Finger0" 3
  84 "ValveBiped.Bip01_R_Finger01" 4
  85 "ValveBiped.Bip01_R_Finger02" 5
end
skeleton
  time 0
    0 -11.273438 0.440918 -7.726563 -2.378672 1.286258 -1.992054
    1 0.033539 -11.343750 -0.000003 0.238955 -0.344244 0.246469
    2 0.000000 -0.570801 -0.000001 0.000000 0.000000 0.000000
    3 -0.527344 0.291504 0.596191 -0.212797 -0.375551 -2.091539
    4 2.277344 -0.130737 -0.000001 0.000000 0.000000 0.523599
    5 1.069446 0.056463 0.000000 0.000000 0.000000 0.848230
    6 -1.362305 -2.281250 -0.152954 0.000000 0.000000 -1.638864
    7 1.736328 -0.000729 -0.000001 -0.000338 -0.481687 0.008469
    8 1.205078 -0.013672 -0.000002 0.000000 -0.670206 0.000000
    9 -0.435547 -2.492188 -0.153198 -0.078961 -0.260133 -1.437435
    10 1.931641 0.005775 -0.000002 -3.141592 -1.518438 -3.141593
    11 1.417969 0.010590 0.000005 0.000000 -1.110029 0.020944
    12 0.387207 -2.171875 -0.153076 -0.056428 -0.182688 -1.438565
    13 1.961914 0.062195 0.000003 -0.000001 -1.497494 -0.010473
    14 1.369141 0.004250 0.000000 0.000001 -1.214749 0.005236
    15 1.194336 -1.667969 -0.153076 0.000000 -0.267035 -1.445133
    16 1.680664 0.022736 0.000002 0.000000 -0.612611 -0.005236
    17 1.091797 -0.001310 -0.000001 0.000000 -1.392772 0.000000
    18 11.281250 0.312256 -7.402344 -2.205148 -1.325022 -4.453974
    19 -0.305664 -11.164063 0.000000 0.209146 0.299578 -0.249756
    20 0.288330 -4.433594 0.926270 0.080103 -1.549641 -0.151666
    21 0.000000 2.791016 0.898926 0.000000 0.000000 0.000000
    22 0.000000 -1.948242 2.902344 0.000000 0.000000 0.000000
    23 -0.496338 -4.492188 0.848633 0.430357 1.517607 0.507516
    24 -0.000001 2.900391 1.066406 0.000000 0.000000 0.000000
    25 0.000000 0.500977 2.898438 0.000000 0.000000 0.000000
    26 -0.021851 -0.545410 -0.000001 0.000000 0.000000 0.000000
    27 0.589844 0.240112 0.589844 0.297069 -0.493084 -1.048320
    28 2.320313 0.013245 0.000002 0.000000 0.000000 -0.455531
    29 1.244141 -0.012512 0.000000 0.000000 0.000000 -0.858702
    30 1.421875 -2.332031 -0.171265 -0.002072 -0.054728 -1.523603
    31 1.707031 0.018570 0.000000 0.000004 -0.376958 -0.010445
    32 1.169922 -0.007069 0.000002 -0.000986 -0.612579 0.016390
    33 0.511719 -2.587891 -0.171265 0.068179 -0.280440 -1.750247
    34 1.837891 0.009186 -0.000001 -3.141591 -1.523670 -3.131118
    35 1.438477 0.012917 -0.000001 0.000000 -1.099558 0.005236
    36 -0.365967 -2.267578 -0.171265 0.017968 -0.224442 -1.724665
    37 1.888672 -0.005322 0.000005 0.000002 -1.544617 0.036656
    38 1.373047 -0.013489 -0.000001 0.000000 -1.130973 0.010472
    39 -1.195313 -1.695313 -0.171265 0.000000 -0.235619 -1.685988
    40 1.687500 -0.013481 -0.000001 0.000000 -0.753982 0.005229
    41 1.072266 0.022141 0.000004 0.000000 -1.371829 -0.010472
    42 0.000000 -2.078125 1.572266 0.000000 0.000000 0.000000
    43 0.000000 -3.705078 1.590820 0.000000 0.000000 0.000000
    44 0.000000 -1.273438 2.095703 0.000000 0.000000 0.000000
    45 0.000000 -1.329102 2.134766 0.000000 0.000000 0.000000
    46 0.000000 -2.113281 1.571289 0.000000 0.000000 0.000000
    47 0.000001 -3.744141 1.533203 0.000000 0.000000 0.000000
    48 0.500002 9.999993 0.000002 -1.570796 0.000000 -1.570796
    49 0.500002 9.999993 0.000002 -1.570796 0.000000 -1.570796
    50 0.000000 0.000005 0.000001 -1.570796 0.000000 -1.570796
    51 0.000001 0.000003 -0.500010 -1.570796 0.000000 -1.570796
    52 -0.000001 0.000000 -0.000002 -1.570796 0.000000 0.000000
    53 0.000000 0.000000 0.000000 -1.570797 0.000000 0.000000
    54 0.000001 0.000000 0.000000 -1.570796 0.000000 0.000000
    55 0.000000 0.000000 0.000002 -1.570796 0.000000 0.000000
    56 -0.000003 0.000000 0.000001 -1.570796 0.000000 0.000000
    57 0.000000 0.000000 0.000000 -1.570796 0.000000 0.000000
    58 0.000000 0.000000 -0.000002 -1.570796 0.000000 0.000000
    59 0.000000 0.000000 0.000001 -1.570796 0.000000 0.000000
    60 -0.000003 0.000000 0.000000 -1.570796 0.000000 0.000000
    61 -0.000001 0.000000 0.000000 -1.570796 0.000000 0.000000
    62 0.000000 0.000000 0.000000 -1.570796 0.000001 0.000000
    63 0.000000 0.000000 0.000000 -1.570796 0.000001 0.000000
    64 0.000000 0.000000 0.000001 3.141593 0.000000 0.000000
    65 0.000000 0.000000 0.000000 3.141593 0.000000 0.000000
    66 0.000001 -0.000001 0.000002 3.141592 0.000000 0.000000
    67 0.000000 10.000002 -0.000005 -1.570796 0.000000 -1.570796
    68 0.000000 10.000002 -0.000005 -1.570796 0.000000 -1.570796
    69 0.000000 0.000005 -0.000003 -1.570796 0.000000 -1.570796
    70 -0.000002 0.000006 -0.500010 -1.570796 0.000000 -1.570796
    71 -0.000004 0.000000 -0.000002 -1.570796 0.000000 0.000000
    72 0.000000 0.000000 0.000000 -1.570796 0.000000 0.000000
    73 0.000000 0.000000 0.000000 -1.570796 0.000000 0.000000
    74 -0.000002 0.000000 0.000000 -1.570796 0.000000 0.000000
    75 0.000002 0.000000 0.000000 -1.570796 0.000000 0.000000
    76 0.000006 0.000000 0.000000 -1.570796 0.000000 0.000000
    77 0.000001 0.000000 0.000000 -1.570796 0.000000 0.000000
    78 0.000000 0.000000 0.000000 -1.570796 0.000000 0.000000
    79 0.000003 0.000000 0.000000 -1.570796 0.000000 0.000000
    80 0.000000 0.000000 0.000000 -1.570796 0.000000 0.000000
    81 0.000002 0.000000 -0.000001 -1.570796 0.000000 0.000000
    82 0.000000 0.000000 0.000000 -1.570796 0.000000 0.000000
    83 0.000000 0.000000 -0.000003 0.000000 0.000000 0.000000
    84 0.000000 0.000000 0.000000 0.000000 0.000000 0.000000
    85 0.000000 0.000001 -0.000001 0.000000 0.000000 0.000000
  time 1
    0 -11.273438 0.440918 -7.726563 -2.378672 1.286258 -1.992054
    1 0.033539 -11.343750 -0.000003 0.238955 -0.344244 0.246469
    2 0.000000 -0.570801 -0.000001 0.000000 0.000000 0.000000
    3 -0.527344 0.291504 0.596191 -0.212797 -0.375551 -2.091539
    4 2.277344 -0.130737 -0.000001 0.000000 0.000000 0.523599
    5 1.069446 0.056463 0.000000 0.000000 0.000000 0.848230
    6 -1.362305 -2.281250 -0.152954 0.000000 0.000000 -1.638864
    7 1.736328 -0.000729 -0.000001 -0.000338 -0.481687 0.008469
    8 1.205078 -0.013672 -0.000002 0.000000 -0.670206 0.000000
    9 -0.435547 -2.492188 -0.153198 -0.078961 -0.260133 -1.437435
    10 1.931641 0.005775 -0.000002 -3.141592 -1.518438 -3.141593
    11 1.417969 0.010590 0.000005 0.000000 -1.110029 0.020944
    12 0.387207 -2.171875 -0.153076 -0.056428 -0.182688 -1.438565
    13 1.961914 0.062195 0.000003 -0.000001 -1.497494 -0.010473
    14 1.369141 0.004250 0.000000 0.000001 -1.214749 0.005236
    15 1.194336 -1.667969 -0.153076 0.000000 -0.267035 -1.445133
    16 1.680664 0.022736 0.000002 0.000000 -0.612611 -0.005236
    17 1.091797 -0.001310 -0.000001 0.000000 -1.392772 0.000000
    18 11.281250 0.312256 -7.402344 -2.205148 -1.325022 -4.453974
    19 -0.305664 -11.164063 0.000000 0.209146 0.299578 -0.249756
    20 0.288330 -4.433594 0.926270 0.080103 -1.549641 -0.151666
    21 0.000000 2.791016 0.898926 0.000000 0.000000 0.000000
    22 0.000000 -1.948242 2.902344 0.000000 0.000000 0.000000
    23 -0.496338 -4.492188 0.848633 0.430357 1.517607 0.507516
    24 -0.000001 2.900391 1.066406 0.000000 0.000000 0.000000
    25 0.000000 0.500977 2.898438 0.000000 0.000000 0.000000
    26 -0.021851 -0.545410 -0.000001 0.000000 0.000000 0.000000
    27 0.589844 0.240112 0.589844 0.297069 -0.493084 -1.048320
    28 2.320313 0.013245 0.000002 0.000000 0.000000 -0.455531
    29 1.244141 -0.012512 0.000000 0.000000 0.000000 -0.858702
    30 1.421875 -2.332031 -0.171265 -0.002072 -0.054728 -1.523603
    31 1.707031 0.018570 0.000000 0.000004 -0.376958 -0.010445
    32 1.169922 -0.007069 0.000002 -0.000986 -0.612579 0.016390
    33 0.511719 -2.587891 -0.171265 0.068179 -0.280440 -1.750247
    34 1.837891 0.009186 -0.000001 -3.141591 -1.523670 -3.131118
    35 1.438477 0.012917 -0.000001 0.000000 -1.099558 0.005236
    36 -0.365967 -2.267578 -0.171265 0.017968 -0.224442 -1.724665
    37 1.888672 -0.005322 0.000005 0.000002 -1.544617 0.036656
    38 1.373047 -0.013489 -0.000001 0.000000 -1.130973 0.010472
    39 -1.195313 -1.695313 -0.171265 0.000000 -0.235619 -1.685988
    40 1.687500 -0.013481 -0.000001 0.000000 -0.753982 0.005229
    41 1.072266 0.022141 0.000004 0.000000 -1.371829 -0.010472
    42 0.000000 -2.078125 1.572266 0.000000 0.000000 0.000000
    43 0.000000 -3.705078 1.590820 0.000000 0.000000 0.000000
    44 0.000000 -1.273438 2.095703 0.000000 0.000000 0.000000
    45 0.000000 -1.329102 2.134766 0.000000 0.000000 0.000000
    46 0.000000 -2.113281 1.571289 0.000000 0.000000 0.000000
    47 0.000001 -3.744141 1.533203 0.000000 0.000000 0.000000
    48 0.500002 9.999993 0.000002 -1.570796 0.000000 -1.570796
    49 0.500002 9.999993 0.000002 -1.570796 0.000000 -1.570796
    50 0.000000 0.000005 0.000001 -1.570796 0.000000 -1.570796
    51 0.000001 0.000003 -0.500010 -1.570796 0.000000 -1.570796
    52 -0.000001 0.000000 -0.000002 -1.570796 0.000000 0.000000
    53 0.000000 0.000000 0.000000 -1.570797 0.000000 0.000000
    54 0.000001 0.000000 0.000000 -1.570796 0.000000 0.000000
    55 0.000000 0.000000 0.000002 -1.570796 0.000000 0.000000
    56 -0.000003 0.000000 0.000001 -1.570796 0.000000 0.000000
    57 0.000000 0.000000 0.000000 -1.570796 0.000000 0.000000
    58 0.000000 0.000000 -0.000002 -1.570796 0.000000 0.000000
    59 0.000000 0.000000 0.000001 -1.570796 0.000000 0.000000
    60 -0.000003 0.000000 0.000000 -1.570796 0.000000 0.000000
    61 -0.000001 0.000000 0.000000 -1.570796 0.000000 0.000000
    62 0.000000 0.000000 0.000000 -1.570796 0.000001 0.000000
    63 0.000000 0.000000 0.000000 -1.570796 0.000001 0.000000
    64 0.000000 0.000000 0.000001 3.141593 0.000000 0.000000
    65 0.000000 0.000000 0.000000 3.141593 0.000000 0.000000
    66 0.000001 -0.000001 0.000002 3.141592 0.000000 0.000000
    67 0.000000 10.000002 -0.000005 -1.570796 0.000000 -1.570796
    68 0.000000 10.000002 -0.000005 -1.570796 0.000000 -1.570796
    69 0.000000 0.000005 -0.000003 -1.570796 0.000000 -1.570796
    70 -0.000002 0.000006 -0.500010 -1.570796 0.000000 -1.570796
    71 -0.000004 0.000000 -0.000002 -1.570796 0.000000 0.000000
    72 0.000000 0.000000 0.000000 -1.570796 0.000000 0.000000
    73 0.000000 0.000000 0.000000 -1.570796 0.000000 0.000000
    74 -0.000002 0.000000 0.000000 -1.570796 0.000000 0.000000
    75 0.000002 0.000000 0.000000 -1.570796 0.000000 0.000000
    76 0.000006 0.000000 0.000000 -1.570796 0.000000 0.000000
    77 0.000001 0.000000 0.000000 -1.570796 0.000000 0.000000
    78 0.000000 0.000000 0.000000 -1.570796 0.000000 0.000000
    79 0.000003 0.000000 0.000000 -1.570796 0.000000 0.000000
    80 0.000000 0.000000 0.000000 -1.570796 0.000000 0.000000
    81 0.000002 0.000000 -0.000001 -1.570796 0.000000 0.000000
    82 0.000000 0.000000 0.000000 -1.570796 0.000000 0.000000
    83 0.000000 0.000000 -0.000003 0.000000 0.000000 0.000000
    84 0.000000 0.000000 0.000000 0.000000 0.000000 0.000000
    85 0.000000 0.000001 -0.000001 0.000000 0.000000 0.000000
  time 2
    0 -11.273438 0.440918 -7.726563 -2.378672 1.286258 -1.992054
    1 0.033539 -11.343750 -0.000003 0.238955 -0.344244 0.246469
    2 0.000000 -0.570801 -0.000001 0.000000 0.000000 0.000000
    3 -0.527344 0.291504 0.596191 -0.212797 -0.375551 -2.091539
    4 2.277344 -0.130737 -0.000001 0.000000 0.000000 0.523599
    5 1.069446 0.056463 0.000000 0.000000 0.000000 0.848230
    6 -1.362305 -2.281250 -0.152954 0.000000 0.000000 -1.638864
    7 1.736328 -0.000729 -0.000001 -0.000338 -0.481687 0.008469
    8 1.205078 -0.013672 -0.000002 0.000000 -0.670206 0.000000
    9 -0.435547 -2.492188 -0.153198 -0.078961 -0.260133 -1.437435
    10 1.931641 0.005775 -0.000002 -3.141592 -1.518438 -3.141593
    11 1.417969 0.010590 0.000005 0.000000 -1.110029 0.020944
    12 0.387207 -2.171875 -0.153076 -0.056428 -0.182688 -1.438565
    13 1.961914 0.062195 0.000003 -0.000001 -1.497494 -0.010473
    14 1.369141 0.004250 0.000000 0.000001 -1.214749 0.005236
    15 1.194336 -1.667969 -0.153076 0.000000 -0.267035 -1.445133
    16 1.680664 0.022736 0.000002 0.000000 -0.612611 -0.005236
    17 1.091797 -0.001310 -0.000001 0.000000 -1.392772 0.000000
    18 11.281250 0.312256 -7.402344 -2.205148 -1.325022 -4.453974
    19 -0.305664 -11.164063 0.000000 0.209146 0.299578 -0.249756
    20 0.288330 -4.433594 0.926270 0.080103 -1.549641 -0.151666
    21 0.000000 2.791016 0.898926 0.000000 0.000000 0.000000
    22 0.000000 -1.948242 2.902344 0.000000 0.000000 0.000000
    23 -0.496338 -4.492188 0.848633 0.430357 1.517607 0.507516
    24 -0.000001 2.900391 1.066406 0.000000 0.000000 0.000000
    25 0.000000 0.500977 2.898438 0.000000 0.000000 0.000000
    26 -0.021851 -0.545410 -0.000001 0.000000 0.000000 0.000000
    27 0.589844 0.240112 0.589844 0.297069 -0.493084 -1.048320
    28 2.320313 0.013245 0.000002 0.000000 0.000000 -0.455531
    29 1.244141 -0.012512 0.000000 0.000000 0.000000 -0.858702
    30 1.421875 -2.332031 -0.171265 -0.002072 -0.054728 -1.523603
    31 1.707031 0.018570 0.000000 0.000004 -0.376958 -0.010445
    32 1.169922 -0.007069 0.000002 -0.000986 -0.612579 0.016390
    33 0.511719 -2.587891 -0.171265 0.068179 -0.280440 -1.750247
    34 1.837891 0.009186 -0.000001 -3.141591 -1.523670 -3.131118
    35 1.438477 0.012917 -0.000001 0.000000 -1.099558 0.005236
    36 -0.365967 -2.267578 -0.171265 0.017968 -0.224442 -1.724665
    37 1.888672 -0.005322 0.000005 0.000002 -1.544617 0.036656
    38 1.373047 -0.013489 -0.000001 0.000000 -1.130973 0.010472
    39 -1.195313 -1.695313 -0.171265 0.000000 -0.235619 -1.685988
    40 1.687500 -0.013481 -0.000001 0.000000 -0.753982 0.005229
    41 1.072266 0.022141 0.000004 0.000000 -1.371829 -0.010472
    42 0.000000 -2.078125 1.572266 0.000000 0.000000 0.000000
    43 0.000000 -3.705078 1.590820 0.000000 0.000000 0.000000
    44 0.000000 -1.273438 2.095703 0.000000 0.000000 0.000000
    45 0.000000 -1.329102 2.134766 0.000000 0.000000 0.000000
    46 0.000000 -2.113281 1.571289 0.000000 0.000000 0.000000
    47 0.000001 -3.744141 1.533203 0.000000 0.000000 0.000000
    48 0.500002 9.999993 0.000002 -1.570796 0.000000 -1.570796
    49 0.500002 9.999993 0.000002 -1.570796 0.000000 -1.570796
    50 0.000000 0.000005 0.000001 -1.570796 0.000000 -1.570796
    51 0.000001 0.000003 -0.500010 -1.570796 0.000000 -1.570796
    52 -0.000001 0.000000 -0.000002 -1.570796 0.000000 0.000000
    53 0.000000 0.000000 0.000000 -1.570797 0.000000 0.000000
    54 0.000001 0.000000 0.000000 -1.570796 0.000000 0.000000
    55 0.000000 0.000000 0.000002 -1.570796 0.000000 0.000000
    56 -0.000003 0.000000 0.000001 -1.570796 0.000000 0.000000
    57 0.000000 0.000000 0.000000 -1.570796 0.000000 0.000000
    58 0.000000 0.000000 -0.000002 -1.570796 0.000000 0.000000
    59 0.000000 0.000000 0.000001 -1.570796 0.000000 0.000000
    60 -0.000003 0.000000 0.000000 -1.570796 0.000000 0.000000
    61 -0.000001 0.000000 0.000000 -1.570796 0.000000 0.000000
    62 0.000000 0.000000 0.000000 -1.570796 0.000001 0.000000
    63 0.000000 0.000000 0.000000 -1.570796 0.000001 0.000000
    64 0.000000 0.000000 0.000001 3.141593 0.000000 0.000000
    65 0.000000 0.000000 0.000000 3.141593 0.000000 0.000000
    66 0.000001 -0.000001 0.000002 3.141592 0.000000 0.000000
    67 0.000000 10.000002 -0.000005 -1.570796 0.000000 -1.570796
    68 0.000000 10.000002 -0.000005 -1.570796 0.000000 -1.570796
    69 0.000000 0.000005 -0.000003 -1.570796 0.000000 -1.570796
    70 -0.000002 0.000006 -0.500010 -1.570796 0.000000 -1.570796
    71 -0.000004 0.000000 -0.000002 -1.570796 0.000000 0.000000
    72 0.000000 0.000000 0.000000 -1.570796 0.000000 0.000000
    73 0.000000 0.000000 0.000000 -1.570796 0.000000 0.000000
    74 -0.000002 0.000000 0.000000 -1.570796 0.000000 0.000000
    75 0.000002 0.000000 0.000000 -1.570796 0.000000 0.000000
    76 0.000006 0.000000 0.000000 -1.570796 0.000000 0.000000
    77 0.000001 0.000000 0.000000 -1.570796 0.000000 0.000000
    78 0.000000 0.000000 0.000000 -1.570796 0.000000 0.000000
    79 0.000003 0.000000 0.000000 -1.570796 0.000000 0.000000
    80 0.000000 0.000000 0.000000 -1.570796 0.000000 0.000000
    81 0.000002 0.000000 -0.000001 -1.570796 0.000000 0.000000
    82 0.000000 0.000000 0.000000 -1.570796 0.000000 0.000000
    83 0.000000 0.000000 -0.000003 0.000000 0.000000 0.000000
    84 0.000000 0.000000 0.000000 0.000000 0.000000 0.000000
    85 0.000000 0.000001 -0.000001 0.000000 0.000000 0.000000
  time 3
    0 -11.273438 0.440918 -7.726563 -2.378672 1.286258 -1.992054
    1 0.033539 -11.343750 -0.000003 0.238955 -0.344244 0.246469
    2 0.000000 -0.570801 -0.000001 0.000000 0.000000 0.000000
    3 -0.527344 0.291504 0.596191 -0.212797 -0.375551 -2.091539
    4 2.277344 -0.130737 -0.000001 0.000000 0.000000 0.523599
    5 1.069446 0.056463 0.000000 0.000000 0.000000 0.848230
    6 -1.362305 -2.281250 -0.152954 0.000000 0.000000 -1.638864
    7 1.736328 -0.000729 -0.000001 -0.000338 -0.481687 0.008469
    8 1.205078 -0.013672 -0.000002 0.000000 -0.670206 0.000000
    9 -0.435547 -2.492188 -0.153198 -0.078961 -0.260133 -1.437435
    10 1.931641 0.005775 -0.000002 -3.141592 -1.518438 -3.141593
    11 1.417969 0.010590 0.000005 0.000000 -1.110029 0.020944
    12 0.387207 -2.171875 -0.153076 -0.056428 -0.182688 -1.438565
    13 1.961914 0.062195 0.000003 -0.000001 -1.497494 -0.010473
    14 1.369141 0.004250 0.000000 0.000001 -1.214749 0.005236
    15 1.194336 -1.667969 -0.153076 0.000000 -0.267035 -1.445133
    16 1.680664 0.022736 0.000002 0.000000 -0.612611 -0.005236
    17 1.091797 -0.001310 -0.000001 0.000000 -1.392772 0.000000
    18 11.281250 0.312256 -7.402344 -2.205148 -1.325022 -4.453974
    19 -0.305664 -11.164063 0.000000 0.209146 0.299578 -0.249756
    20 0.288330 -4.433594 0.926270 0.080103 -1.549641 -0.151666
    21 0.000000 2.791016 0.898926 0.000000 0.000000 0.000000
    22 0.000000 -1.948242 2.902344 0.000000 0.000000 0.000000
    23 -0.496338 -4.492188 0.848633 0.430357 1.517607 0.507516
    24 -0.000001 2.900391 1.066406 0.000000 0.000000 0.000000
    25 0.000000 0.500977 2.898438 0.000000 0.000000 0.000000
    26 -0.021851 -0.545410 -0.000001 0.000000 0.000000 0.000000
    27 0.589844 0.240112 0.589844 0.297069 -0.493084 -1.048320
    28 2.320313 0.013245 0.000002 0.000000 0.000000 -0.455531
    29 1.244141 -0.012512 0.000000 0.000000 0.000000 -0.858702
    30 1.421875 -2.332031 -0.171265 -0.002072 -0.054728 -1.523603
    31 1.707031 0.018570 0.000000 0.000004 -0.376958 -0.010445
    32 1.169922 -0.007069 0.000002 -0.000986 -0.612579 0.016390
    33 0.511719 -2.587891 -0.171265 0.068179 -0.280440 -1.750247
    34 1.837891 0.009186 -0.000001 -3.141591 -1.523670 -3.131118
    35 1.438477 0.012917 -0.000001 0.000000 -1.099558 0.005236
    36 -0.365967 -2.267578 -0.171265 0.017968 -0.224442 -1.724665
    37 1.888672 -0.005322 0.000005 0.000002 -1.544617 0.036656
    38 1.373047 -0.013489 -0.000001 0.000000 -1.130973 0.010472
    39 -1.195313 -1.695313 -0.171265 0.000000 -0.235619 -1.685988
    40 1.687500 -0.013481 -0.000001 0.000000 -0.753982 0.005229
    41 1.072266 0.022141 0.000004 0.000000 -1.371829 -0.010472
    42 0.000000 -2.078125 1.572266 0.000000 0.000000 0.000000
    43 0.000000 -3.705078 1.590820 0.000000 0.000000 0.000000
    44 0.000000 -1.273438 2.095703 0.000000 0.000000 0.000000
    45 0.000000 -1.329102 2.134766 0.000000 0.000000 0.000000
    46 0.000000 -2.113281 1.571289 0.000000 0.000000 0.000000
    47 0.000001 -3.744141 1.533203 0.000000 0.000000 0.000000
    48 0.500002 9.999993 0.000002 -1.570796 0.000000 -1.570796
    49 0.500002 9.999993 0.000002 -1.570796 0.000000 -1.570796
    50 0.000000 0.000005 0.000001 -1.570796 0.000000 -1.570796
    51 0.000001 0.000003 -0.500010 -1.570796 0.000000 -1.570796
    52 -0.000001 0.000000 -0.000002 -1.570796 0.000000 0.000000
    53 0.000000 0.000000 0.000000 -1.570797 0.000000 0.000000
    54 0.000001 0.000000 0.000000 -1.570796 0.000000 0.000000
    55 0.000000 0.000000 0.000002 -1.570796 0.000000 0.000000
    56 -0.000003 0.000000 0.000001 -1.570796 0.000000 0.000000
    57 0.000000 0.000000 0.000000 -1.570796 0.000000 0.000000
    58 0.000000 0.000000 -0.000002 -1.570796 0.000000 0.000000
    59 0.000000 0.000000 0.000001 -1.570796 0.000000 0.000000
    60 -0.000003 0.000000 0.000000 -1.570796 0.000000 0.000000
    61 -0.000001 0.000000 0.000000 -1.570796 0.000000 0.000000
    62 0.000000 0.000000 0.000000 -1.570796 0.000001 0.000000
    63 0.000000 0.000000 0.000000 -1.570796 0.000001 0.000000
    64 0.000000 0.000000 0.000001 3.141593 0.000000 0.000000
    65 0.000000 0.000000 0.000000 3.141593 0.000000 0.000000
    66 0.000001 -0.000001 0.000002 3.141592 0.000000 0.000000
    67 0.000000 10.000002 -0.000005 -1.570796 0.000000 -1.570796
    68 0.000000 10.000002 -0.000005 -1.570796 0.000000 -1.570796
    69 0.000000 0.000005 -0.000003 -1.570796 0.000000 -1.570796
    70 -0.000002 0.000006 -0.500010 -1.570796 0.000000 -1.570796
    71 -0.000004 0.000000 -0.000002 -1.570796 0.000000 0.000000
    72 0.000000 0.000000 0.000000 -1.570796 0.000000 0.000000
    73 0.000000 0.000000 0.000000 -1.570796 0.000000 0.000000
    74 -0.000002 0.000000 0.000000 -1.570796 0.000000 0.000000
    75 0.000002 0.000000 0.000000 -1.570796 0.000000 0.000000
    76 0.000006 0.000000 0.000000 -1.570796 0.000000 0.000000
    77 0.000001 0.000000 0.000000 -1.570796 0.000000 0.000000
    78 0.000000 0.000000 0.000000 -1.570796 0.000000 0.000000
    79 0.000003 0.000000 0.000000 -1.570796 0.000000 0.000000
    80 0.000000 0.000000 0.000000 -1.570796 0.000000 0.000000
    81 0.000002 0.000000 -0.000001 -1.570796 0.000000 0.000000
    82 0.000000 0.000000 0.000000 -1.570796 0.000000 0.000000
    83 0.000000 0.000000 -0.000003 0.000000 0.000000 0.000000
    84 0.000000 0.000000 0.000000 0.000000 0.000000 0.000000
    85 0.000000 0.000001 -0.000001 0.000000 0.000000 0.000000
  time 4
    0 -11.273438 0.440918 -7.726563 -2.378672 1.286258 -1.992054
    1 0.033539 -11.343750 -0.000003 0.238955 -0.344244 0.246469
    2 0.000000 -0.570801 -0.000001 0.000000 0.000000 0.000000
    3 -0.527344 0.291504 0.596191 -0.212797 -0.375551 -2.091539
    4 2.277344 -0.130737 -0.000001 0.000000 0.000000 0.523599
    5 1.069446 0.056463 0.000000 0.000000 0.000000 0.848230
    6 -1.362305 -2.281250 -0.152954 0.000000 0.000000 -1.638864
    7 1.736328 -0.000729 -0.000001 -0.000338 -0.481687 0.008469
    8 1.205078 -0.013672 -0.000002 0.000000 -0.670206 0.000000
    9 -0.435547 -2.492188 -0.153198 -0.078961 -0.260133 -1.437435
    10 1.931641 0.005775 -0.000002 -3.141592 -1.518438 -3.141593
    11 1.417969 0.010590 0.000005 0.000000 -1.110029 0.020944
    12 0.387207 -2.171875 -0.153076 -0.056428 -0.182688 -1.438565
    13 1.961914 0.062195 0.000003 -0.000001 -1.497494 -0.010473
    14 1.369141 0.004250 0.000000 0.000001 -1.214749 0.005236
    15 1.194336 -1.667969 -0.153076 0.000000 -0.267035 -1.445133
    16 1.680664 0.022736 0.000002 0.000000 -0.612611 -0.005236
    17 1.091797 -0.001310 -0.000001 0.000000 -1.392772 0.000000
    18 11.281250 0.312256 -7.402344 -2.205148 -1.325022 -4.453974
    19 -0.305664 -11.164063 0.000000 0.209146 0.299578 -0.249756
    20 0.288330 -4.433594 0.926270 0.080103 -1.549641 -0.151666
    21 0.000000 2.791016 0.898926 0.000000 0.000000 0.000000
    22 0.000000 -1.948242 2.902344 0.000000 0.000000 0.000000
    23 -0.496338 -4.492188 0.848633 0.430357 1.517607 0.507516
    24 -0.000001 2.900391 1.066406 0.000000 0.000000 0.000000
    25 0.000000 0.500977 2.898438 0.000000 0.000000 0.000000
    26 -0.021851 -0.545410 -0.000001 0.000000 0.000000 0.000000
    27 0.589844 0.240112 0.589844 0.297069 -0.493084 -1.048320
    28 2.320313 0.013245 0.000002 0.000000 0.000000 -0.455531
    29 1.244141 -0.012512 0.000000 0.000000 0.000000 -0.858702
    30 1.421875 -2.332031 -0.171265 -0.002072 -0.054728 -1.523603
    31 1.707031 0.018570 0.000000 0.000004 -0.376958 -0.010445
    32 1.169922 -0.007069 0.000002 -0.000986 -0.612579 0.016390
    33 0.511719 -2.587891 -0.171265 0.068179 -0.280440 -1.750247
    34 1.837891 0.009186 -0.000001 -3.141591 -1.523670 -3.131118
    35 1.438477 0.012917 -0.000001 0.000000 -1.099558 0.005236
    36 -0.365967 -2.267578 -0.171265 0.017968 -0.224442 -1.724665
    37 1.888672 -0.005322 0.000005 0.000002 -1.544617 0.036656
    38 1.373047 -0.013489 -0.000001 0.000000 -1.130973 0.010472
    39 -1.195313 -1.695313 -0.171265 0.000000 -0.235619 -1.685988
    40 1.687500 -0.013481 -0.000001 0.000000 -0.753982 0.005229
    41 1.072266 0.022141 0.000004 0.000000 -1.371829 -0.010472
    42 0.000000 -2.078125 1.572266 0.000000 0.000000 0.000000
    43 0.000000 -3.705078 1.590820 0.000000 0.000000 0.000000
    44 0.000000 -1.273438 2.095703 0.000000 0.000000 0.000000
    45 0.000000 -1.329102 2.134766 0.000000 0.000000 0.000000
    46 0.000000 -2.113281 1.571289 0.000000 0.000000 0.000000
    47 0.000001 -3.744141 1.533203 0.000000 0.000000 0.000000
    48 0.500002 9.999993 0.000002 -1.570796 0.000000 -1.570796
    49 0.500002 9.999993 0.000002 -1.570796 0.000000 -1.570796
    50 0.000000 0.000005 0.000001 -1.570796 0.000000 -1.570796
    51 0.000001 0.000003 -0.500010 -1.570796 0.000000 -1.570796
    52 -0.000001 0.000000 -0.000002 -1.570796 0.000000 0.000000
    53 0.000000 0.000000 0.000000 -1.570797 0.000000 0.000000
    54 0.000001 0.000000 0.000000 -1.570796 0.000000 0.000000
    55 0.000000 0.000000 0.000002 -1.570796 0.000000 0.000000
    56 -0.000003 0.000000 0.000001 -1.570796 0.000000 0.000000
    57 0.000000 0.000000 0.000000 -1.570796 0.000000 0.000000
    58 0.000000 0.000000 -0.000002 -1.570796 0.000000 0.000000
    59 0.000000 0.000000 0.000001 -1.570796 0.000000 0.000000
    60 -0.000003 0.000000 0.000000 -1.570796 0.000000 0.000000
    61 -0.000001 0.000000 0.000000 -1.570796 0.000000 0.000000
    62 0.000000 0.000000 0.000000 -1.570796 0.000001 0.000000
    63 0.000000 0.000000 0.000000 -1.570796 0.000001 0.000000
    64 0.000000 0.000000 0.000001 3.141593 0.000000 0.000000
    65 0.000000 0.000000 0.000000 3.141593 0.000000 0.000000
    66 0.000001 -0.000001 0.000002 3.141592 0.000000 0.000000
    67 0.000000 10.000002 -0.000005 -1.570796 0.000000 -1.570796
    68 0.000000 10.000002 -0.000005 -1.570796 0.000000 -1.570796
    69 0.000000 0.000005 -0.000003 -1.570796 0.000000 -1.570796
    70 -0.000002 0.000006 -0.500010 -1.570796 0.000000 -1.570796
    71 -0.000004 0.000000 -0.000002 -1.570796 0.000000 0.000000
    72 0.000000 0.000000 0.000000 -1.570796 0.000000 0.000000
    73 0.000000 0.000000 0.000000 -1.570796 0.000000 0.000000
    74 -0.000002 0.000000 0.000000 -1.570796 0.000000 0.000000
    75 0.000002 0.000000 0.000000 -1.570796 0.000000 0.000000
    76 0.000006 0.000000 0.000000 -1.570796 0.000000 0.000000
    77 0.000001 0.000000 0.000000 -1.570796 0.000000 0.000000
    78 0.000000 0.000000 0.000000 -1.570796 0.000000 0.000000
    79 0.000003 0.000000 0.000000 -1.570796 0.000000 0.000000
    80 0.000000 0.000000 0.000000 -1.570796 0.000000 0.000000
    81 0.000002 0.000000 -0.000001 -1.570796 0.000000 0.000000
    82 0.000000 0.000000 0.000000 -1.570796 0.000000 0.000000
    83 0.000000 0.000000 -0.000003 0.000000 0.000000 0.000000
    84 0.000000 0.000000 0.000000 0.000000 0.000000 0.000000
    85 0.000000 0.000001 -0.000001 0.000000 0.000000 0.000000
  time 5
    0 -11.273438 0.440918 -7.726563 -2.378672 1.286258 -1.992054
    1 0.033539 -11.343750 -0.000003 0.238955 -0.344244 0.246469
    2 0.000000 -0.570801 -0.000001 0.000000 0.000000 0.000000
    3 -0.527344 0.291504 0.596191 -0.212797 -0.375551 -2.091539
    4 2.277344 -0.130737 -0.000001 0.000000 0.000000 0.523599
    5 1.069446 0.056463 0.000000 0.000000 0.000000 0.848230
    6 -1.362305 -2.281250 -0.152954 0.000000 0.000000 -1.638864
    7 1.736328 -0.000729 -0.000001 -0.000338 -0.481687 0.008469
    8 1.205078 -0.013672 -0.000002 0.000000 -0.670206 0.000000
    9 -0.435547 -2.492188 -0.153198 -0.078961 -0.260133 -1.437435
    10 1.931641 0.005775 -0.000002 -3.141592 -1.518438 -3.141593
    11 1.417969 0.010590 0.000005 0.000000 -1.110029 0.020944
    12 0.387207 -2.171875 -0.153076 -0.056428 -0.182688 -1.438565
    13 1.961914 0.062195 0.000003 -0.000001 -1.497494 -0.010473
    14 1.369141 0.004250 0.000000 0.000001 -1.214749 0.005236
    15 1.194336 -1.667969 -0.153076 0.000000 -0.267035 -1.445133
    16 1.680664 0.022736 0.000002 0.000000 -0.612611 -0.005236
    17 1.091797 -0.001310 -0.000001 0.000000 -1.392772 0.000000
    18 11.281250 0.312256 -7.402344 -2.205148 -1.325022 -4.453974
    19 -0.305664 -11.164063 0.000000 0.209146 0.299578 -0.249756
    20 0.288330 -4.433594 0.926270 0.080103 -1.549641 -0.151666
    21 0.000000 2.791016 0.898926 0.000000 0.000000 0.000000
    22 0.000000 -1.948242 2.902344 0.000000 0.000000 0.000000
    23 -0.496338 -4.492188 0.848633 0.430357 1.517607 0.507516
    24 -0.000001 2.900391 1.066406 0.000000 0.000000 0.000000
    25 0.000000 0.500977 2.898438 0.000000 0.000000 0.000000
    26 -0.021851 -0.545410 -0.000001 0.000000 0.000000 0.000000
    27 0.589844 0.240112 0.589844 0.297069 -0.493084 -1.048320
    28 2.320313 0.013245 0.000002 0.000000 0.000000 -0.455531
    29 1.244141 -0.012512 0.000000 0.000000 0.000000 -0.858702
    30 1.421875 -2.332031 -0.171265 -0.002072 -0.054728 -1.523603
    31 1.707031 0.018570 0.000000 0.000004 -0.376958 -0.010445
    32 1.169922 -0.007069 0.000002 -0.000986 -0.612579 0.016390
    33 0.511719 -2.587891 -0.171265 0.068179 -0.280440 -1.750247
    34 1.837891 0.009186 -0.000001 -3.141591 -1.523670 -3.131118
    35 1.438477 0.012917 -0.000001 0.000000 -1.099558 0.005236
    36 -0.365967 -2.267578 -0.171265 0.017968 -0.224442 -1.724665
    37 1.888672 -0.005322 0.000005 0.000002 -1.544617 0.036656
    38 1.373047 -0.013489 -0.000001 0.000000 -1.130973 0.010472
    39 -1.195313 -1.695313 -0.171265 0.000000 -0.235619 -1.685988
    40 1.687500 -0.013481 -0.000001 0.000000 -0.753982 0.005229
    41 1.072266 0.022141 0.000004 0.000000 -1.371829 -0.010472
    42 0.000000 -2.078125 1.572266 0.000000 0.000000 0.000000
    43 0.000000 -3.705078 1.590820 0.000000 0.000000 0.000000
    44 0.000000 -1.273438 2.095703 0.000000 0.000000 0.000000
    45 0.000000 -1.329102 2.134766 0.000000 0.000000 0.000000
    46 0.000000 -2.113281 1.571289 0.000000 0.000000 0.000000
    47 0.000001 -3.744141 1.533203 0.000000 0.000000 0.000000
    48 0.500002 9.999993 0.000002 -1.570796 0.000000 -1.570796
    49 0.500002 9.999993 0.000002 -1.570796 0.000000 -1.570796
    50 0.000000 0.000005 0.000001 -1.570796 0.000000 -1.570796
    51 0.000001 0.000003 -0.500010 -1.570796 0.000000 -1.570796
    52 -0.000001 0.000000 -0.000002 -1.570796 0.000000 0.000000
    53 0.000000 0.000000 0.000000 -1.570797 0.000000 0.000000
    54 0.000001 0.000000 0.000000 -1.570796 0.000000 0.000000
    55 0.000000 0.000000 0.000002 -1.570796 0.000000 0.000000
    56 -0.000003 0.000000 0.000001 -1.570796 0.000000 0.000000
    57 0.000000 0.000000 0.000000 -1.570796 0.000000 0.000000
    58 0.000000 0.000000 -0.000002 -1.570796 0.000000 0.000000
    59 0.000000 0.000000 0.000001 -1.570796 0.000000 0.000000
    60 -0.000003 0.000000 0.000000 -1.570796 0.000000 0.000000
    61 -0.000001 0.000000 0.000000 -1.570796 0.000000 0.000000
    62 0.000000 0.000000 0.000000 -1.570796 0.000001 0.000000
    63 0.000000 0.000000 0.000000 -1.570796 0.000001 0.000000
    64 0.000000 0.000000 0.000001 3.141593 0.000000 0.000000
    65 0.000000 0.000000 0.000000 3.141593 0.000000 0.000000
    66 0.000001 -0.000001 0.000002 3.141592 0.000000 0.000000
    67 0.000000 10.000002 -0.000005 -1.570796 0.000000 -1.570796
    68 0.000000 10.000002 -0.000005 -1.570796 0.000000 -1.570796
    69 0.000000 0.000005 -0.000003 -1.570796 0.000000 -1.570796
    70 -0.000002 0.000006 -0.500010 -1.570796 0.000000 -1.570796
    71 -0.000004 0.000000 -0.000002 -1.570796 0.000000 0.000000
    72 0.000000 0.000000 0.000000 -1.570796 0.000000 0.000000
    73 0.000000 0.000000 0.000000 -1.570796 0.000000 0.000000
    74 -0.000002 0.000000 0.000000 -1.570796 0.000000 0.000000
    75 0.000002 0.000000 0.000000 -1.570796 0.000000 0.000000
    76 0.000006 0.000000 0.000000 -1.570796 0.000000 0.000000
    77 0.000001 0.000000 0.000000 -1.570796 0.000000 0.000000
    78 0.000000 0.000000 0.000000 -1.570796 0.000000 0.000000
    79 0.000003 0.000000 0.000000 -1.570796 0.000000 0.000000
    80 0.000000 0.000000 0.000000 -1.570796 0.000000 0.000000
    81 0.000002 0.000000 -0.000001 -1.570796 0.000000 0.000000
    82 0.000000 0.000000 0.000000 -1.570796 0.000000 0.000000
    83 0.000000 0.000000 -0.000003 0.000000 0.000000 0.000000
    84 0.000000 0.000000 0.000000 0.000000 0.000000 0.000000
    85 0.000000 0.000001 -0.000001 0.000000 0.000000 0.000000
  time 6
    0 -11.273438 0.440918 -7.726563 -2.378672 1.286258 -1.992054
    1 0.033539 -11.343750 -0.000003 0.238955 -0.344244 0.246469
    2 0.000000 -0.570801 -0.000001 0.000000 0.000000 0.000000
    3 -0.527344 0.291504 0.596191 -0.212797 -0.375551 -2.091539
    4 2.277344 -0.130737 -0.000001 0.000000 0.000000 0.523599
    5 1.069446 0.056463 0.000000 0.000000 0.000000 0.848230
    6 -1.362305 -2.281250 -0.152954 0.000000 0.000000 -1.638864
    7 1.736328 -0.000729 -0.000001 -0.000338 -0.481687 0.008469
    8 1.205078 -0.013672 -0.000002 0.000000 -0.670206 0.000000
    9 -0.435547 -2.492188 -0.153198 -0.078961 -0.260133 -1.437435
    10 1.931641 0.005775 -0.000002 -3.141592 -1.518438 -3.141593
    11 1.417969 0.010590 0.000005 0.000000 -1.110029 0.020944
    12 0.387207 -2.171875 -0.153076 -0.056428 -0.182688 -1.438565
    13 1.961914 0.062195 0.000003 -0.000001 -1.497494 -0.010473
    14 1.369141 0.004250 0.000000 0.000001 -1.214749 0.005236
    15 1.194336 -1.667969 -0.153076 0.000000 -0.267035 -1.445133
    16 1.680664 0.022736 0.000002 0.000000 -0.612611 -0.005236
    17 1.091797 -0.001310 -0.000001 0.000000 -1.392772 0.000000
    18 11.281250 0.312256 -7.402344 -2.205148 -1.325022 -4.453974
    19 -0.305664 -11.164063 0.000000 0.209146 0.299578 -0.249756
    20 0.288330 -4.433594 0.926270 0.080103 -1.549641 -0.151666
    21 0.000000 2.791016 0.898926 0.000000 0.000000 0.000000
    22 0.000000 -1.948242 2.902344 0.000000 0.000000 0.000000
    23 -0.496338 -4.492188 0.848633 0.430357 1.517607 0.507516
    24 -0.000001 2.900391 1.066406 0.000000 0.000000 0.000000
    25 0.000000 0.500977 2.898438 0.000000 0.000000 0.000000
    26 -0.021851 -0.545410 -0.000001 0.000000 0.000000 0.000000
    27 0.589844 0.240112 0.589844 0.297069 -0.493084 -1.048320
    28 2.320313 0.013245 0.000002 0.000000 0.000000 -0.455531
    29 1.244141 -0.012512 0.000000 0.000000 0.000000 -0.858702
    30 1.421875 -2.332031 -0.171265 -0.002072 -0.054728 -1.523603
    31 1.707031 0.018570 0.000000 0.000004 -0.376958 -0.010445
    32 1.169922 -0.007069 0.000002 -0.000986 -0.612579 0.016390
    33 0.511719 -2.587891 -0.171265 0.068179 -0.280440 -1.750247
    34 1.837891 0.009186 -0.000001 -3.141591 -1.523670 -3.131118
    35 1.438477 0.012917 -0.000001 0.000000 -1.099558 0.005236
    36 -0.365967 -2.267578 -0.171265 0.017968 -0.224442 -1.724665
    37 1.888672 -0.005322 0.000005 0.000002 -1.544617 0.036656
    38 1.373047 -0.013489 -0.000001 0.000000 -1.130973 0.010472
    39 -1.195313 -1.695313 -0.171265 0.000000 -0.235619 -1.685988
    40 1.687500 -0.013481 -0.000001 0.000000 -0.753982 0.005229
    41 1.072266 0.022141 0.000004 0.000000 -1.371829 -0.010472
    42 0.000000 -2.078125 1.572266 0.000000 0.000000 0.000000
    43 0.000000 -3.705078 1.590820 0.000000 0.000000 0.000000
    44 0.000000 -1.273438 2.095703 0.000000 0.000000 0.000000
    45 0.000000 -1.329102 2.134766 0.000000 0.000000 0.000000
    46 0.000000 -2.113281 1.571289 0.000000 0.000000 0.000000
    47 0.000001 -3.744141 1.533203 0.000000 0.000000 0.000000
    48 0.500002 9.999993 0.000002 -1.570796 0.000000 -1.570796
    49 0.500002 9.999993 0.000002 -1.570796 0.000000 -1.570796
    50 0.000000 0.000005 0.000001 -1.570796 0.000000 -1.570796
    51 0.000001 0.000003 -0.500010 -1.570796 0.000000 -1.570796
    52 -0.000001 0.000000 -0.000002 -1.570796 0.000000 0.000000
    53 0.000000 0.000000 0.000000 -1.570797 0.000000 0.000000
    54 0.000001 0.000000 0.000000 -1.570796 0.000000 0.000000
    55 0.000000 0.000000 0.000002 -1.570796 0.000000 0.000000
    56 -0.000003 0.000000 0.000001 -1.570796 0.000000 0.000000
    57 0.000000 0.000000 0.000000 -1.570796 0.000000 0.000000
    58 0.000000 0.000000 -0.000002 -1.570796 0.000000 0.000000
    59 0.000000 0.000000 0.000001 -1.570796 0.000000 0.000000
    60 -0.000003 0.000000 0.000000 -1.570796 0.000000 0.000000
    61 -0.000001 0.000000 0.000000 -1.570796 0.000000 0.000000
    62 0.000000 0.000000 0.000000 -1.570796 0.000001 0.000000
    63 0.000000 0.000000 0.000000 -1.570796 0.000001 0.000000
    64 0.000000 0.000000 0.000001 3.141593 0.000000 0.000000
    65 0.000000 0.000000 0.000000 3.141593 0.000000 0.000000
    66 0.000001 -0.000001 0.000002 3.141592 0.000000 0.000000
    67 0.000000 10.000002 -0.000005 -1.570796 0.000000 -1.570796
    68 0.000000 10.000002 -0.000005 -1.570796 0.000000 -1.570796
    69 0.000000 0.000005 -0.000003 -1.570796 0.000000 -1.570796
    70 -0.000002 0.000006 -0.500010 -1.570796 0.000000 -1.570796
    71 -0.000004 0.000000 -0.000002 -1.570796 0.000000 0.000000
    72 0.000000 0.000000 0.000000 -1.570796 0.000000 0.000000
    73 0.000000 0.000000 0.000000 -1.570796 0.000000 0.000000
    74 -0.000002 0.000000 0.000000 -1.570796 0.000000 0.000000
    75 0.000002 0.000000 0.000000 -1.570796 0.000000 0.000000
    76 0.000006 0.000000 0.000000 -1.570796 0.000000 0.000000
    77 0.000001 0.000000 0.000000 -1.570796 0.000000 0.000000
    78 0.000000 0.000000 0.000000 -1.570796 0.000000 0.000000
    79 0.000003 0.000000 0.000000 -1.570796 0.000000 0.000000
    80 0.000000 0.000000 0.000000 -1.570796 0.000000 0.000000
    81 0.000002 0.000000 -0.000001 -1.570796 0.000000 0.000000
    82 0.000000 0.000000 0.000000 -1.570796 0.000000 0.000000
    83 0.000000 0.000000 -0.000003 0.000000 0.000000 0.000000
    84 0.000000 0.000000 0.000000 0.000000 0.000000 0.000000
    85 0.000000 0.000001 -0.000001 0.000000 0.000000 0.000000
  time 7
    0 -11.273438 0.440918 -7.726563 -2.378672 1.286258 -1.992054
    1 0.033539 -11.343750 -0.000003 0.238955 -0.344244 0.246469
    2 0.000000 -0.570801 -0.000001 0.000000 0.000000 0.000000
    3 -0.527344 0.291504 0.596191 -0.212797 -0.375551 -2.091539
    4 2.277344 -0.130737 -0.000001 0.000000 0.000000 0.523599
    5 1.069446 0.056463 0.000000 0.000000 0.000000 0.848230
    6 -1.362305 -2.281250 -0.152954 0.000000 0.000000 -1.638864
    7 1.736328 -0.000729 -0.000001 -0.000338 -0.481687 0.008469
    8 1.205078 -0.013672 -0.000002 0.000000 -0.670206 0.000000
    9 -0.435547 -2.492188 -0.153198 -0.078961 -0.260133 -1.437435
    10 1.931641 0.005775 -0.000002 -3.141592 -1.518438 -3.141593
    11 1.417969 0.010590 0.000005 0.000000 -1.110029 0.020944
    12 0.387207 -2.171875 -0.153076 -0.056428 -0.182688 -1.438565
    13 1.961914 0.062195 0.000003 -0.000001 -1.497494 -0.010473
    14 1.369141 0.004250 0.000000 0.000001 -1.214749 0.005236
    15 1.194336 -1.667969 -0.153076 0.000000 -0.267035 -1.445133
    16 1.680664 0.022736 0.000002 0.000000 -0.612611 -0.005236
    17 1.091797 -0.001310 -0.000001 0.000000 -1.392772 0.000000
    18 11.281250 0.312256 -7.402344 -2.205148 -1.325022 -4.453974
    19 -0.305664 -11.164063 0.000000 0.209146 0.299578 -0.249756
    20 0.288330 -4.433594 0.926270 0.080103 -1.549641 -0.151666
    21 0.000000 2.791016 0.898926 0.000000 0.000000 0.000000
    22 0.000000 -1.948242 2.902344 0.000000 0.000000 0.000000
    23 -0.496338 -4.492188 0.848633 0.430357 1.517607 0.507516
    24 -0.000001 2.900391 1.066406 0.000000 0.000000 0.000000
    25 0.000000 0.500977 2.898438 0.000000 0.000000 0.000000
    26 -0.021851 -0.545410 -0.000001 0.000000 0.000000 0.000000
    27 0.589844 0.240112 0.589844 0.297069 -0.493084 -1.048320
    28 2.320313 0.013245 0.000002 0.000000 0.000000 -0.455531
    29 1.244141 -0.012512 0.000000 0.000000 0.000000 -0.858702
    30 1.421875 -2.332031 -0.171265 -0.002072 -0.054728 -1.523603
    31 1.707031 0.018570 0.000000 0.000004 -0.376958 -0.010445
    32 1.169922 -0.007069 0.000002 -0.000986 -0.612579 0.016390
    33 0.511719 -2.587891 -0.171265 0.068179 -0.280440 -1.750247
    34 1.837891 0.009186 -0.000001 -3.141591 -1.523670 -3.131118
    35 1.438477 0.012917 -0.000001 0.000000 -1.099558 0.005236
    36 -0.365967 -2.267578 -0.171265 0.017968 -0.224442 -1.724665
    37 1.888672 -0.005322 0.000005 0.000002 -1.544617 0.036656
    38 1.373047 -0.013489 -0.000001 0.000000 -1.130973 0.010472
    39 -1.195313 -1.695313 -0.171265 0.000000 -0.235619 -1.685988
    40 1.687500 -0.013481 -0.000001 0.000000 -0.753982 0.005229
    41 1.072266 0.022141 0.000004 0.000000 -1.371829 -0.010472
    42 0.000000 -2.078125 1.572266 0.000000 0.000000 0.000000
    43 0.000000 -3.705078 1.590820 0.000000 0.000000 0.000000
    44 0.000000 -1.273438 2.095703 0.000000 0.000000 0.000000
    45 0.000000 -1.329102 2.134766 0.000000 0.000000 0.000000
    46 0.000000 -2.113281 1.571289 0.000000 0.000000 0.000000
    47 0.000001 -3.744141 1.533203 0.000000 0.000000 0.000000
    48 0.500002 9.999993 0.000002 -1.570796 0.000000 -1.570796
    49 0.500002 9.999993 0.000002 -1.570796 0.000000 -1.570796
    50 0.000000 0.000005 0.000001 -1.570796 0.000000 -1.570796
    51 0.000001 0.000003 -0.500010 -1.570796 0.000000 -1.570796
    52 -0.000001 0.000000 -0.000002 -1.570796 0.000000 0.000000
    53 0.000000 0.000000 0.000000 -1.570797 0.000000 0.000000
    54 0.000001 0.000000 0.000000 -1.570796 0.000000 0.000000
    55 0.000000 0.000000 0.000002 -1.570796 0.000000 0.000000
    56 -0.000003 0.000000 0.000001 -1.570796 0.000000 0.000000
    57 0.000000 0.000000 0.000000 -1.570796 0.000000 0.000000
    58 0.000000 0.000000 -0.000002 -1.570796 0.000000 0.000000
    59 0.000000 0.000000 0.000001 -1.570796 0.000000 0.000000
    60 -0.000003 0.000000 0.000000 -1.570796 0.000000 0.000000
    61 -0.000001 0.000000 0.000000 -1.570796 0.000000 0.000000
    62 0.000000 0.000000 0.000000 -1.570796 0.000001 0.000000
    63 0.000000 0.000000 0.000000 -1.570796 0.000001 0.000000
    64 0.000000 0.000000 0.000001 3.141593 0.000000 0.000000
    65 0.000000 0.000000 0.000000 3.141593 0.000000 0.000000
    66 0.000001 -0.000001 0.000002 3.141592 0.000000 0.000000
    67 0.000000 10.000002 -0.000005 -1.570796 0.000000 -1.570796
    68 0.000000 10.000002 -0.000005 -1.570796 0.000000 -1.570796
    69 0.000000 0.000005 -0.000003 -1.570796 0.000000 -1.570796
    70 -0.000002 0.000006 -0.500010 -1.570796 0.000000 -1.570796
    71 -0.000004 0.000000 -0.000002 -1.570796 0.000000 0.000000
    72 0.000000 0.000000 0.000000 -1.570796 0.000000 0.000000
    73 0.000000 0.000000 0.000000 -1.570796 0.000000 0.000000
    74 -0.000002 0.000000 0.000000 -1.570796 0.000000 0.000000
    75 0.000002 0.000000 0.000000 -1.570796 0.000000 0.000000
    76 0.000006 0.000000 0.000000 -1.570796 0.000000 0.000000
    77 0.000001 0.000000 0.000000 -1.570796 0.000000 0.000000
    78 0.000000 0.000000 0.000000 -1.570796 0.000000 0.000000
    79 0.000003 0.000000 0.000000 -1.570796 0.000000 0.000000
    80 0.000000 0.000000 0.000000 -1.570796 0.000000 0.000000
    81 0.000002 0.000000 -0.000001 -1.570796 0.000000 0.000000
    82 0.000000 0.000000 0.000000 -1.570796 0.000000 0.000000
    83 0.000000 0.000000 -0.000003 0.000000 0.000000 0.000000
    84 0.000000 0.000000 0.000000 0.000000 0.000000 0.000000
    85 0.000000 0.000001 -0.000001 0.000000 0.000000 0.000000
  time 8
    0 -11.273438 0.440918 -7.726563 -2.378672 1.286258 -1.992054
    1 0.033539 -11.343750 -0.000003 0.238955 -0.344244 0.246469
    2 0.000000 -0.570801 -0.000001 0.000000 0.000000 0.000000
    3 -0.527344 0.291504 0.596191 -0.212797 -0.375551 -2.091539
    4 2.277344 -0.130737 -0.000001 0.000000 0.000000 0.523599
    5 1.069446 0.056463 0.000000 0.000000 0.000000 0.848230
    6 -1.362305 -2.281250 -0.152954 0.000000 0.000000 -1.638864
    7 1.736328 -0.000729 -0.000001 -0.000338 -0.481687 0.008469
    8 1.205078 -0.013672 -0.000002 0.000000 -0.670206 0.000000
    9 -0.435547 -2.492188 -0.153198 -0.078961 -0.260133 -1.437435
    10 1.931641 0.005775 -0.000002 -3.141592 -1.518438 -3.141593
    11 1.417969 0.010590 0.000005 0.000000 -1.110029 0.020944
    12 0.387207 -2.171875 -0.153076 -0.056428 -0.182688 -1.438565
    13 1.961914 0.062195 0.000003 -0.000001 -1.497494 -0.010473
    14 1.369141 0.004250 0.000000 0.000001 -1.214749 0.005236
    15 1.194336 -1.667969 -0.153076 0.000000 -0.267035 -1.445133
    16 1.680664 0.022736 0.000002 0.000000 -0.612611 -0.005236
    17 1.091797 -0.001310 -0.000001 0.000000 -1.392772 0.000000
    18 11.281250 0.312256 -7.402344 -2.205148 -1.325022 -4.453974
    19 -0.305664 -11.164063 0.000000 0.209146 0.299578 -0.249756
    20 0.288330 -4.433594 0.926270 0.080103 -1.549641 -0.151666
    21 0.000000 2.791016 0.898926 0.000000 0.000000 0.000000
    22 0.000000 -1.948242 2.902344 0.000000 0.000000 0.000000
    23 -0.496338 -4.492188 0.848633 0.430357 1.517607 0.507516
    24 -0.000001 2.900391 1.066406 0.000000 0.000000 0.000000
    25 0.000000 0.500977 2.898438 0.000000 0.000000 0.000000
    26 -0.021851 -0.545410 -0.000001 0.000000 0.000000 0.000000
    27 0.589844 0.240112 0.589844 0.297069 -0.493084 -1.048320
    28 2.320313 0.013245 0.000002 0.000000 0.000000 -0.455531
    29 1.244141 -0.012512 0.000000 0.000000 0.000000 -0.858702
    30 1.421875 -2.332031 -0.171265 -0.002072 -0.054728 -1.523603
    31 1.707031 0.018570 0.000000 0.000004 -0.376958 -0.010445
    32 1.169922 -0.007069 0.000002 -0.000986 -0.612579 0.016390
    33 0.511719 -2.587891 -0.171265 0.068179 -0.280440 -1.750247
    34 1.837891 0.009186 -0.000001 -3.141591 -1.523670 -3.131118
    35 1.438477 0.012917 -0.000001 0.000000 -1.099558 0.005236
    36 -0.365967 -2.267578 -0.171265 0.017968 -0.224442 -1.724665
    37 1.888672 -0.005322 0.000005 0.000002 -1.544617 0.036656
    38 1.373047 -0.013489 -0.000001 0.000000 -1.130973 0.010472
    39 -1.195313 -1.695313 -0.171265 0.000000 -0.235619 -1.685988
    40 1.687500 -0.013481 -0.000001 0.000000 -0.753982 0.005229
    41 1.072266 0.022141 0.000004 0.000000 -1.371829 -0.010472
    42 0.000000 -2.078125 1.572266 0.000000 0.000000 0.000000
    43 0.000000 -3.705078 1.590820 0.000000 0.000000 0.000000
    44 0.000000 -1.273438 2.095703 0.000000 0.000000 0.000000
    45 0.000000 -1.329102 2.134766 0.000000 0.000000 0.000000
    46 0.000000 -2.113281 1.571289 0.000000 0.000000 0.000000
    47 0.000001 -3.744141 1.533203 0.000000 0.000000 0.000000
    48 0.500002 9.999993 0.000002 -1.570796 0.000000 -1.570796
    49 0.500002 9.999993 0.000002 -1.570796 0.000000 -1.570796
    50 0.000000 0.000005 0.000001 -1.570796 0.000000 -1.570796
    51 0.000001 0.000003 -0.500010 -1.570796 0.000000 -1.570796
    52 -0.000001 0.000000 -0.000002 -1.570796 0.000000 0.000000
    53 0.000000 0.000000 0.000000 -1.570797 0.000000 0.000000
    54 0.000001 0.000000 0.000000 -1.570796 0.000000 0.000000
    55 0.000000 0.000000 0.000002 -1.570796 0.000000 0.000000
    56 -0.000003 0.000000 0.000001 -1.570796 0.000000 0.000000
    57 0.000000 0.000000 0.000000 -1.570796 0.000000 0.000000
    58 0.000000 0.000000 -0.000002 -1.570796 0.000000 0.000000
    59 0.000000 0.000000 0.000001 -1.570796 0.000000 0.000000
    60 -0.000003 0.000000 0.000000 -1.570796 0.000000 0.000000
    61 -0.000001 0.000000 0.000000 -1.570796 0.000000 0.000000
    62 0.000000 0.000000 0.000000 -1.570796 0.000001 0.000000
    63 0.000000 0.000000 0.000000 -1.570796 0.000001 0.000000
    64 0.000000 0.000000 0.000001 3.141593 0.000000 0.000000
    65 0.000000 0.000000 0.000000 3.141593 0.000000 0.000000
    66 0.000001 -0.000001 0.000002 3.141592 0.000000 0.000000
    67 0.000000 10.000002 -0.000005 -1.570796 0.000000 -1.570796
    68 0.000000 10.000002 -0.000005 -1.570796 0.000000 -1.570796
    69 0.000000 0.000005 -0.000003 -1.570796 0.000000 -1.570796
    70 -0.000002 0.000006 -0.500010 -1.570796 0.000000 -1.570796
    71 -0.000004 0.000000 -0.000002 -1.570796 0.000000 0.000000
    72 0.000000 0.000000 0.000000 -1.570796 0.000000 0.000000
    73 0.000000 0.000000 0.000000 -1.570796 0.000000 0.000000
    74 -0.000002 0.000000 0.000000 -1.570796 0.000000 0.000000
    75 0.000002 0.000000 0.000000 -1.570796 0.000000 0.000000
    76 0.000006 0.000000 0.000000 -1.570796 0.000000 0.000000
    77 0.000001 0.000000 0.000000 -1.570796 0.000000 0.000000
    78 0.000000 0.000000 0.000000 -1.570796 0.000000 0.000000
    79 0.000003 0.000000 0.000000 -1.570796 0.000000 0.000000
    80 0.000000 0.000000 0.000000 -1.570796 0.000000 0.000000
    81 0.000002 0.000000 -0.000001 -1.570796 0.000000 0.000000
    82 0.000000 0.000000 0.000000 -1.570796 0.000000 0.000000
    83 0.000000 0.000000 -0.000003 0.000000 0.000000 0.000000
    84 0.000000 0.000000 0.000000 0.000000 0.000000 0.000000
    85 0.000000 0.000001 -0.000001 0.000000 0.000000 0.000000
  time 9
    0 -11.273438 0.440918 -7.726563 -2.378672 1.286258 -1.992054
    1 0.033539 -11.343750 -0.000003 0.238955 -0.344244 0.246469
    2 0.000000 -0.570801 -0.000001 0.000000 0.000000 0.000000
    3 -0.527344 0.291504 0.596191 -0.212797 -0.375551 -2.091539
    4 2.277344 -0.130737 -0.000001 0.000000 0.000000 0.523599
    5 1.069446 0.056463 0.000000 0.000000 0.000000 0.848230
    6 -1.362305 -2.281250 -0.152954 0.000000 0.000000 -1.638864
    7 1.736328 -0.000729 -0.000001 -0.000338 -0.481687 0.008469
    8 1.205078 -0.013672 -0.000002 0.000000 -0.670206 0.000000
    9 -0.435547 -2.492188 -0.153198 -0.078961 -0.260133 -1.437435
    10 1.931641 0.005775 -0.000002 -3.141592 -1.518438 -3.141593
    11 1.417969 0.010590 0.000005 0.000000 -1.110029 0.020944
    12 0.387207 -2.171875 -0.153076 -0.056428 -0.182688 -1.438565
    13 1.961914 0.062195 0.000003 -0.000001 -1.497494 -0.010473
    14 1.369141 0.004250 0.000000 0.000001 -1.214749 0.005236
    15 1.194336 -1.667969 -0.153076 0.000000 -0.267035 -1.445133
    16 1.680664 0.022736 0.000002 0.000000 -0.612611 -0.005236
    17 1.091797 -0.001310 -0.000001 0.000000 -1.392772 0.000000
    18 11.281250 0.312256 -7.402344 -2.205148 -1.325022 -4.453974
    19 -0.305664 -11.164063 0.000000 0.209146 0.299578 -0.249756
    20 0.288330 -4.433594 0.926270 0.080103 -1.549641 -0.151666
    21 0.000000 2.791016 0.898926 0.000000 0.000000 0.000000
    22 0.000000 -1.948242 2.902344 0.000000 0.000000 0.000000
    23 -0.496338 -4.492188 0.848633 0.430357 1.517607 0.507516
    24 -0.000001 2.900391 1.066406 0.000000 0.000000 0.000000
    25 0.000000 0.500977 2.898438 0.000000 0.000000 0.000000
    26 -0.021851 -0.545410 -0.000001 0.000000 0.000000 0.000000
    27 0.589844 0.240112 0.589844 0.297069 -0.493084 -1.048320
    28 2.320313 0.013245 0.000002 0.000000 0.000000 -0.455531
    29 1.244141 -0.012512 0.000000 0.000000 0.000000 -0.858702
    30 1.421875 -2.332031 -0.171265 -0.002072 -0.054728 -1.523603
    31 1.707031 0.018570 0.000000 0.000004 -0.376958 -0.010445
    32 1.169922 -0.007069 0.000002 -0.000986 -0.612579 0.016390
    33 0.511719 -2.587891 -0.171265 0.068179 -0.280440 -1.750247
    34 1.837891 0.009186 -0.000001 -3.141591 -1.523670 -3.131118
    35 1.438477 0.012917 -0.000001 0.000000 -1.099558 0.005236
    36 -0.365967 -2.267578 -0.171265 0.017968 -0.224442 -1.724665
    37 1.888672 -0.005322 0.000005 0.000002 -1.544617 0.036656
    38 1.373047 -0.013489 -0.000001 0.000000 -1.130973 0.010472
    39 -1.195313 -1.695313 -0.171265 0.000000 -0.235619 -1.685988
    40 1.687500 -0.013481 -0.000001 0.000000 -0.753982 0.005229
    41 1.072266 0.022141 0.000004 0.000000 -1.371829 -0.010472
    42 0.000000 -2.078125 1.572266 0.000000 0.000000 0.000000
    43 0.000000 -3.705078 1.590820 0.000000 0.000000 0.000000
    44 0.000000 -1.273438 2.095703 0.000000 0.000000 0.000000
    45 0.000000 -1.329102 2.134766 0.000000 0.000000 0.000000
    46 0.000000 -2.113281 1.571289 0.000000 0.000000 0.000000
    47 0.000001 -3.744141 1.533203 0.000000 0.000000 0.000000
    48 0.500002 9.999993 0.000002 -1.570796 0.000000 -1.570796
    49 0.500002 9.999993 0.000002 -1.570796 0.000000 -1.570796
    50 0.000000 0.000005 0.000001 -1.570796 0.000000 -1.570796
    51 0.000001 0.000003 -0.500010 -1.570796 0.000000 -1.570796
    52 -0.000001 0.000000 -0.000002 -1.570796 0.000000 0.000000
    53 0.000000 0.000000 0.000000 -1.570797 0.000000 0.000000
    54 0.000001 0.000000 0.000000 -1.570796 0.000000 0.000000
    55 0.000000 0.000000 0.000002 -1.570796 0.000000 0.000000
    56 -0.000003 0.000000 0.000001 -1.570796 0.000000 0.000000
    57 0.000000 0.000000 0.000000 -1.570796 0.000000 0.000000
    58 0.000000 0.000000 -0.000002 -1.570796 0.000000 0.000000
    59 0.000000 0.000000 0.000001 -1.570796 0.000000 0.000000
    60 -0.000003 0.000000 0.000000 -1.570796 0.000000 0.000000
    61 -0.000001 0.000000 0.000000 -1.570796 0.000000 0.000000
    62 0.000000 0.000000 0.000000 -1.570796 0.000001 0.000000
    63 0.000000 0.000000 0.000000 -1.570796 0.000001 0.000000
    64 0.000000 0.000000 0.000001 3.141593 0.000000 0.000000
    65 0.000000 0.000000 0.000000 3.141593 0.000000 0.000000
    66 0.000001 -0.000001 0.000002 3.141592 0.000000 0.000000
    67 0.000000 10.000002 -0.000005 -1.570796 0.000000 -1.570796
    68 0.000000 10.000002 -0.000005 -1.570796 0.000000 -1.570796
    69 0.000000 0.000005 -0.000003 -1.570796 0.000000 -1.570796
    70 -0.000002 0.000006 -0.500010 -1.570796 0.000000 -1.570796
    71 -0.000004 0.000000 -0.000002 -1.570796 0.000000 0.000000
    72 0.000000 0.000000 0.000000 -1.570796 0.000000 0.000000
    73 0.000000 0.000000 0.000000 -1.570796 0.000000 0.000000
    74 -0.000002 0.000000 0.000000 -1.570796 0.000000 0.000000
    75 0.000002 0.000000 0.000000 -1.570796 0.000000 0.000000
    76 0.000006 0.000000 0.000000 -1.570796 0.000000 0.000000
    77 0.000001 0.000000 0.000000 -1.570796 0.000000 0.000000
    78 0.000000 0.000000 0.000000 -1.570796 0.000000 0.000000
    79 0.000003 0.000000 0.000000 -1.570796 0.000000 0.000000
    80 0.000000 0.000000 0.000000 -1.570796 0.000000 0.000000
    81 0.000002 0.000000 -0.000001 -1.570796 0.000000 0.000000
    82 0.000000 0.000000 0.000000 -1.570796 0.000000 0.000000
    83 0.000000 0.000000 -0.000003 0.000000 0.000000 0.000000
    84 0.000000 0.000000 0.000000 0.000000 0.000000 0.000000
    85 0.000000 0.000001 -0.000001 0.000000 0.000000 0.000000
  time 10
    0 -11.273438 0.440918 -7.726563 -2.378672 1.286258 -1.992054
    1 0.033539 -11.343750 -0.000003 0.238955 -0.344244 0.246469
    2 0.000000 -0.570801 -0.000001 0.000000 0.000000 0.000000
    3 -0.527344 0.291504 0.596191 -0.212797 -0.375551 -2.091539
    4 2.277344 -0.130737 -0.000001 0.000000 0.000000 0.523599
    5 1.069446 0.056463 0.000000 0.000000 0.000000 0.848230
    6 -1.362305 -2.281250 -0.152954 0.000000 0.000000 -1.638864
    7 1.736328 -0.000729 -0.000001 -0.000338 -0.481687 0.008469
    8 1.205078 -0.013672 -0.000002 0.000000 -0.670206 0.000000
    9 -0.435547 -2.492188 -0.153198 -0.078961 -0.260133 -1.437435
    10 1.931641 0.005775 -0.000002 -3.141592 -1.518438 -3.141593
    11 1.417969 0.010590 0.000005 0.000000 -1.110029 0.020944
    12 0.387207 -2.171875 -0.153076 -0.056428 -0.182688 -1.438565
    13 1.961914 0.062195 0.000003 -0.000001 -1.497494 -0.010473
    14 1.369141 0.004250 0.000000 0.000001 -1.214749 0.005236
    15 1.194336 -1.667969 -0.153076 0.000000 -0.267035 -1.445133
    16 1.680664 0.022736 0.000002 0.000000 -0.612611 -0.005236
    17 1.091797 -0.001310 -0.000001 0.000000 -1.392772 0.000000
    18 11.281250 0.312256 -7.402344 -2.205148 -1.325022 -4.453974
    19 -0.305664 -11.164063 0.000000 0.209146 0.299578 -0.249756
    20 0.288330 -4.433594 0.926270 0.080103 -1.549641 -0.151666
    21 0.000000 2.791016 0.898926 0.000000 0.000000 0.000000
    22 0.000000 -1.948242 2.902344 0.000000 0.000000 0.000000
    23 -0.496338 -4.492188 0.848633 0.430357 1.517607 0.507516
    24 -0.000001 2.900391 1.066406 0.000000 0.000000 0.000000
    25 0.000000 0.500977 2.898438 0.000000 0.000000 0.000000
    26 -0.021851 -0.545410 -0.000001 0.000000 0.000000 0.000000
    27 0.589844 0.240112 0.589844 0.297069 -0.493084 -1.048320
    28 2.320313 0.013245 0.000002 0.000000 0.000000 -0.455531
    29 1.244141 -0.012512 0.000000 0.000000 0.000000 -0.858702
    30 1.421875 -2.332031 -0.171265 -0.002072 -0.054728 -1.523603
    31 1.707031 0.018570 0.000000 0.000004 -0.376958 -0.010445
    32 1.169922 -0.007069 0.000002 -0.000986 -0.612579 0.016390
    33 0.511719 -2.587891 -0.171265 0.068179 -0.280440 -1.750247
    34 1.837891 0.009186 -0.000001 -3.141591 -1.523670 -3.131118
    35 1.438477 0.012917 -0.000001 0.000000 -1.099558 0.005236
    36 -0.365967 -2.267578 -0.171265 0.017968 -0.224442 -1.724665
    37 1.888672 -0.005322 0.000005 0.000002 -1.544617 0.036656
    38 1.373047 -0.013489 -0.000001 0.000000 -1.130973 0.010472
    39 -1.195313 -1.695313 -0.171265 0.000000 -0.235619 -1.685988
    40 1.687500 -0.013481 -0.000001 0.000000 -0.753982 0.005229
    41 1.072266 0.022141 0.000004 0.000000 -1.371829 -0.010472
    42 0.000000 -2.078125 1.572266 0.000000 0.000000 0.000000
    43 0.000000 -3.705078 1.590820 0.000000 0.000000 0.000000
    44 0.000000 -1.273438 2.095703 0.000000 0.000000 0.000000
    45 0.000000 -1.329102 2.134766 0.000000 0.000000 0.000000
    46 0.000000 -2.113281 1.571289 0.000000 0.000000 0.000000
    47 0.000001 -3.744141 1.533203 0.000000 0.000000 0.000000
    48 0.500002 9.999993 0.000002 -1.570796 0.000000 -1.570796
    49 0.500002 9.999993 0.000002 -1.570796 0.000000 -1.570796
    50 0.000000 0.000005 0.000001 -1.570796 0.000000 -1.570796
    51 0.000001 0.000003 -0.500010 -1.570796 0.000000 -1.570796
    52 -0.000001 0.000000 -0.000002 -1.570796 0.000000 0.000000
    53 0.000000 0.000000 0.000000 -1.570797 0.000000 0.000000
    54 0.000001 0.000000 0.000000 -1.570796 0.000000 0.000000
    55 0.000000 0.000000 0.000002 -1.570796 0.000000 0.000000
    56 -0.000003 0.000000 0.000001 -1.570796 0.000000 0.000000
    57 0.000000 0.000000 0.000000 -1.570796 0.000000 0.000000
    58 0.000000 0.000000 -0.000002 -1.570796 0.000000 0.000000
    59 0.000000 0.000000 0.000001 -1.570796 0.000000 0.000000
    60 -0.000003 0.000000 0.000000 -1.570796 0.000000 0.000000
    61 -0.000001 0.000000 0.000000 -1.570796 0.000000 0.000000
    62 0.000000 0.000000 0.000000 -1.570796 0.000001 0.000000
    63 0.000000 0.000000 0.000000 -1.570796 0.000001 0.000000
    64 0.000000 0.000000 0.000001 3.141593 0.000000 0.000000
    65 0.000000 0.000000 0.000000 3.141593 0.000000 0.000000
    66 0.000001 -0.000001 0.000002 3.141592 0.000000 0.000000
    67 0.000000 10.000002 -0.000005 -1.570796 0.000000 -1.570796
    68 0.000000 10.000002 -0.000005 -1.570796 0.000000 -1.570796
    69 0.000000 0.000005 -0.000003 -1.570796 0.000000 -1.570796
    70 -0.000002 0.000006 -0.500010 -1.570796 0.000000 -1.570796
    71 -0.000004 0.000000 -0.000002 -1.570796 0.000000 0.000000
    72 0.000000 0.000000 0.000000 -1.570796 0.000000 0.000000
    73 0.000000 0.000000 0.000000 -1.570796 0.000000 0.000000
    74 -0.000002 0.000000 0.000000 -1.570796 0.000000 0.000000
    75 0.000002 0.000000 0.000000 -1.570796 0.000000 0.000000
    76 0.000006 0.000000 0.000000 -1.570796 0.000000 0.000000
    77 0.000001 0.000000 0.000000 -1.570796 0.000000 0.000000
    78 0.000000 0.000000 0.000000 -1.570796 0.000000 0.000000
    79 0.000003 0.000000 0.000000 -1.570796 0.000000 0.000000
    80 0.000000 0.000000 0.000000 -1.570796 0.000000 0.000000
    81 0.000002 0.000000 -0.000001 -1.570796 0.000000 0.000000
    82 0.000000 0.000000 0.000000 -1.570796 0.000000 0.000000
    83 0.000000 0.000000 -0.000003 0.000000 0.000000 0.000000
    84 0.000000 0.000000 0.000000 0.000000 0.000000 0.000000
    85 0.000000 0.000001 -0.000001 0.000000 0.000000 0.000000
end
