// Created by Crowbar 0.74
version 1
nodes
  0 "root" -1
  1 "Bone01" 0
  2 "Bone_Lefthand" 1
  3 "Bone13" 2
  4 "Bone14" 3
  5 "Bone15" 4
  6 "ValveBiped.Bip01_L_Finger32" 5
  7 "ValveBiped.Bip01_L_Finger31" 4
  8 "ValveBiped.Bip01_L_Finger3" 3
  9 "Bone17" 2
  10 "Bone18" 9
  11 "Bone19" 10
  12 "ValveBiped.Bip01_L_Finger22" 11
  13 "ValveBiped.Bip01_L_Finger21" 10
  14 "ValveBiped.Bip01_L_Finger2" 9
  15 "Bone21" 2
  16 "Bone22" 15
  17 "Bone23" 16
  18 "ValveBiped.Bip01_L_Finger12" 17
  19 "ValveBiped.Bip01_L_Finger11" 16
  20 "ValveBiped.Bip01_L_Finger1" 15
  21 "Bone09" 2
  22 "Bone10" 21
  23 "Bone11" 22
  24 "ValveBiped.Bip01_L_Finger42" 23
  25 "ValveBiped.Bip01_L_Finger41" 22
  26 "ValveBiped.Bip01_L_Finger4" 21
  27 "Bone05" 2
  28 "Bone06" 27
  29 "Bone07" 28
  30 "ValveBiped.Bip01_L_Finger02" 29
  31 "ValveBiped.Bip01_L_Finger01" 28
  32 "ValveBiped.Bip01_L_Finger0" 27
  33 "ValveBiped.Bip01_L_Hand" 2
  34 "Bone_L_Upper" 1
  35 "ValveBiped.Bip01_L_UpperArm" 34
  36 "ValveBiped.Bip01_L_Forearm" 1
  37 "Bone04" 0
  38 "Bone_Righthand" 37
  39 "Bone39" 38
  40 "Bone40" 39
  41 "Bone41" 40
  42 "ValveBiped.Bip01_R_Finger32" 41
  43 "ValveBiped.Bip01_R_Finger31" 40
  44 "ValveBiped.Bip01_R_Finger3" 39
  45 "Bone35" 38
  46 "Bone36" 45
  47 "Bone37" 46
  48 "ValveBiped.Bip01_R_Finger22" 47
  49 "ValveBiped.Bip01_R_Finger21" 46
  50 "ValveBiped.Bip01_R_Finger2" 45
  51 "Bone31" 38
  52 "Bone32" 51
  53 "Bone33" 52
  54 "ValveBiped.Bip01_R_Finger12" 53
  55 "ValveBiped.Bip01_R_Finger11" 52
  56 "ValveBiped.Bip01_R_Finger1" 51
  57 "Bone43" 38
  58 "Bone44" 57
  59 "Bone45" 58
  60 "ValveBiped.Bip01_R_Finger42" 59
  61 "ValveBiped.Bip01_R_Finger41" 58
  62 "ValveBiped.Bip01_R_Finger4" 57
  63 "Bone27" 38
  64 "Bone28" 63
  65 "Bone29" 64
  66 "ValveBiped.Bip01_R_Finger02" 65
  67 "ValveBiped.Bip01_R_Finger01" 64
  68 "ValveBiped.Bip01_R_Finger0" 63
  69 "ValveBiped.Bip01_R_Hand" 38
  70 "Bone_R_Upper" 37
  71 "ValveBiped.Bip01_R_UpperArm" 70
  72 "ValveBiped.Bip01_R_Forearm" 37
  73 "Bone_Se_Hand-L" 2
  74 "Bone_Se_Hand-R" 38
  75 "Bone25" 2
  76 "Bone54" 2
  77 "Bone52" 2
  78 "Bone50" 2
  79 "Bone56" 2
  80 "Bone48" 2
end
skeleton
  time 0
    0 1.629157 0.000000 0.541027 0.000000 0.000000 -1.570796
    1 -3.453125 9.382813 -10.664063 -0.538945 -1.241284 1.882319
    2 0.000000 -10.703125 0.000000 0.344681 -0.091155 -0.140419
    3 -0.652344 -3.630859 -0.348389 -1.107361 -0.060909 -0.152581
    4 -0.013245 -1.509766 0.000000 -1.179837 0.000000 0.000000
    5 0.000000 -0.953613 -0.000001 -1.228718 0.000000 0.000000
    6 0.007988 0.172186 -0.118553 -1.598091 -0.216549 -1.570593
    7 0.080660 0.135929 -0.203919 -1.506824 -0.066185 -1.662786
    8 0.117288 -0.155554 -0.604544 -1.412988 -0.374558 -1.569222
    9 0.128052 -3.763672 -0.348389 -0.873865 -0.036146 -0.178589
    10 0.000000 -1.561523 0.000004 -1.223469 0.000000 0.000000
    11 0.000001 -1.165039 -0.000001 -1.567299 0.000000 0.000000
    12 -0.018589 0.129951 -0.123721 -1.294580 0.001302 -1.635383
    13 -0.006160 0.170065 -0.110169 -1.280084 -0.068681 -1.597215
    14 0.047100 -0.104074 -0.352264 -1.243368 -0.257298 -1.694346
    15 0.949219 -3.619141 -0.348389 -0.197224 0.000005 0.130897
    16 -0.015404 -1.600586 -0.000003 -0.589916 0.000000 0.000000
    17 -0.002121 -0.935547 0.000000 -0.593414 0.000000 0.000000
    18 -0.022325 0.045425 -0.038284 -1.125544 -0.129230 -1.681412
    19 -0.042901 -0.061274 -0.071212 -1.124462 -0.060454 -1.586099
    20 0.063741 -0.109104 -0.248158 -1.142813 -0.125805 -1.693583
    21 -1.407227 -3.248047 -0.348389 -1.174580 -0.118739 -0.146522
    22 0.013451 -1.204102 0.000004 -0.977389 0.000000 0.000000
    23 -0.013008 -0.789551 0.000000 -1.034973 0.000000 0.000000
    24 -0.011720 0.093267 0.017949 -1.687855 -0.079155 -1.575164
    25 0.048864 -0.085541 0.028626 -1.715605 -0.034569 -1.653190
    26 0.173918 -0.198414 -0.336163 -1.668104 -0.422317 -1.710956
    27 0.438721 -0.485596 0.397461 0.458009 -0.443930 -1.167629
    28 2.355469 0.016083 0.000000 -0.304010 -0.029872 -0.496328
    29 1.251953 -0.000336 0.000000 0.000000 0.000000 -0.577698
    30 -0.267709 0.037512 -0.093907 2.913812 -0.143386 0.078467
    31 -0.029266 0.205410 -0.329287 2.788574 -0.255486 -0.188917
    32 0.204373 0.521055 -0.268577 2.886669 0.042206 -0.230367
    33 0.195697 -0.010059 -0.293538 -1.333586 0.150863 -1.672749
    34 1.257181 8.762590 -0.153713 -1.570562 0.002683 -1.566808
    35 -0.093500 -0.114213 -0.738866 -1.570842 0.061811 0.002096
    36 0.010843 0.093623 -0.081439 -3.141462 0.041719 -1.568236
    37 13.109375 -1.277344 -14.312500 -0.788909 0.255059 2.219541
    38 0.112366 -10.671875 0.000002 0.728138 -0.453677 0.233294
    39 0.555176 -3.650391 -0.346924 -1.167280 -0.027242 -0.041096
    40 0.026260 -1.509766 0.000000 -0.411797 0.000000 0.000000
    41 0.013245 -0.926758 0.000006 -0.645665 0.000000 0.000000
    42 0.006928 0.005327 -0.181358 -1.528500 -0.248579 -1.611362
    43 -0.052313 0.038588 -0.230758 -1.592493 -0.043415 -1.528515
    44 -0.232600 -0.209658 -0.420670 -1.713790 -0.167173 -1.438930
    45 -0.212769 -3.744141 -0.346680 -1.211527 0.000000 0.000000
    46 0.013245 -1.575195 0.000000 -0.357796 0.000000 0.000000
    47 0.000004 -1.178711 0.000004 -0.532325 0.000000 0.000000
    48 -0.038065 0.069166 -0.159882 -1.816986 0.066178 -1.575392
    49 -0.025151 0.088760 -0.068837 -1.817843 0.044510 -1.568287
    50 -0.102916 -0.186983 -0.272246 -1.833683 -0.232962 -1.472375
    51 -1.034180 -3.582031 -0.346924 -0.988292 0.000000 0.000000
    52 0.000000 -1.616211 0.000004 -0.418875 0.000000 0.000000
    53 -0.000002 -0.940430 0.000000 -0.643929 0.000000 0.000000
    54 -0.004241 0.043707 -0.080202 -2.014997 -0.186996 -1.460723
    55 0.015383 -0.089136 -0.030009 -2.006083 0.036346 -1.568629
    56 -0.022610 -0.212358 -0.177904 -1.933161 -0.118801 -1.518895
    57 1.308594 -3.226563 -0.346924 -0.953501 -0.047571 -0.066286
    58 -0.000005 -1.245117 -0.000004 -0.544200 0.000000 0.000000
    59 0.000001 -0.767578 -0.000002 -0.490671 0.000000 0.000000
    60 -0.067138 0.063251 -0.010961 -0.899214 -0.014515 -1.600326
    61 -0.151180 -0.007395 -0.070065 -0.913061 -0.118819 -1.408558
    62 -0.178164 -0.244680 -0.357067 -1.159916 -0.384260 -1.556110
    63 -0.384766 -0.459229 0.383789 -0.129776 -0.511431 -2.796746
    64 2.472656 0.024429 0.000003 -0.103305 -0.017125 0.386147
    65 1.227539 0.003979 0.000000 0.000070 -0.348631 0.299753
    66 -0.263408 -0.117640 -0.015657 0.000036 -0.082210 -0.026800
    67 0.007707 -0.334360 -0.191576 0.070788 -0.181563 0.282364
    68 0.225562 -0.567923 -0.420715 0.119895 -0.183798 0.223460
    69 -0.203683 -0.095654 -0.328304 -1.745077 0.075142 -1.515382
    70 -1.393460 8.839182 -0.239440 1.580804 -0.005024 -1.566848
    71 0.036020 0.082814 -0.692656 -1.570769 0.065989 0.001276
    72 -0.088586 0.054019 -0.088595 0.010231 0.033800 -1.560851
    73 0.120153 -0.050270 -0.054489 -2.854024 0.030688 -1.580508
    74 -0.139399 -0.111692 0.014400 0.285395 -0.031353 1.580313
    75 1.815922 -4.953960 0.956709 -1.247037 1.437608 -1.233843
    76 1.280673 -7.522364 1.257767 -1.247037 1.437608 -1.233843
    77 3.914122 -5.194223 1.336679 -1.102199 1.470090 -1.123171
    78 3.733238 -6.026484 1.177255 -1.247037 1.437608 -1.233843
    79 2.572266 -6.878906 2.244141 -0.148869 -1.070097 0.151249
    80 3.797684 -22.610472 3.277112 -1.247037 1.437608 -1.233843
  time 1
    0 1.629157 0.000000 0.541027 0.000000 0.000000 -1.570796
    1 -3.453125 9.382813 -10.664063 -0.538945 -1.241284 1.882319
    2 0.000000 -10.703125 0.000000 0.344681 -0.091155 -0.140419
    3 -0.652344 -3.630859 -0.348389 -1.107361 -0.060909 -0.152581
    4 -0.013245 -1.509766 0.000000 -1.179837 0.000000 0.000000
    5 0.000000 -0.953613 -0.000001 -1.228718 0.000000 0.000000
    6 0.007988 0.172186 -0.118553 -1.598091 -0.216549 -1.570593
    7 0.080660 0.135929 -0.203919 -1.506824 -0.066185 -1.662786
    8 0.117288 -0.155554 -0.604544 -1.412988 -0.374558 -1.569222
    9 0.128052 -3.763672 -0.348389 -0.873865 -0.036146 -0.178589
    10 0.000000 -1.561523 0.000004 -1.223469 0.000000 0.000000
    11 0.000001 -1.165039 -0.000001 -1.567299 0.000000 0.000000
    12 -0.018589 0.129951 -0.123721 -1.294580 0.001302 -1.635383
    13 -0.006160 0.170065 -0.110169 -1.280084 -0.068681 -1.597215
    14 0.047100 -0.104074 -0.352264 -1.243368 -0.257298 -1.694346
    15 0.949219 -3.619141 -0.348389 -0.197224 0.000005 0.130897
    16 -0.015404 -1.600586 -0.000003 -0.589916 0.000000 0.000000
    17 -0.002121 -0.935547 0.000000 -0.593414 0.000000 0.000000
    18 -0.022325 0.045425 -0.038284 -1.125544 -0.129230 -1.681412
    19 -0.042901 -0.061274 -0.071212 -1.124462 -0.060454 -1.586099
    20 0.063741 -0.109104 -0.248158 -1.142813 -0.125805 -1.693583
    21 -1.407227 -3.248047 -0.348389 -1.174580 -0.118739 -0.146522
    22 0.013451 -1.204102 0.000004 -0.977389 0.000000 0.000000
    23 -0.013008 -0.789551 0.000000 -1.034973 0.000000 0.000000
    24 -0.011720 0.093267 0.017949 -1.687855 -0.079155 -1.575164
    25 0.048864 -0.085541 0.028626 -1.715605 -0.034569 -1.653190
    26 0.173918 -0.198414 -0.336163 -1.668104 -0.422317 -1.710956
    27 0.438721 -0.485596 0.397461 0.458009 -0.443930 -1.167629
    28 2.355469 0.016083 0.000000 -0.304010 -0.029872 -0.496328
    29 1.251953 -0.000336 0.000000 0.000000 0.000000 -0.577698
    30 -0.267709 0.037512 -0.093907 2.913812 -0.143386 0.078467
    31 -0.029266 0.205410 -0.329287 2.788574 -0.255486 -0.188917
    32 0.204373 0.521055 -0.268577 2.886669 0.042206 -0.230367
    33 0.195697 -0.010059 -0.293538 -1.333586 0.150863 -1.672749
    34 1.257181 8.762590 -0.153713 -1.570562 0.002683 -1.566808
    35 -0.093500 -0.114213 -0.738866 -1.570842 0.061811 0.002096
    36 0.010843 0.093623 -0.081439 -3.141462 0.041719 -1.568236
    37 13.109375 -1.277344 -14.312500 -0.788909 0.255059 2.219541
    38 0.112366 -10.671875 0.000002 0.728138 -0.453677 0.233294
    39 0.555176 -3.650391 -0.346924 -1.167280 -0.027242 -0.041096
    40 0.026260 -1.509766 0.000000 -0.411797 0.000000 0.000000
    41 0.013245 -0.926758 0.000006 -0.645665 0.000000 0.000000
    42 0.006928 0.005327 -0.181358 -1.528500 -0.248579 -1.611362
    43 -0.052313 0.038588 -0.230758 -1.592493 -0.043415 -1.528515
    44 -0.232600 -0.209658 -0.420670 -1.713790 -0.167173 -1.438930
    45 -0.212769 -3.744141 -0.346680 -1.211527 0.000000 0.000000
    46 0.013245 -1.575195 0.000000 -0.357796 0.000000 0.000000
    47 0.000004 -1.178711 0.000004 -0.532325 0.000000 0.000000
    48 -0.038065 0.069166 -0.159882 -1.816986 0.066178 -1.575392
    49 -0.025151 0.088760 -0.068837 -1.817843 0.044510 -1.568287
    50 -0.102916 -0.186983 -0.272246 -1.833683 -0.232962 -1.472375
    51 -1.034180 -3.582031 -0.346924 -0.988292 0.000000 0.000000
    52 0.000000 -1.616211 0.000004 -0.418875 0.000000 0.000000
    53 -0.000002 -0.940430 0.000000 -0.643929 0.000000 0.000000
    54 -0.004241 0.043707 -0.080202 -2.014997 -0.186996 -1.460723
    55 0.015383 -0.089136 -0.030009 -2.006083 0.036346 -1.568629
    56 -0.022610 -0.212358 -0.177904 -1.933161 -0.118801 -1.518895
    57 1.308594 -3.226563 -0.346924 -0.953501 -0.047571 -0.066286
    58 -0.000005 -1.245117 -0.000004 -0.544200 0.000000 0.000000
    59 0.000001 -0.767578 -0.000002 -0.490671 0.000000 0.000000
    60 -0.067138 0.063251 -0.010961 -0.899214 -0.014515 -1.600326
    61 -0.151180 -0.007395 -0.070065 -0.913061 -0.118819 -1.408558
    62 -0.178164 -0.244680 -0.357067 -1.159916 -0.384260 -1.556110
    63 -0.384766 -0.459229 0.383789 -0.129776 -0.511431 -2.796746
    64 2.472656 0.024429 0.000003 -0.103305 -0.017125 0.386147
    65 1.227539 0.003979 0.000000 0.000070 -0.348631 0.299753
    66 -0.263408 -0.117640 -0.015657 0.000036 -0.082210 -0.026800
    67 0.007707 -0.334360 -0.191576 0.070788 -0.181563 0.282364
    68 0.225562 -0.567923 -0.420715 0.119895 -0.183798 0.223460
    69 -0.203683 -0.095654 -0.328304 -1.745077 0.075142 -1.515382
    70 -1.393460 8.839182 -0.239440 1.580804 -0.005024 -1.566848
    71 0.036020 0.082814 -0.692656 -1.570769 0.065989 0.001276
    72 -0.088586 0.054019 -0.088595 0.010231 0.033800 -1.560851
    73 0.120153 -0.050270 -0.054489 -2.854024 0.030688 -1.580508
    74 -0.139399 -0.111692 0.014400 0.285395 -0.031353 1.580313
    75 1.815922 -4.953960 0.956709 -1.247037 1.437608 -1.233843
    76 1.280673 -7.522364 1.257767 -1.247037 1.437608 -1.233843
    77 3.914122 -5.194223 1.336679 -1.102199 1.470090 -1.123171
    78 3.733238 -6.026484 1.177255 -1.247037 1.437608 -1.233843
    79 2.572266 -6.878906 2.244141 -0.148869 -1.070097 0.151249
    80 3.797684 -22.610472 3.277112 -1.247037 1.437608 -1.233843
end
