// Created by Crowbar 0.74
version 1
nodes
  0 "ValveBiped.Bip01_Pelvis" -1
  1 "ValveBiped.Bip01_L_Thigh" 0
  2 "ValveBiped.Bip01_L_Calf" 1
  3 "ValveBiped.Bip01_L_Foot" 2
  4 "ValveBiped.Bip01_L_Toe0" 3
  5 "ValveBiped.Bip01_R_Thigh" 0
  6 "ValveBiped.Bip01_R_Calf" 5
  7 "ValveBiped.Bip01_R_Foot" 6
  8 "ValveBiped.Bip01_R_Toe0" 7
  9 "ValveBiped.Bip01_Spine" 0
  10 "ValveBiped.Bip01_Spine1" 9
  11 "ValveBiped.Bip01_Spine2" 10
  12 "ValveBiped.Bip01_Spine4" 11
  13 "ValveBiped.Bip01_Neck1" 12
  14 "ValveBiped.Bip01_Head1" 13
  15 "ValveBiped.Bip01_L_Clavicle" 12
  16 "ValveBiped.Bip01_L_UpperArm" 15
  17 "ValveBiped.Bip01_L_Forearm" 16
  18 "ValveBiped.Bip01_L_Hand" 17
  19 "ValveBiped.Bip01_L_Finger2" 18
  20 "ValveBiped.Bip01_L_Finger21" 19
  21 "ValveBiped.Bip01_L_Finger22" 20
  22 "ValveBiped.Bip01_L_Finger1" 18
  23 "ValveBiped.Bip01_L_Finger11" 22
  24 "ValveBiped.Bip01_L_Finger12" 23
  25 "ValveBiped.Bip01_L_Finger0" 18
  26 "ValveBiped.Bip01_L_Finger01" 25
  27 "ValveBiped.Bip01_L_Finger02" 26
  28 "ValveBiped.Bip01_R_Clavicle" 12
  29 "ValveBiped.Bip01_R_UpperArm" 28
  30 "ValveBiped.Bip01_R_Forearm" 29
  31 "ValveBiped.Bip01_R_Hand" 30
  32 "ValveBiped.Bip01_R_Finger2" 31
  33 "ValveBiped.Bip01_R_Finger21" 32
  34 "ValveBiped.Bip01_R_Finger22" 33
  35 "ValveBiped.Bip01_R_Finger1" 31
  36 "ValveBiped.Bip01_R_Finger11" 35
  37 "ValveBiped.Bip01_R_Finger12" 36
  38 "ValveBiped.Bip01_R_Finger0" 31
  39 "ValveBiped.Bip01_R_Finger01" 38
  40 "ValveBiped.Bip01_R_Finger02" 39
  41 "ValveBiped.Bip01_R_Wrist" 30
  42 "ValveBiped.Bip01_L_Wrist" 17
  43 "ValveBiped.Bip01_L_Ulna" 17
  44 "ValveBiped.Bip01_R_Ulna" 30
  45 "ValveBiped.weapon_bone" 9
  46 "ValveBiped.weapon_bone_RHand" 45
  47 "ValveBiped.weapon_bone_LHand" 46
  48 "ValveBiped.weapon_bone_Clip" 47
  49 "ValveBiped.forward" 14
end
skeleton
  time 0
    0 0.000000 -0.554942 40.109589 1.570796 0.000000 0.000000
    1 4.046065 0.000000 0.000000 -1.570425 0.051839 -1.565580
    2 18.562113 0.000000 0.000000 0.000000 0.000000 0.034200
    3 17.186249 0.000000 0.000000 -0.023996 -0.041104 -1.071631
    4 7.154627 0.000000 0.000001 -0.009979 -0.005353 -0.584358
    5 -4.046065 0.000000 0.000000 -1.571010 0.051839 -1.576015
    6 18.562090 0.000000 0.000000 0.000000 0.000000 0.034200
    7 17.186247 0.000000 0.000000 0.042340 0.040968 -1.071635
    8 7.154630 0.000000 0.000000 -0.084358 -0.004949 -0.584361
    9 0.000000 3.478935 -3.101174 1.570796 0.083193 1.570796
    10 4.155655 0.000000 0.000000 0.000000 0.000000 -0.028816
    11 3.661129 0.000000 0.000000 0.000000 0.000000 0.097307
    12 9.278336 0.000000 0.000000 0.000000 0.000000 0.186413
    13 3.438606 -0.000001 0.000000 3.141590 0.000000 0.406109
    14 3.746082 0.000000 0.000000 0.000000 -0.000001 0.405033
    15 2.141911 1.017039 2.015167 1.589740 -1.286515 2.950147
    16 6.269266 0.000000 0.000000 -1.437168 0.051344 -0.580810
    17 12.160242 0.000001 0.000008 0.000000 0.000000 -0.060372
    18 11.940941 -0.000001 -0.000031 1.568292 -0.038709 0.036022
    19 4.036621 0.223289 0.416267 0.087707 0.031641 -0.519952
    20 1.788361 -0.000008 -0.000002 0.000000 0.005005 -0.366486
    21 1.257549 0.000002 -0.000001 0.000000 0.002798 -0.216403
    22 4.026138 0.122124 1.352942 0.352467 -0.032975 -0.463848
    23 1.788210 0.000002 0.000002 0.000001 0.005107 -0.362997
    24 1.143646 0.000004 0.000000 0.000001 0.003256 -0.244323
    25 0.872383 -0.312286 1.365287 -1.251009 -0.669800 -0.720133
    26 1.861385 -0.000003 -0.000002 0.000000 -0.002159 0.228630
    27 1.255283 -0.000001 -0.000006 0.000000 -0.003300 0.363014
    28 2.141914 1.017039 -2.015167 -1.661569 1.286515 2.950147
    29 6.269262 0.000011 0.000000 1.520804 -0.011906 -0.583413
    30 12.160252 0.000001 -0.000008 0.000000 0.000000 -0.060372
    31 11.940960 0.000000 0.000000 -1.559993 0.038701 0.036022
    32 4.036597 0.219810 -0.418107 -0.087717 -0.035763 -0.519701
    33 1.788357 0.000000 0.000000 0.000000 -0.007584 -0.366444
    34 1.257545 -0.000002 0.000000 0.000000 -0.004241 -0.216381
    35 4.026107 0.110886 -1.353903 -0.352486 0.029262 -0.464071
    36 1.788195 -0.000004 0.000000 0.000000 -0.007737 -0.362954
    37 1.143646 0.000002 -0.000002 0.000000 -0.004929 -0.244296
    38 0.872357 -0.323635 -1.362646 1.248034 0.664310 -0.725027
    39 1.861374 0.000001 0.000004 0.000000 0.003280 0.228617
    40 1.255280 0.000001 0.000004 0.000000 0.005011 0.362995
    41 11.940960 0.000000 0.000000 0.008510 0.000000 0.000000
    42 11.940964 -0.000003 0.000004 -0.001005 0.000000 0.000000
    43 5.970486 -0.000001 0.000004 -0.000544 0.000000 0.000000
    44 5.970478 0.000000 0.000004 0.004600 0.000000 0.000000
    45 -43.648499 -1.081625 0.000030 0.000000 -1.570796 -1.487604
    46 -2.000000 4.000000 -2.354678 3.038658 0.018233 -2.311713
    47 -3.606653 -3.344002 -2.883345 -3.015749 0.086838 -1.481232
    48 0.000000 0.000000 0.000000 0.000000 0.000000 0.000000
    49 2.000008 -3.000002 0.000000 -1.570796 0.000000 -1.326450
end
triangles
body
  17 23.461222 3.902660 43.122749 0.892737 0.449642 -0.029031 0.152870 0.986339 1 17 1.000000
  17 21.631020 3.957432 41.875534 0.893624 0.447843 -0.029538 0.190107 1.000000 1 17 1.000000
  17 22.657829 4.213145 42.755085 0.892717 0.449681 -0.029020 0.168548 0.986339 1 17 1.000000
body
  17 19.190746 1.766053 41.185410 0.044533 -0.905977 -0.420978 0.219505 0.527727 1 17 1.000000
  17 20.543137 0.239828 44.381065 0.044539 -0.905987 -0.420956 0.184227 0.603836 1 17 1.000000
  17 18.288280 1.702897 42.658920 -0.006788 -0.895923 -0.444157 0.186187 0.525775 1 17 1.000000
body
  17 21.726158 0.422271 42.846596 0.095728 -0.913082 -0.396379 0.221464 0.613594 1 17 1.000000
  17 20.543137 0.239828 44.381065 0.044539 -0.905987 -0.420956 0.184227 0.603836 1 17 1.000000
  17 19.190746 1.766053 41.185410 0.044533 -0.905977 -0.420978 0.219505 0.527727 1 17 1.000000
body
  25 23.920002 -1.310449 37.882870 0.704296 0.377639 -0.601129 0.295939 0.635062 1 25 1.000000
  25 24.671862 -1.575981 38.382950 0.857574 0.120762 0.499983 0.301819 0.633110 1 25 1.000000
  25 24.286591 -1.925189 37.977036 0.900307 -0.388637 -0.195979 0.301819 0.644819 1 25 1.000000
body
  25 23.920002 -1.310449 37.882870 0.704296 0.377639 -0.601129 0.295939 0.635062 1 25 1.000000
  25 23.992289 -0.317404 39.100075 0.768402 0.638886 0.037188 0.307699 0.609691 1 25 1.000000
  25 24.671862 -1.575981 38.382950 0.857574 0.120762 0.499983 0.301819 0.633110 1 25 1.000000
body
  18 24.561777 0.370328 40.104237 0.763532 0.013174 -0.645635 0.309658 0.594079 1 18 1.000000
  18 24.459797 -0.144470 39.947365 0.984963 0.021804 0.171386 0.315538 0.597983 1 18 1.000000
  25 23.837486 0.426112 39.796318 0.609562 0.541993 -0.578513 0.301819 0.601885 1 25 1.000000
body
  18 24.459797 -0.144470 39.947365 0.984963 0.021804 0.171386 0.315538 0.597983 1 18 1.000000
  25 23.992289 -0.317404 39.100075 0.768402 0.638886 0.037188 0.307699 0.609691 1 25 1.000000
  25 23.837486 0.426112 39.796318 0.609562 0.541993 -0.578513 0.301819 0.601885 1 25 1.000000
body
  25 23.992289 -0.317404 39.100075 0.768402 0.638886 0.037188 0.307699 0.609691 1 25 1.000000
  18 24.459797 -0.144470 39.947365 0.984963 0.021804 0.171386 0.315538 0.597983 1 18 1.000000
  25 24.431213 -1.128327 39.791080 0.458840 -0.291618 0.839300 0.321418 0.615546 1 25 1.000000
body
  25 24.671862 -1.575981 38.382950 0.857574 0.120762 0.499983 0.301819 0.633110 1 25 1.000000
  25 23.992289 -0.317404 39.100075 0.768402 0.638886 0.037188 0.307699 0.609691 1 25 1.000000
  25 24.431213 -1.128327 39.791080 0.458840 -0.291618 0.839300 0.321418 0.615546 1 25 1.000000
body
  25 24.671862 -1.575981 38.382950 0.857574 0.120762 0.499983 0.301819 0.633110 1 25 1.000000
  25 24.431213 -1.128327 39.791080 0.458840 -0.291618 0.839300 0.321418 0.615546 1 25 1.000000
  25 24.361801 -2.229991 38.421886 0.291613 -0.860029 0.418703 0.309658 0.644819 1 25 1.000000
body
  25 24.286591 -1.925189 37.977036 0.900307 -0.388637 -0.195979 0.301819 0.644819 1 25 1.000000
  25 24.671862 -1.575981 38.382950 0.857574 0.120762 0.499983 0.301819 0.633110 1 25 1.000000
  25 24.361801 -2.229991 38.421886 0.291613 -0.860029 0.418703 0.309658 0.644819 1 25 1.000000
body
  25 23.723175 -2.083654 38.152081 -0.061378 -0.644853 -0.761838 0.313578 0.650674 1 25 1.000000
  25 24.286591 -1.925189 37.977036 0.900307 -0.388637 -0.195979 0.301819 0.644819 1 25 1.000000
  25 24.361801 -2.229991 38.421886 0.291613 -0.860029 0.418703 0.309658 0.644819 1 25 1.000000
body
  25 24.361801 -2.229991 38.421886 0.291613 -0.860029 0.418703 0.309658 0.644819 1 25 1.000000
  18 23.601181 -1.164739 40.552483 -0.446240 -0.856983 0.257779 0.339057 0.609691 1 18 1.000000
  25 23.723175 -2.083654 38.152081 -0.061378 -0.644853 -0.761838 0.313578 0.650674 1 25 1.000000
body
  25 23.723175 -2.083654 38.152081 -0.061378 -0.644853 -0.761838 0.313578 0.650674 1 25 1.000000
  18 23.601181 -1.164739 40.552483 -0.446240 -0.856983 0.257779 0.339057 0.609691 1 18 1.000000
  18 22.820202 -0.825705 40.220261 -0.534670 -0.554404 -0.637780 0.342976 0.615546 1 18 1.000000
body
  18 23.601181 -1.164739 40.552483 -0.446240 -0.856983 0.257779 0.339057 0.609691 1 18 1.000000
  18 22.902893 -0.476344 41.137779 -0.639045 -0.768503 0.032008 0.346896 0.596030 1 18 1.000000
  18 22.820202 -0.825705 40.220261 -0.534670 -0.554404 -0.637780 0.342976 0.615546 1 18 1.000000
body
  18 23.601181 -1.164739 40.552483 -0.446240 -0.856983 0.257779 0.339057 0.609691 1 18 1.000000
  18 24.435400 -0.462518 41.022038 -0.080297 -0.800148 0.594403 0.335136 0.594079 1 18 1.000000
  18 22.902893 -0.476344 41.137779 -0.639045 -0.768503 0.032008 0.346896 0.596030 1 18 1.000000
body
  18 24.435400 -0.462518 41.022038 -0.080297 -0.800148 0.594403 0.335136 0.594079 1 18 1.000000
  17 24.029951 0.975115 43.111599 0.022362 -0.532482 0.846146 0.356695 0.553096 1 17 1.000000
  18 22.902893 -0.476344 41.137779 -0.639045 -0.768503 0.032008 0.346896 0.596030 1 18 1.000000
body
  18 24.435400 -0.462518 41.022038 -0.080297 -0.800148 0.594403 0.335136 0.594079 1 18 1.000000
  22 26.110497 -0.020661 40.086861 0.195502 -0.865548 0.461093 0.315538 0.582370 1 22 1.000000
  17 24.029951 0.975115 43.111599 0.022362 -0.532482 0.846146 0.356695 0.553096 1 17 1.000000
body
  22 26.110497 -0.020661 40.086861 0.195502 -0.865548 0.461093 0.315538 0.582370 1 22 1.000000
  22 26.509592 1.234947 40.087315 0.031280 -0.113926 0.992997 0.293980 0.568709 1 22 1.000000
  17 24.029951 0.975115 43.111599 0.022362 -0.532482 0.846146 0.356695 0.553096 1 17 1.000000
body
  22 27.080105 0.547363 38.209595 0.257824 -0.177101 0.949822 0.282220 0.590176 1 22 1.000000
  22 26.509592 1.234947 40.087315 0.031280 -0.113926 0.992997 0.293980 0.568709 1 22 1.000000
  22 26.110497 -0.020661 40.086861 0.195502 -0.865548 0.461093 0.315538 0.582370 1 22 1.000000
body
  22 27.080105 0.547363 38.209595 0.257824 -0.177101 0.949822 0.282220 0.590176 1 22 1.000000
  22 26.726994 1.198810 38.541702 0.178415 0.923320 0.340072 0.278301 0.582370 1 22 1.000000
  22 26.509592 1.234947 40.087315 0.031280 -0.113926 0.992997 0.293980 0.568709 1 22 1.000000
body
  22 27.080105 0.547363 38.209595 0.257824 -0.177101 0.949822 0.282220 0.590176 1 22 1.000000
  22 26.877621 1.003460 36.345497 0.618738 0.599023 0.508266 0.243023 0.601885 1 22 1.000000
  22 26.726994 1.198810 38.541702 0.178415 0.923320 0.340072 0.278301 0.582370 1 22 1.000000
body
  22 27.080105 0.547363 38.209595 0.257824 -0.177101 0.949822 0.282220 0.590176 1 22 1.000000
  22 26.628611 0.185855 36.370632 0.586502 -0.719456 0.372019 0.250862 0.615546 1 22 1.000000
  22 26.877621 1.003460 36.345497 0.618738 0.599023 0.508266 0.243023 0.601885 1 22 1.000000
body
  22 26.628611 0.185855 36.370632 0.586502 -0.719456 0.372019 0.250862 0.615546 1 22 1.000000
  22 26.649027 0.601958 36.103355 0.975091 -0.113750 -0.190418 0.243023 0.609691 1 22 1.000000
  22 26.877621 1.003460 36.345497 0.618738 0.599023 0.508266 0.243023 0.601885 1 22 1.000000
body
  22 27.080105 0.547363 38.209595 0.257824 -0.177101 0.949822 0.282220 0.590176 1 22 1.000000
  22 26.666409 0.019926 38.302025 0.091287 -0.993883 -0.062160 0.288099 0.599934 1 22 1.000000
  22 26.628611 0.185855 36.370632 0.586502 -0.719456 0.372019 0.250862 0.615546 1 22 1.000000
body
  22 27.080105 0.547363 38.209595 0.257824 -0.177101 0.949822 0.282220 0.590176 1 22 1.000000
  22 26.110497 -0.020661 40.086861 0.195502 -0.865548 0.461093 0.315538 0.582370 1 22 1.000000
  22 26.666409 0.019926 38.302025 0.091287 -0.993883 -0.062160 0.288099 0.599934 1 22 1.000000
body
  22 26.666409 0.019926 38.302025 0.091287 -0.993883 -0.062160 0.288099 0.599934 1 22 1.000000
  22 26.110497 -0.020661 40.086861 0.195502 -0.865548 0.461093 0.315538 0.582370 1 22 1.000000
  18 25.005659 0.335476 39.864136 0.222090 -0.529055 -0.819009 0.299859 0.599934 1 18 1.000000
body
  18 25.005659 0.335476 39.864136 0.222090 -0.529055 -0.819009 0.299859 0.599934 1 18 1.000000
  22 26.110497 -0.020661 40.086861 0.195502 -0.865548 0.461093 0.315538 0.582370 1 22 1.000000
  18 24.561777 0.370328 40.104237 0.763532 0.013174 -0.645635 0.309658 0.594079 1 18 1.000000
body
  22 26.110497 -0.020661 40.086861 0.195502 -0.865548 0.461093 0.315538 0.582370 1 22 1.000000
  18 24.459797 -0.144470 39.947365 0.984963 0.021804 0.171386 0.315538 0.597983 1 18 1.000000
  18 24.561777 0.370328 40.104237 0.763532 0.013174 -0.645635 0.309658 0.594079 1 18 1.000000
body
  18 24.459797 -0.144470 39.947365 0.984963 0.021804 0.171386 0.315538 0.597983 1 18 1.000000
  22 26.110497 -0.020661 40.086861 0.195502 -0.865548 0.461093 0.315538 0.582370 1 22 1.000000
  18 24.435400 -0.462518 41.022038 -0.080297 -0.800148 0.594403 0.335136 0.594079 1 18 1.000000
body
  25 24.431213 -1.128327 39.791080 0.458840 -0.291618 0.839300 0.321418 0.615546 1 25 1.000000
  18 24.459797 -0.144470 39.947365 0.984963 0.021804 0.171386 0.315538 0.597983 1 18 1.000000
  18 24.435400 -0.462518 41.022038 -0.080297 -0.800148 0.594403 0.335136 0.594079 1 18 1.000000
body
  25 24.431213 -1.128327 39.791080 0.458840 -0.291618 0.839300 0.321418 0.615546 1 25 1.000000
  18 24.435400 -0.462518 41.022038 -0.080297 -0.800148 0.594403 0.335136 0.594079 1 18 1.000000
  18 23.601181 -1.164739 40.552483 -0.446240 -0.856983 0.257779 0.339057 0.609691 1 18 1.000000
body
  25 24.361801 -2.229991 38.421886 0.291613 -0.860029 0.418703 0.309658 0.644819 1 25 1.000000
  25 24.431213 -1.128327 39.791080 0.458840 -0.291618 0.839300 0.321418 0.615546 1 25 1.000000
  18 23.601181 -1.164739 40.552483 -0.446240 -0.856983 0.257779 0.339057 0.609691 1 18 1.000000
body
  18 22.902893 -0.476344 41.137779 -0.639045 -0.768503 0.032008 0.346896 0.596030 1 18 1.000000
  17 24.029951 0.975115 43.111599 0.022362 -0.532482 0.846146 0.356695 0.553096 1 17 1.000000
  17 22.461290 0.369829 42.110180 -0.072055 -0.916881 -0.392603 0.358655 0.572612 1 17 1.000000
body
  22 26.726994 1.198810 38.541702 0.178415 0.923320 0.340072 0.278301 0.582370 1 22 1.000000
  18 24.910694 1.304185 40.005642 0.434509 0.124205 -0.892062 0.272420 0.574564 1 18 1.000000
  22 26.509592 1.234947 40.087315 0.031280 -0.113926 0.992997 0.293980 0.568709 1 22 1.000000
body
  22 26.509592 1.234947 40.087315 0.031280 -0.113926 0.992997 0.293980 0.568709 1 22 1.000000
  18 24.910694 1.304185 40.005642 0.434509 0.124205 -0.892062 0.272420 0.574564 1 18 1.000000
  19 27.406528 1.861809 38.310398 0.402845 -0.890660 0.210809 0.268501 0.568709 1 19 1.000000
body
  19 25.880894 3.741114 41.302338 -0.166262 0.362176 0.917161 0.297899 0.521872 1 19 1.000000
  19 27.613144 2.567479 38.479637 0.028105 -0.094652 0.995114 0.268501 0.558951 1 19 1.000000
  19 27.233118 4.199879 38.792877 0.079776 0.365667 0.927320 0.258702 0.529678 1 19 1.000000
body
  19 27.613144 2.567479 38.479637 0.028105 -0.094652 0.995114 0.268501 0.558951 1 19 1.000000
  19 27.789434 2.734261 37.399044 0.395192 0.061954 0.916507 0.246943 0.562855 1 19 1.000000
  19 27.233118 4.199879 38.792877 0.079776 0.365667 0.927320 0.258702 0.529678 1 19 1.000000
body
  19 27.613144 2.567479 38.479637 0.028105 -0.094652 0.995114 0.268501 0.558951 1 19 1.000000
  19 27.406528 1.861809 38.310398 0.402845 -0.890660 0.210809 0.268501 0.568709 1 19 1.000000
  19 27.789434 2.734261 37.399044 0.395192 0.061954 0.916507 0.246943 0.562855 1 19 1.000000
body
  19 27.406528 1.861809 38.310398 0.402845 -0.890660 0.210809 0.268501 0.568709 1 19 1.000000
  19 27.470535 2.718820 36.201191 0.812948 -0.454256 0.364372 0.229304 0.572612 1 19 1.000000
  19 27.789434 2.734261 37.399044 0.395192 0.061954 0.916507 0.246943 0.562855 1 19 1.000000
body
  22 26.509592 1.234947 40.087315 0.031280 -0.113926 0.992997 0.293980 0.568709 1 22 1.000000
  19 27.406528 1.861809 38.310398 0.402845 -0.890660 0.210809 0.268501 0.568709 1 19 1.000000
  19 27.613144 2.567479 38.479637 0.028105 -0.094652 0.995114 0.268501 0.558951 1 19 1.000000
body
  22 26.509592 1.234947 40.087315 0.031280 -0.113926 0.992997 0.293980 0.568709 1 22 1.000000
  19 27.613144 2.567479 38.479637 0.028105 -0.094652 0.995114 0.268501 0.558951 1 19 1.000000
  19 25.880894 3.741114 41.302338 -0.166262 0.362176 0.917161 0.297899 0.521872 1 19 1.000000
body
  17 24.029951 0.975115 43.111599 0.022362 -0.532482 0.846146 0.356695 0.553096 1 17 1.000000
  22 26.509592 1.234947 40.087315 0.031280 -0.113926 0.992997 0.293980 0.568709 1 22 1.000000
  19 25.880894 3.741114 41.302338 -0.166262 0.362176 0.917161 0.297899 0.521872 1 19 1.000000
body
  19 25.880894 3.741114 41.302338 -0.166262 0.362176 0.917161 0.297899 0.521872 1 19 1.000000
  17 23.982647 2.967912 43.322998 0.187792 0.262369 0.946518 0.344936 0.519921 1 17 1.000000
  17 24.029951 0.975115 43.111599 0.022362 -0.532482 0.846146 0.356695 0.553096 1 17 1.000000
body
  19 25.880894 3.741114 41.302338 -0.166262 0.362176 0.917161 0.297899 0.521872 1 19 1.000000
  17 23.461222 3.902660 43.122749 0.141784 0.847242 0.511935 0.335136 0.508211 1 17 1.000000
  17 23.982647 2.967912 43.322998 0.187792 0.262369 0.946518 0.344936 0.519921 1 17 1.000000
body
  19 25.880894 3.741114 41.302338 -0.166262 0.362176 0.917161 0.297899 0.521872 1 19 1.000000
  18 24.423094 4.233440 40.871490 0.117772 0.874547 -0.470422 0.284180 0.510163 1 18 1.000000
  17 23.461222 3.902660 43.122749 0.141784 0.847242 0.511935 0.335136 0.508211 1 17 1.000000
body
  19 25.880894 3.741114 41.302338 -0.166262 0.362176 0.917161 0.297899 0.521872 1 19 1.000000
  19 26.865894 4.485520 39.239349 -0.100131 0.970840 0.217813 0.256742 0.521872 1 19 1.000000
  18 24.423094 4.233440 40.871490 0.117772 0.874547 -0.470422 0.284180 0.510163 1 18 1.000000
body
  19 25.880894 3.741114 41.302338 -0.166262 0.362176 0.917161 0.297899 0.521872 1 19 1.000000
  19 27.233118 4.199879 38.792877 0.079776 0.365667 0.927320 0.258702 0.529678 1 19 1.000000
  19 26.865894 4.485520 39.239349 -0.100131 0.970840 0.217813 0.256742 0.521872 1 19 1.000000
body
  19 27.158266 4.640939 37.030357 0.376913 0.848275 0.371976 0.223424 0.535532 1 19 1.000000
  19 26.865894 4.485520 39.239349 -0.100131 0.970840 0.217813 0.256742 0.521872 1 19 1.000000
  19 27.233118 4.199879 38.792877 0.079776 0.365667 0.927320 0.258702 0.529678 1 19 1.000000
body
  19 27.233118 4.199879 38.792877 0.079776 0.365667 0.927320 0.258702 0.529678 1 19 1.000000
  19 27.789434 2.734261 37.399044 0.395192 0.061954 0.916507 0.246943 0.562855 1 19 1.000000
  19 27.158266 4.640939 37.030357 0.376913 0.848275 0.371976 0.223424 0.535532 1 19 1.000000
body
  19 27.789434 2.734261 37.399044 0.395192 0.061954 0.916507 0.246943 0.562855 1 19 1.000000
  19 27.303871 3.804035 36.374161 0.863021 0.504310 -0.029435 0.223424 0.553096 1 19 1.000000
  19 27.158266 4.640939 37.030357 0.376913 0.848275 0.371976 0.223424 0.535532 1 19 1.000000
body
  19 27.303871 3.804035 36.374161 0.863021 0.504310 -0.029435 0.223424 0.553096 1 19 1.000000
  19 27.789434 2.734261 37.399044 0.395192 0.061954 0.916507 0.246943 0.562855 1 19 1.000000
  19 27.522089 3.339555 36.458206 0.767775 0.356976 0.532061 0.227345 0.558951 1 19 1.000000
body
  19 27.789434 2.734261 37.399044 0.395192 0.061954 0.916507 0.246943 0.562855 1 19 1.000000
  19 27.470535 2.718820 36.201191 0.812948 -0.454256 0.364372 0.229304 0.572612 1 19 1.000000
  19 27.522089 3.339555 36.458206 0.767775 0.356976 0.532061 0.227345 0.558951 1 19 1.000000
body
  19 27.470535 2.718820 36.201191 0.812948 -0.454256 0.364372 0.229304 0.572612 1 19 1.000000
  19 27.303259 3.216683 36.022488 0.897133 0.424577 -0.122013 0.221464 0.564806 1 19 1.000000
  19 27.522089 3.339555 36.458206 0.767775 0.356976 0.532061 0.227345 0.558951 1 19 1.000000
body
  17 22.165756 3.698091 42.096329 0.647117 0.505761 -0.570478 0.264582 0.955115 1 17 1.000000
  17 21.907135 1.194260 41.698616 0.639556 -0.058721 -0.766498 0.258702 0.984387 1 17 1.000000
  17 21.631020 3.957432 41.875534 0.520333 0.696868 -0.493588 0.258702 0.951211 1 17 1.000000
body
  17 22.165756 3.698091 42.096329 0.647117 0.505761 -0.570478 0.025479 0.473083 1 17 1.000000
  17 23.461222 3.902660 43.122749 0.141784 0.847242 0.511935 0.029398 0.465277 1 17 1.000000
  18 24.423094 4.233440 40.871490 0.117772 0.874547 -0.470422 0.084274 0.486744 1 18 1.000000
body
  18 24.423094 4.233440 40.871490 0.117772 0.874547 -0.470422 0.084274 0.486744 1 18 1.000000
  18 23.580954 1.908772 40.749908 0.466404 0.283815 -0.837804 0.041157 0.510163 1 18 1.000000
  17 22.165756 3.698091 42.096329 0.647117 0.505761 -0.570478 0.025479 0.473083 1 17 1.000000
body
  18 23.580954 1.908772 40.749908 0.466404 0.283815 -0.837804 0.041157 0.510163 1 18 1.000000
  17 21.907135 1.194260 41.698616 0.639556 -0.058721 -0.766498 0.009800 0.496502 1 17 1.000000
  17 22.165756 3.698091 42.096329 0.647117 0.505761 -0.570478 0.025479 0.473083 1 17 1.000000
body
  19 26.946276 3.411794 36.383114 0.457879 0.443886 -0.770268 0.129351 0.543339 1 19 1.000000
  19 26.240580 2.016466 38.681583 0.185089 -0.247239 -0.951112 0.096033 0.543339 1 19 1.000000
  19 26.641829 4.315771 37.318581 0.109907 0.543796 -0.831990 0.115632 0.514066 1 19 1.000000
body
  19 26.897358 2.990803 36.132607 0.491974 -0.384197 -0.781252 0.131310 0.555049 1 19 1.000000
  19 26.240580 2.016466 38.681583 0.185089 -0.247239 -0.951112 0.096033 0.543339 1 19 1.000000
  19 26.946276 3.411794 36.383114 0.457879 0.443886 -0.770268 0.129351 0.543339 1 19 1.000000
body
  19 26.897358 2.990803 36.132607 0.491974 -0.384197 -0.781252 0.131310 0.555049 1 19 1.000000
  19 27.406528 1.861809 38.310398 0.402845 -0.890660 0.210809 0.103873 0.551145 1 19 1.000000
  19 26.240580 2.016466 38.681583 0.185089 -0.247239 -0.951112 0.096033 0.543339 1 19 1.000000
body
  19 26.897358 2.990803 36.132607 0.491974 -0.384197 -0.781252 0.131310 0.555049 1 19 1.000000
  19 27.470535 2.718820 36.201191 0.812948 -0.454256 0.364372 0.133271 0.560903 1 19 1.000000
  19 27.406528 1.861809 38.310398 0.402845 -0.890660 0.210809 0.103873 0.551145 1 19 1.000000
body
  19 26.897358 2.990803 36.132607 0.491974 -0.384197 -0.781252 0.131310 0.555049 1 19 1.000000
  19 27.303259 3.216683 36.022488 0.897133 0.424577 -0.122013 0.137191 0.553096 1 19 1.000000
  19 27.470535 2.718820 36.201191 0.812948 -0.454256 0.364372 0.133271 0.560903 1 19 1.000000
body
  19 26.897358 2.990803 36.132607 0.491974 -0.384197 -0.781252 0.131310 0.555049 1 19 1.000000
  19 26.946276 3.411794 36.383114 0.457879 0.443886 -0.770268 0.129351 0.543339 1 19 1.000000
  19 27.303259 3.216683 36.022488 0.897133 0.424577 -0.122013 0.137191 0.553096 1 19 1.000000
body
  19 27.303259 3.216683 36.022488 0.897133 0.424577 -0.122013 0.137191 0.553096 1 19 1.000000
  19 26.946276 3.411794 36.383114 0.457879 0.443886 -0.770268 0.129351 0.543339 1 19 1.000000
  19 27.522089 3.339555 36.458206 0.767775 0.356976 0.532061 0.135231 0.545291 1 19 1.000000
body
  19 27.522089 3.339555 36.458206 0.767775 0.356976 0.532061 0.135231 0.545291 1 19 1.000000
  19 26.946276 3.411794 36.383114 0.457879 0.443886 -0.770268 0.129351 0.543339 1 19 1.000000
  19 27.303871 3.804035 36.374161 0.863021 0.504310 -0.029435 0.133271 0.535532 1 19 1.000000
body
  19 27.303871 3.804035 36.374161 0.863021 0.504310 -0.029435 0.133271 0.535532 1 19 1.000000
  19 26.946276 3.411794 36.383114 0.457879 0.443886 -0.770268 0.129351 0.543339 1 19 1.000000
  19 26.641829 4.315771 37.318581 0.109907 0.543796 -0.831990 0.115632 0.514066 1 19 1.000000
body
  19 26.641829 4.315771 37.318581 0.109907 0.543796 -0.831990 0.115632 0.514066 1 19 1.000000
  19 27.158266 4.640939 37.030357 0.376913 0.848275 0.371976 0.129351 0.512115 1 19 1.000000
  19 27.303871 3.804035 36.374161 0.863021 0.504310 -0.029435 0.133271 0.535532 1 19 1.000000
body
  19 26.865894 4.485520 39.239349 -0.100131 0.970840 0.217813 0.111712 0.496502 1 19 1.000000
  19 27.158266 4.640939 37.030357 0.376913 0.848275 0.371976 0.129351 0.512115 1 19 1.000000
  19 26.641829 4.315771 37.318581 0.109907 0.543796 -0.831990 0.115632 0.514066 1 19 1.000000
body
  19 26.124474 4.303285 39.186749 0.152378 0.553627 -0.818705 0.105833 0.500405 1 19 1.000000
  19 26.865894 4.485520 39.239349 -0.100131 0.970840 0.217813 0.111712 0.496502 1 19 1.000000
  19 26.641829 4.315771 37.318581 0.109907 0.543796 -0.831990 0.115632 0.514066 1 19 1.000000
body
  18 24.423094 4.233440 40.871490 0.117772 0.874547 -0.470422 0.084274 0.486744 1 18 1.000000
  19 26.865894 4.485520 39.239349 -0.100131 0.970840 0.217813 0.111712 0.496502 1 19 1.000000
  19 26.124474 4.303285 39.186749 0.152378 0.553627 -0.818705 0.105833 0.500405 1 19 1.000000
body
  19 26.124474 4.303285 39.186749 0.152378 0.553627 -0.818705 0.105833 0.500405 1 19 1.000000
  18 24.910694 1.304185 40.005642 0.434509 0.124205 -0.892062 0.070556 0.539436 1 18 1.000000
  18 24.423094 4.233440 40.871490 0.117772 0.874547 -0.470422 0.084274 0.486744 1 18 1.000000
body
  18 24.910694 1.304185 40.005642 0.434509 0.124205 -0.892062 0.070556 0.539436 1 18 1.000000
  18 23.580954 1.908772 40.749908 0.466404 0.283815 -0.837804 0.041157 0.510163 1 18 1.000000
  18 24.423094 4.233440 40.871490 0.117772 0.874547 -0.470422 0.084274 0.486744 1 18 1.000000
body
  18 23.580954 1.908772 40.749908 0.466404 0.283815 -0.837804 0.041157 0.510163 1 18 1.000000
  18 24.910694 1.304185 40.005642 0.434509 0.124205 -0.892062 0.070556 0.539436 1 18 1.000000
  18 24.561777 0.370328 40.104237 0.763532 0.013174 -0.645635 0.050956 0.543339 1 18 1.000000
body
  25 23.837486 0.426112 39.796318 0.609562 0.541993 -0.578513 0.041157 0.543339 1 25 1.000000
  18 23.580954 1.908772 40.749908 0.466404 0.283815 -0.837804 0.041157 0.510163 1 18 1.000000
  18 24.561777 0.370328 40.104237 0.763532 0.013174 -0.645635 0.050956 0.543339 1 18 1.000000
body
  17 21.907135 1.194260 41.698616 0.639556 -0.058721 -0.766498 0.009800 0.496502 1 17 1.000000
  18 23.580954 1.908772 40.749908 0.466404 0.283815 -0.837804 0.041157 0.510163 1 18 1.000000
  25 23.837486 0.426112 39.796318 0.609562 0.541993 -0.578513 0.041157 0.543339 1 25 1.000000
body
  19 27.406528 1.861809 38.310398 0.402845 -0.890660 0.210809 0.103873 0.551145 1 19 1.000000
  18 24.910694 1.304185 40.005642 0.434509 0.124205 -0.892062 0.070556 0.539436 1 18 1.000000
  19 26.240580 2.016466 38.681583 0.185089 -0.247239 -0.951112 0.096033 0.543339 1 19 1.000000
body
  19 26.240580 2.016466 38.681583 0.185089 -0.247239 -0.951112 0.096033 0.543339 1 19 1.000000
  18 24.910694 1.304185 40.005642 0.434509 0.124205 -0.892062 0.070556 0.539436 1 18 1.000000
  19 26.124474 4.303285 39.186749 0.152378 0.553627 -0.818705 0.105833 0.500405 1 19 1.000000
body
  19 26.641829 4.315771 37.318581 0.109907 0.543796 -0.831990 0.115632 0.514066 1 19 1.000000
  19 26.240580 2.016466 38.681583 0.185089 -0.247239 -0.951112 0.096033 0.543339 1 19 1.000000
  19 26.124474 4.303285 39.186749 0.152378 0.553627 -0.818705 0.105833 0.500405 1 19 1.000000
body
  25 23.278793 -0.544366 39.204441 0.040295 0.378825 -0.924591 0.041157 0.557000 1 25 1.000000
  25 23.992289 -0.317404 39.100075 0.768402 0.638886 0.037188 0.052916 0.557000 1 25 1.000000
  25 23.920002 -1.310449 37.882870 0.704296 0.377639 -0.601129 0.064675 0.578466 1 25 1.000000
body
  25 23.278793 -0.544366 39.204441 0.040295 0.378825 -0.924591 0.041157 0.557000 1 25 1.000000
  25 23.837486 0.426112 39.796318 0.609562 0.541993 -0.578513 0.041157 0.543339 1 25 1.000000
  25 23.992289 -0.317404 39.100075 0.768402 0.638886 0.037188 0.052916 0.557000 1 25 1.000000
body
  25 23.278793 -0.544366 39.204441 0.040295 0.378825 -0.924591 0.041157 0.557000 1 25 1.000000
  18 22.228546 0.339721 41.205677 -0.420826 -0.214224 -0.881484 0.011759 0.516017 1 18 1.000000
  25 23.837486 0.426112 39.796318 0.609562 0.541993 -0.578513 0.041157 0.543339 1 25 1.000000
body
  18 22.228546 0.339721 41.205677 -0.420826 -0.214224 -0.881484 0.011759 0.516017 1 18 1.000000
  17 21.907135 1.194260 41.698616 0.639556 -0.058721 -0.766498 0.009800 0.496502 1 17 1.000000
  25 23.837486 0.426112 39.796318 0.609562 0.541993 -0.578513 0.041157 0.543339 1 25 1.000000
body
  17 22.461290 0.369829 42.110180 -0.072055 -0.916881 -0.392603 0.003919 0.516017 1 17 1.000000
  17 21.907135 1.194260 41.698616 0.639556 -0.058721 -0.766498 0.009800 0.496502 1 17 1.000000
  18 22.228546 0.339721 41.205677 -0.420826 -0.214224 -0.881484 0.011759 0.516017 1 18 1.000000
body
  18 22.228546 0.339721 41.205677 -0.420826 -0.214224 -0.881484 0.011759 0.516017 1 18 1.000000
  18 22.902893 -0.476344 41.137779 -0.639045 -0.768503 0.032008 0.011759 0.537485 1 18 1.000000
  17 22.461290 0.369829 42.110180 -0.072055 -0.916881 -0.392603 0.003919 0.516017 1 17 1.000000
body
  18 22.820202 -0.825705 40.220261 -0.534670 -0.554404 -0.637780 0.019598 0.545291 1 18 1.000000
  18 22.902893 -0.476344 41.137779 -0.639045 -0.768503 0.032008 0.011759 0.537485 1 18 1.000000
  18 22.228546 0.339721 41.205677 -0.420826 -0.214224 -0.881484 0.011759 0.516017 1 18 1.000000
body
  25 23.278793 -0.544366 39.204441 0.040295 0.378825 -0.924591 0.041157 0.557000 1 25 1.000000
  18 22.820202 -0.825705 40.220261 -0.534670 -0.554404 -0.637780 0.019598 0.545291 1 18 1.000000
  18 22.228546 0.339721 41.205677 -0.420826 -0.214224 -0.881484 0.011759 0.516017 1 18 1.000000
body
  25 23.278793 -0.544366 39.204441 0.040295 0.378825 -0.924591 0.041157 0.557000 1 25 1.000000
  25 23.723175 -2.083654 38.152081 -0.061378 -0.644853 -0.761838 0.054877 0.588225 1 25 1.000000
  18 22.820202 -0.825705 40.220261 -0.534670 -0.554404 -0.637780 0.019598 0.545291 1 18 1.000000
body
  25 23.278793 -0.544366 39.204441 0.040295 0.378825 -0.924591 0.041157 0.557000 1 25 1.000000
  25 23.920002 -1.310449 37.882870 0.704296 0.377639 -0.601129 0.064675 0.578466 1 25 1.000000
  25 23.723175 -2.083654 38.152081 -0.061378 -0.644853 -0.761838 0.054877 0.588225 1 25 1.000000
body
  25 23.920002 -1.310449 37.882870 0.704296 0.377639 -0.601129 0.064675 0.578466 1 25 1.000000
  25 24.286591 -1.925189 37.977036 0.900307 -0.388637 -0.195979 0.064675 0.590176 1 25 1.000000
  25 23.723175 -2.083654 38.152081 -0.061378 -0.644853 -0.761838 0.054877 0.588225 1 25 1.000000
body
  22 26.101221 0.417276 36.337109 0.190201 -0.484999 -0.853580 0.099953 0.578466 1 22 1.000000
  22 26.628611 0.185855 36.370632 0.586502 -0.719456 0.372019 0.099953 0.582370 1 22 1.000000
  22 26.666409 0.019926 38.302025 0.091287 -0.993883 -0.062160 0.076435 0.568709 1 22 1.000000
body
  22 26.628611 0.185855 36.370632 0.586502 -0.719456 0.372019 0.099953 0.582370 1 22 1.000000
  22 26.101221 0.417276 36.337109 0.190201 -0.484999 -0.853580 0.099953 0.578466 1 22 1.000000
  22 26.649027 0.601958 36.103355 0.975091 -0.113750 -0.190418 0.111712 0.580419 1 22 1.000000
body
  22 26.101221 0.417276 36.337109 0.190201 -0.484999 -0.853580 0.099953 0.578466 1 22 1.000000
  22 26.225142 0.998810 36.266544 0.514050 0.575664 -0.635897 0.105833 0.570660 1 22 1.000000
  22 26.649027 0.601958 36.103355 0.975091 -0.113750 -0.190418 0.111712 0.580419 1 22 1.000000
body
  22 26.649027 0.601958 36.103355 0.975091 -0.113750 -0.190418 0.111712 0.580419 1 22 1.000000
  22 26.225142 0.998810 36.266544 0.514050 0.575664 -0.635897 0.105833 0.570660 1 22 1.000000
  22 26.877621 1.003460 36.345497 0.618738 0.599023 0.508266 0.111712 0.572612 1 22 1.000000
body
  22 26.225142 0.998810 36.266544 0.514050 0.575664 -0.635897 0.105833 0.570660 1 22 1.000000
  22 25.816971 1.091758 38.582066 0.062097 0.583840 -0.809491 0.082314 0.555049 1 22 1.000000
  22 26.877621 1.003460 36.345497 0.618738 0.599023 0.508266 0.111712 0.572612 1 22 1.000000
body
  22 26.877621 1.003460 36.345497 0.618738 0.599023 0.508266 0.111712 0.572612 1 22 1.000000
  22 25.816971 1.091758 38.582066 0.062097 0.583840 -0.809491 0.082314 0.555049 1 22 1.000000
  22 26.726994 1.198810 38.541702 0.178415 0.923320 0.340072 0.086234 0.551145 1 22 1.000000
body
  22 25.816971 1.091758 38.582066 0.062097 0.583840 -0.809491 0.082314 0.555049 1 22 1.000000
  18 24.910694 1.304185 40.005642 0.434509 0.124205 -0.892062 0.070556 0.539436 1 18 1.000000
  22 26.726994 1.198810 38.541702 0.178415 0.923320 0.340072 0.086234 0.551145 1 22 1.000000
body
  18 24.910694 1.304185 40.005642 0.434509 0.124205 -0.892062 0.070556 0.539436 1 18 1.000000
  22 25.816971 1.091758 38.582066 0.062097 0.583840 -0.809491 0.082314 0.555049 1 22 1.000000
  18 25.005659 0.335476 39.864136 0.222090 -0.529055 -0.819009 0.058796 0.547242 1 18 1.000000
body
  18 24.561777 0.370328 40.104237 0.763532 0.013174 -0.645635 0.050956 0.543339 1 18 1.000000
  18 24.910694 1.304185 40.005642 0.434509 0.124205 -0.892062 0.070556 0.539436 1 18 1.000000
  18 25.005659 0.335476 39.864136 0.222090 -0.529055 -0.819009 0.058796 0.547242 1 18 1.000000
body
  22 25.842022 0.469868 38.624035 0.033549 -0.488253 -0.872057 0.080354 0.562855 1 22 1.000000
  22 26.101221 0.417276 36.337109 0.190201 -0.484999 -0.853580 0.099953 0.578466 1 22 1.000000
  22 26.666409 0.019926 38.302025 0.091287 -0.993883 -0.062160 0.076435 0.568709 1 22 1.000000
body
  22 25.842022 0.469868 38.624035 0.033549 -0.488253 -0.872057 0.080354 0.562855 1 22 1.000000
  22 26.666409 0.019926 38.302025 0.091287 -0.993883 -0.062160 0.076435 0.568709 1 22 1.000000
  18 25.005659 0.335476 39.864136 0.222090 -0.529055 -0.819009 0.058796 0.547242 1 18 1.000000
body
  18 25.005659 0.335476 39.864136 0.222090 -0.529055 -0.819009 0.058796 0.547242 1 18 1.000000
  22 25.816971 1.091758 38.582066 0.062097 0.583840 -0.809491 0.082314 0.555049 1 22 1.000000
  22 25.842022 0.469868 38.624035 0.033549 -0.488253 -0.872057 0.080354 0.562855 1 22 1.000000
body
  22 25.816971 1.091758 38.582066 0.062097 0.583840 -0.809491 0.082314 0.555049 1 22 1.000000
  22 26.101221 0.417276 36.337109 0.190201 -0.484999 -0.853580 0.099953 0.578466 1 22 1.000000
  22 25.842022 0.469868 38.624035 0.033549 -0.488253 -0.872057 0.080354 0.562855 1 22 1.000000
body
  22 26.225142 0.998810 36.266544 0.514050 0.575664 -0.635897 0.105833 0.570660 1 22 1.000000
  22 26.101221 0.417276 36.337109 0.190201 -0.484999 -0.853580 0.099953 0.578466 1 22 1.000000
  22 25.816971 1.091758 38.582066 0.062097 0.583840 -0.809491 0.082314 0.555049 1 22 1.000000
body
  17 21.631020 3.957432 41.875534 0.520333 0.696868 -0.493588 0.440969 0.240850 1 17 1.000000
  17 23.461222 3.902660 43.122749 0.141784 0.847242 0.511935 0.458608 0.250608 1 17 1.000000
  17 22.165756 3.698091 42.096329 0.647117 0.505761 -0.570478 0.442929 0.246704 1 17 1.000000
body
  16 11.891068 -0.107652 60.633400 0.199319 -0.660998 0.723432 0.125431 0.650674 1 16 1.000000
  16 14.855835 -0.487011 54.435745 -0.041907 -0.946731 0.319288 0.090154 0.754106 1 16 1.000000
  16 15.782185 0.389064 54.812763 -0.031004 -0.493774 0.869037 0.109752 0.759960 1 16 1.000000
body
  16 15.782185 0.389064 54.812763 -0.031004 -0.493774 0.869037 0.109752 0.759960 1 16 1.000000
  16 14.855835 -0.487011 54.435745 -0.041907 -0.946731 0.319288 0.090154 0.754106 1 16 1.000000
  17 16.821341 -1.244629 51.780468 0.014992 -0.781116 0.624206 0.084274 0.804846 1 17 1.000000
body
  17 16.821341 -1.244629 51.780468 0.014992 -0.781116 0.624206 0.084274 0.804846 1 17 1.000000
  17 17.951675 2.263719 53.683884 -0.085537 0.054574 0.994839 0.145030 0.798991 1 17 1.000000
  16 15.782185 0.389064 54.812763 -0.031004 -0.493774 0.869037 0.109752 0.759960 1 16 1.000000
body
  17 18.912342 2.379253 52.513386 0.013578 0.200094 0.979683 0.143070 0.822410 1 17 1.000000
  17 17.951675 2.263719 53.683884 -0.085537 0.054574 0.994839 0.145030 0.798991 1 17 1.000000
  17 16.821341 -1.244629 51.780468 0.014992 -0.781116 0.624206 0.084274 0.804846 1 17 1.000000
body
  17 21.448732 2.618926 48.322460 0.103897 0.047856 0.993436 0.135231 0.898519 1 17 1.000000
  17 18.912342 2.379253 52.513386 0.013578 0.200094 0.979683 0.143070 0.822410 1 17 1.000000
  17 16.821341 -1.244629 51.780468 0.014992 -0.781116 0.624206 0.084274 0.804846 1 17 1.000000
body
  17 18.194538 5.316233 49.705330 0.064186 0.959514 0.274251 0.192066 0.859489 1 17 1.000000
  17 18.912342 2.379253 52.513386 0.013578 0.200094 0.979683 0.143070 0.822410 1 17 1.000000
  17 21.448732 2.618926 48.322460 0.103897 0.047856 0.993436 0.135231 0.898519 1 17 1.000000
body
  17 16.240105 5.253019 52.114784 -0.081983 0.901954 0.423978 0.201866 0.812651 1 17 1.000000
  17 18.912342 2.379253 52.513386 0.013578 0.200094 0.979683 0.143070 0.822410 1 17 1.000000
  17 18.194538 5.316233 49.705330 0.064186 0.959514 0.274251 0.192066 0.859489 1 17 1.000000
body
  17 16.240105 5.253019 52.114784 -0.081983 0.901954 0.423978 0.201866 0.812651 1 17 1.000000
  17 18.194538 5.316233 49.705330 0.064186 0.959514 0.274251 0.192066 0.859489 1 17 1.000000
  17 14.554712 4.858548 50.891582 -0.073726 0.811565 -0.579592 0.223424 0.816555 1 17 1.000000
body
  16 13.030790 4.672178 53.948837 -0.061104 0.874531 -0.481105 0.233224 0.763864 1 16 1.000000
  17 16.240105 5.253019 52.114784 -0.081983 0.901954 0.423978 0.201866 0.812651 1 17 1.000000
  17 14.554712 4.858548 50.891582 -0.073726 0.811565 -0.579592 0.223424 0.816555 1 17 1.000000
body
  17 17.951675 2.263719 53.683884 -0.085537 0.054574 0.994839 0.145030 0.798991 1 17 1.000000
  17 18.912342 2.379253 52.513386 0.013578 0.200094 0.979683 0.143070 0.822410 1 17 1.000000
  17 16.240105 5.253019 52.114784 -0.081983 0.901954 0.423978 0.201866 0.812651 1 17 1.000000
body
  17 14.554712 4.858548 50.891582 -0.073726 0.811565 -0.579592 0.223424 0.816555 1 17 1.000000
  17 18.194538 5.316233 49.705330 0.064186 0.959514 0.274251 0.192066 0.859489 1 17 1.000000
  17 16.535263 4.811654 48.245846 0.068737 0.752103 -0.655451 0.213625 0.867295 1 17 1.000000
body
  17 18.194538 5.316233 49.705330 0.064186 0.959514 0.274251 0.192066 0.859489 1 17 1.000000
  17 19.077520 4.657408 45.788864 0.115216 0.879535 -0.461675 0.201866 0.919987 1 17 1.000000
  17 16.535263 4.811654 48.245846 0.068737 0.752103 -0.655451 0.213625 0.867295 1 17 1.000000
body
  16 14.624973 4.700267 54.398041 -0.018088 0.968183 0.249589 0.205785 0.767766 1 16 1.000000
  17 16.240105 5.253019 52.114784 -0.081983 0.901954 0.423978 0.201866 0.812651 1 17 1.000000
  16 13.030790 4.672178 53.948837 -0.061104 0.874531 -0.481105 0.233224 0.763864 1 16 1.000000
body
  16 14.624973 4.700267 54.398041 -0.018088 0.968183 0.249589 0.205785 0.767766 1 16 1.000000
  16 15.823502 3.860392 54.686592 0.016711 0.609134 0.792891 0.180308 0.769719 1 16 1.000000
  17 16.240105 5.253019 52.114784 -0.081983 0.901954 0.423978 0.201866 0.812651 1 17 1.000000
body
  16 15.823502 3.860392 54.686592 0.016711 0.609134 0.792891 0.180308 0.769719 1 16 1.000000
  17 17.951675 2.263719 53.683884 -0.085537 0.054574 0.994839 0.145030 0.798991 1 17 1.000000
  17 16.240105 5.253019 52.114784 -0.081983 0.901954 0.423978 0.201866 0.812651 1 17 1.000000
body
  16 16.445574 2.209535 54.965202 -0.077342 0.032253 0.996483 0.148950 0.767766 1 16 1.000000
  17 17.951675 2.263719 53.683884 -0.085537 0.054574 0.994839 0.145030 0.798991 1 17 1.000000
  16 15.823502 3.860392 54.686592 0.016711 0.609134 0.792891 0.180308 0.769719 1 16 1.000000
body
  17 17.951675 2.263719 53.683884 -0.085537 0.054574 0.994839 0.145030 0.798991 1 17 1.000000
  16 16.445574 2.209535 54.965202 -0.077342 0.032253 0.996483 0.148950 0.767766 1 16 1.000000
  16 15.782185 0.389064 54.812763 -0.031004 -0.493774 0.869037 0.109752 0.759960 1 16 1.000000
body
  16 15.782185 0.389064 54.812763 -0.031004 -0.493774 0.869037 0.109752 0.759960 1 16 1.000000
  16 16.445574 2.209535 54.965202 -0.077342 0.032253 0.996483 0.148950 0.767766 1 16 1.000000
  16 12.757885 3.412325 60.660015 0.211090 0.129318 0.968874 0.180308 0.662383 1 16 1.000000
body
  16 16.445574 2.209535 54.965202 -0.077342 0.032253 0.996483 0.148950 0.767766 1 16 1.000000
  16 15.823502 3.860392 54.686592 0.016711 0.609134 0.792891 0.180308 0.769719 1 16 1.000000
  16 12.757885 3.412325 60.660015 0.211090 0.129318 0.968874 0.180308 0.662383 1 16 1.000000
body
  16 12.757885 3.412325 60.660015 0.211090 0.129318 0.968874 0.180308 0.662383 1 16 1.000000
  16 15.823502 3.860392 54.686592 0.016711 0.609134 0.792891 0.180308 0.769719 1 16 1.000000
  16 12.043681 4.913240 60.065990 0.227382 0.886237 0.403585 0.209705 0.666287 1 16 1.000000
body
  16 15.823502 3.860392 54.686592 0.016711 0.609134 0.792891 0.180308 0.769719 1 16 1.000000
  16 14.624973 4.700267 54.398041 -0.018088 0.968183 0.249589 0.205785 0.767766 1 16 1.000000
  16 12.043681 4.913240 60.065990 0.227382 0.886237 0.403585 0.209705 0.666287 1 16 1.000000
body
  16 12.043681 4.913240 60.065990 0.227382 0.886237 0.403585 0.209705 0.666287 1 16 1.000000
  16 14.624973 4.700267 54.398041 -0.018088 0.968183 0.249589 0.205785 0.767766 1 16 1.000000
  16 9.845924 4.957410 58.208115 0.135159 0.902986 -0.407857 0.250862 0.679947 1 16 1.000000
body
  16 14.624973 4.700267 54.398041 -0.018088 0.968183 0.249589 0.205785 0.767766 1 16 1.000000
  16 13.030790 4.672178 53.948837 -0.061104 0.874531 -0.481105 0.233224 0.763864 1 16 1.000000
  16 9.845924 4.957410 58.208115 0.135159 0.902986 -0.407857 0.250862 0.679947 1 16 1.000000
body
  16 9.845924 4.957410 58.208115 0.135159 0.902986 -0.407857 0.250862 0.679947 1 16 1.000000
  16 13.030790 4.672178 53.948837 -0.061104 0.874531 -0.481105 0.233224 0.763864 1 16 1.000000
  16 10.145024 2.216733 54.508011 0.076584 0.045329 -0.996032 0.288099 0.744347 1 16 1.000000
body
  16 13.030790 4.672178 53.948837 -0.061104 0.874531 -0.481105 0.233224 0.763864 1 16 1.000000
  16 12.315174 1.988647 51.838348 -0.084065 0.123367 -0.988794 0.278301 0.793136 1 16 1.000000
  16 10.145024 2.216733 54.508011 0.076584 0.045329 -0.996032 0.288099 0.744347 1 16 1.000000
body
  16 13.030790 4.672178 53.948837 -0.061104 0.874531 -0.481105 0.233224 0.763864 1 16 1.000000
  17 14.554712 4.858548 50.891582 -0.073726 0.811565 -0.579592 0.223424 0.816555 1 17 1.000000
  16 12.315174 1.988647 51.838348 -0.084065 0.123367 -0.988794 0.278301 0.793136 1 16 1.000000
body
  16 12.315174 1.988647 51.838348 -0.084065 0.123367 -0.988794 0.278301 0.793136 1 16 1.000000
  17 14.554712 4.858548 50.891582 -0.073726 0.811565 -0.579592 0.223424 0.816555 1 17 1.000000
  17 13.668223 2.015397 49.465889 -0.009703 -0.111193 -0.993752 0.278301 0.838022 1 17 1.000000
body
  17 14.554712 4.858548 50.891582 -0.073726 0.811565 -0.579592 0.223424 0.816555 1 17 1.000000
  17 16.535263 4.811654 48.245846 0.068737 0.752103 -0.655451 0.213625 0.867295 1 17 1.000000
  17 13.668223 2.015397 49.465889 -0.009703 -0.111193 -0.993752 0.278301 0.838022 1 17 1.000000
body
  17 13.668223 2.015397 49.465889 -0.009703 -0.111193 -0.993752 0.278301 0.838022 1 17 1.000000
  17 16.535263 4.811654 48.245846 0.068737 0.752103 -0.655451 0.213625 0.867295 1 17 1.000000
  17 17.359606 2.405186 45.446545 0.036782 0.165189 -0.985576 0.256742 0.923890 1 17 1.000000
body
  17 16.535263 4.811654 48.245846 0.068737 0.752103 -0.655451 0.213625 0.867295 1 17 1.000000
  17 19.077520 4.657408 45.788864 0.115216 0.879535 -0.461675 0.201866 0.919987 1 17 1.000000
  17 17.359606 2.405186 45.446545 0.036782 0.165189 -0.985576 0.256742 0.923890 1 17 1.000000
body
  17 17.359606 2.405186 45.446545 0.036782 0.165189 -0.985576 0.256742 0.923890 1 17 1.000000
  17 21.631020 3.957432 41.875534 0.520320 0.696805 -0.493690 0.190107 1.000000 1 17 1.000000
  17 20.165075 2.220758 41.261097 0.364618 0.059684 -0.929243 0.233224 0.998049 1 17 1.000000
body
  17 19.077520 4.657408 45.788864 0.115216 0.879535 -0.461675 0.201866 0.919987 1 17 1.000000
  17 21.631020 3.957432 41.875534 0.520320 0.696805 -0.493690 0.190107 1.000000 1 17 1.000000
  17 17.359606 2.405186 45.446545 0.036782 0.165189 -0.985576 0.256742 0.923890 1 17 1.000000
body
  17 19.077520 4.657408 45.788864 0.115216 0.879535 -0.461675 0.201866 0.919987 1 17 1.000000
  17 22.657829 4.213145 42.755085 0.141198 0.989975 0.003481 0.168548 0.986339 1 17 1.000000
  17 21.631020 3.957432 41.875534 0.520320 0.696805 -0.493690 0.190107 1.000000 1 17 1.000000
body
  17 18.194538 5.316233 49.705330 0.064186 0.959514 0.274251 0.192066 0.859489 1 17 1.000000
  17 22.657829 4.213145 42.755085 0.141198 0.989975 0.003481 0.168548 0.986339 1 17 1.000000
  17 19.077520 4.657408 45.788864 0.115216 0.879535 -0.461675 0.201866 0.919987 1 17 1.000000
body
  17 22.657829 4.213145 42.755085 0.141198 0.989975 0.003481 0.168548 0.986339 1 17 1.000000
  17 18.194538 5.316233 49.705330 0.064186 0.959514 0.274251 0.192066 0.859489 1 17 1.000000
  17 23.461222 3.902660 43.122749 0.141784 0.847242 0.511935 0.152870 0.986339 1 17 1.000000
body
  17 23.461222 3.902660 43.122749 0.141784 0.847242 0.511935 0.152870 0.986339 1 17 1.000000
  17 18.194538 5.316233 49.705330 0.064186 0.959514 0.274251 0.192066 0.859489 1 17 1.000000
  17 21.448732 2.618926 48.322460 0.103897 0.047856 0.993436 0.135231 0.898519 1 17 1.000000
body
  17 21.448732 2.618926 48.322460 0.103897 0.047856 0.993436 0.135231 0.898519 1 17 1.000000
  17 23.982647 2.967912 43.322998 0.187792 0.262369 0.946518 0.133271 0.986339 1 17 1.000000
  17 23.461222 3.902660 43.122749 0.141784 0.847242 0.511935 0.152870 0.986339 1 17 1.000000
body
  17 24.208771 0.956670 43.593025 0.414501 -0.418905 0.807903 0.107793 0.980485 1 17 1.000000
  17 23.982647 2.967912 43.322998 0.187792 0.262369 0.946518 0.133271 0.986339 1 17 1.000000
  17 21.448732 2.618926 48.322460 0.103897 0.047856 0.993436 0.135231 0.898519 1 17 1.000000
body
  17 24.208771 0.956670 43.593025 0.414501 -0.418905 0.807903 0.107793 0.980485 1 17 1.000000
  17 24.029951 0.975115 43.111599 0.022362 -0.532482 0.846146 0.103873 0.988291 1 17 1.000000
  17 23.982647 2.967912 43.322998 0.187792 0.262369 0.946518 0.133271 0.986339 1 17 1.000000
body
  17 24.208771 0.956670 43.593025 0.414501 -0.418905 0.807903 0.107793 0.980485 1 17 1.000000
  17 23.019974 -0.164189 42.811348 0.376434 -0.894644 0.240644 0.074475 0.974630 1 17 1.000000
  17 24.029951 0.975115 43.111599 0.022362 -0.532482 0.846146 0.103873 0.988291 1 17 1.000000
body
  17 24.208771 0.956670 43.593025 0.414501 -0.418905 0.807903 0.107793 0.980485 1 17 1.000000
  17 20.085072 -0.071880 47.244415 0.076001 -0.890570 0.448452 0.082314 0.892666 1 17 1.000000
  17 23.019974 -0.164189 42.811348 0.376434 -0.894644 0.240644 0.074475 0.974630 1 17 1.000000
body
  17 20.085072 -0.071880 47.244415 0.076001 -0.890570 0.448452 0.082314 0.892666 1 17 1.000000
  17 18.382841 -0.388596 46.154213 0.053042 -0.896414 -0.440031 0.048996 0.888762 1 17 1.000000
  17 23.019974 -0.164189 42.811348 0.376434 -0.894644 0.240644 0.074475 0.974630 1 17 1.000000
body
  17 15.387573 -1.015280 50.646362 -0.005186 -0.951383 -0.307965 0.058796 0.804846 1 17 1.000000
  17 18.382841 -0.388596 46.154213 0.053042 -0.896414 -0.440031 0.048996 0.888762 1 17 1.000000
  17 20.085072 -0.071880 47.244415 0.076001 -0.890570 0.448452 0.082314 0.892666 1 17 1.000000
body
  17 18.382841 -0.388596 46.154213 0.053042 -0.896414 -0.440031 0.048996 0.888762 1 17 1.000000
  17 15.387573 -1.015280 50.646362 -0.005186 -0.951383 -0.307965 0.058796 0.804846 1 17 1.000000
  17 13.668223 2.015397 49.465889 -0.009703 -0.111193 -0.993752 0.001960 0.802894 1 17 1.000000
body
  17 13.668223 2.015397 49.465889 -0.009703 -0.111193 -0.993752 0.001960 0.802894 1 17 1.000000
  17 15.387573 -1.015280 50.646362 -0.005186 -0.951383 -0.307965 0.058796 0.804846 1 17 1.000000
  16 13.218955 -0.636807 53.320175 -0.022786 -0.789704 -0.613065 0.060756 0.752154 1 16 1.000000
body
  17 13.668223 2.015397 49.465889 -0.009703 -0.111193 -0.993752 0.001960 0.802894 1 17 1.000000
  16 13.218955 -0.636807 53.320175 -0.022786 -0.789704 -0.613065 0.060756 0.752154 1 16 1.000000
  16 12.315174 1.988647 51.838348 -0.084065 0.123367 -0.988794 0.011759 0.761912 1 16 1.000000
body
  16 12.315174 1.988647 51.838348 -0.084065 0.123367 -0.988794 0.011759 0.761912 1 16 1.000000
  16 13.218955 -0.636807 53.320175 -0.022786 -0.789704 -0.613065 0.060756 0.752154 1 16 1.000000
  16 10.145024 2.216733 54.508011 0.076584 0.045329 -0.996032 0.007840 0.711172 1 16 1.000000
body
  16 13.218955 -0.636807 53.320175 -0.022786 -0.789704 -0.613065 0.060756 0.752154 1 16 1.000000
  11 8.752190 -1.828826 58.683441 0.280396 -0.877281 -0.389560 0.066635 0.594079 1 11 1.000000
  16 10.145024 2.216733 54.508011 0.076584 0.045329 -0.996032 0.007840 0.711172 1 16 1.000000
body
  16 10.145024 2.216733 54.508011 0.076584 0.045329 -0.996032 0.007840 0.711172 1 16 1.000000
  11 8.752190 -1.828826 58.683441 0.280396 -0.877281 -0.389560 0.066635 0.594079 1 11 1.000000
  11 9.786341 2.394295 55.450027 -0.500691 -0.481941 -0.719056 0.001960 0.621400 1 11 1.000000
body
  17 18.382841 -0.388596 46.154213 0.053042 -0.896414 -0.440031 0.048996 0.888762 1 17 1.000000
  17 21.023317 0.174371 41.666252 0.450543 -0.564096 -0.691959 0.033318 0.978534 1 17 1.000000
  17 22.002760 -0.140646 42.196533 0.650755 -0.724246 -0.228003 0.056836 0.972679 1 17 1.000000
body
  17 18.382841 -0.388596 46.154213 0.053042 -0.896414 -0.440031 0.048996 0.888762 1 17 1.000000
  17 22.002760 -0.140646 42.196533 0.650755 -0.724246 -0.228003 0.056836 0.972679 1 17 1.000000
  17 23.019974 -0.164189 42.811348 0.376434 -0.894644 0.240644 0.074475 0.974630 1 17 1.000000
body
  17 23.019974 -0.164189 42.811348 0.376434 -0.894644 0.240644 0.074475 0.974630 1 17 1.000000
  17 22.002760 -0.140646 42.196533 0.650755 -0.724246 -0.228003 0.056836 0.972679 1 17 1.000000
  17 22.461290 0.369829 42.110180 -0.072055 -0.916881 -0.392603 0.060756 0.986339 1 17 1.000000
body
  17 22.002760 -0.140646 42.196533 0.650755 -0.724246 -0.228003 0.056836 0.972679 1 17 1.000000
  17 21.907135 1.194260 41.698616 0.639556 -0.058721 -0.766498 0.031358 0.996097 1 17 1.000000
  17 22.461290 0.369829 42.110180 -0.072055 -0.916881 -0.392603 0.060756 0.986339 1 17 1.000000
body
  17 22.002760 -0.140646 42.196533 0.650755 -0.724246 -0.228003 0.056836 0.972679 1 17 1.000000
  17 21.023317 0.174371 41.666252 0.450543 -0.564096 -0.691959 0.033318 0.978534 1 17 1.000000
  17 21.907135 1.194260 41.698616 0.639556 -0.058721 -0.766498 0.031358 0.996097 1 17 1.000000
body
  17 21.907135 1.194260 41.698616 0.639556 -0.058721 -0.766498 0.031358 0.996097 1 17 1.000000
  17 21.023317 0.174371 41.666252 0.450543 -0.564096 -0.691959 0.033318 0.978534 1 17 1.000000
  17 20.165075 2.220758 41.261097 0.364618 0.059684 -0.929243 0.001960 0.978534 1 17 1.000000
body
  17 20.165075 2.220758 41.261097 0.364618 0.059684 -0.929243 0.001960 0.978534 1 17 1.000000
  17 21.023317 0.174371 41.666252 0.450543 -0.564096 -0.691959 0.033318 0.978534 1 17 1.000000
  17 17.359606 2.405186 45.446545 0.036782 0.165189 -0.985576 0.000000 0.888762 1 17 1.000000
body
  17 21.023317 0.174371 41.666252 0.450543 -0.564096 -0.691959 0.033318 0.978534 1 17 1.000000
  17 18.382841 -0.388596 46.154213 0.053042 -0.896414 -0.440031 0.048996 0.888762 1 17 1.000000
  17 17.359606 2.405186 45.446545 0.036782 0.165189 -0.985576 0.000000 0.888762 1 17 1.000000
body
  17 17.359606 2.405186 45.446545 0.036782 0.165189 -0.985576 0.000000 0.888762 1 17 1.000000
  17 18.382841 -0.388596 46.154213 0.053042 -0.896414 -0.440031 0.048996 0.888762 1 17 1.000000
  17 13.668223 2.015397 49.465889 -0.009703 -0.111193 -0.993752 0.001960 0.802894 1 17 1.000000
body
  17 24.208771 0.956670 43.593025 0.414501 -0.418905 0.807903 0.107793 0.980485 1 17 1.000000
  17 21.448732 2.618926 48.322460 0.103897 0.047856 0.993436 0.135231 0.898519 1 17 1.000000
  17 20.085072 -0.071880 47.244415 0.076001 -0.890570 0.448452 0.082314 0.892666 1 17 1.000000
body
  17 21.448732 2.618926 48.322460 0.103897 0.047856 0.993436 0.135231 0.898519 1 17 1.000000
  17 16.821341 -1.244629 51.780468 0.014992 -0.781116 0.624206 0.084274 0.804846 1 17 1.000000
  17 20.085072 -0.071880 47.244415 0.076001 -0.890570 0.448452 0.082314 0.892666 1 17 1.000000
body
  17 16.821341 -1.244629 51.780468 0.014992 -0.781116 0.624206 0.084274 0.804846 1 17 1.000000
  17 15.387573 -1.015280 50.646362 -0.005186 -0.951383 -0.307965 0.058796 0.804846 1 17 1.000000
  17 20.085072 -0.071880 47.244415 0.076001 -0.890570 0.448452 0.082314 0.892666 1 17 1.000000
body
  16 14.855835 -0.487011 54.435745 -0.041907 -0.946731 0.319288 0.090154 0.754106 1 16 1.000000
  17 15.387573 -1.015280 50.646362 -0.005186 -0.951383 -0.307965 0.058796 0.804846 1 17 1.000000
  17 16.821341 -1.244629 51.780468 0.014992 -0.781116 0.624206 0.084274 0.804846 1 17 1.000000
body
  17 15.387573 -1.015280 50.646362 -0.005186 -0.951383 -0.307965 0.058796 0.804846 1 17 1.000000
  16 14.855835 -0.487011 54.435745 -0.041907 -0.946731 0.319288 0.090154 0.754106 1 16 1.000000
  16 13.218955 -0.636807 53.320175 -0.022786 -0.789704 -0.613065 0.060756 0.752154 1 16 1.000000
body
  16 13.218955 -0.636807 53.320175 -0.022786 -0.789704 -0.613065 0.060756 0.752154 1 16 1.000000
  16 14.855835 -0.487011 54.435745 -0.041907 -0.946731 0.319288 0.090154 0.754106 1 16 1.000000
  11 8.752190 -1.828826 58.683441 0.280396 -0.877281 -0.389560 0.066635 0.594079 1 11 1.000000
body
  16 14.855835 -0.487011 54.435745 -0.041907 -0.946731 0.319288 0.090154 0.754106 1 16 1.000000
  16 11.891068 -0.107652 60.633400 0.199319 -0.660998 0.723432 0.125431 0.650674 1 16 1.000000
  11 8.752190 -1.828826 58.683441 0.280396 -0.877281 -0.389560 0.066635 0.594079 1 11 1.000000
body
  11 8.752190 -1.828826 58.683441 0.280396 -0.877281 -0.389560 0.066635 0.594079 1 11 1.000000
  16 11.891068 -0.107652 60.633400 0.199319 -0.660998 0.723432 0.125431 0.650674 1 16 1.000000
  16 8.647937 -1.096241 61.599300 0.404167 -0.619208 0.673224 0.117592 0.592128 1 16 1.000000
body
  16 11.891068 -0.107652 60.633400 0.199319 -0.660998 0.723432 0.125431 0.650674 1 16 1.000000
  16 10.143106 0.439950 62.375935 0.148712 -0.298208 0.942845 0.137191 0.627255 1 16 1.000000
  16 8.647937 -1.096241 61.599300 0.404167 -0.619208 0.673224 0.117592 0.592128 1 16 1.000000
body
  16 8.647937 -1.096241 61.599300 0.404167 -0.619208 0.673224 0.117592 0.592128 1 16 1.000000
  16 10.143106 0.439950 62.375935 0.148712 -0.298208 0.942845 0.137191 0.627255 1 16 1.000000
  16 8.894096 0.586545 62.356190 -0.017695 -0.161394 0.986731 0.143070 0.599934 1 16 1.000000
body
  16 10.143106 0.439950 62.375935 0.148712 -0.298208 0.942845 0.137191 0.627255 1 16 1.000000
  16 10.560768 3.759933 62.622719 0.081508 0.103915 0.991241 0.188147 0.631158 1 16 1.000000
  16 8.894096 0.586545 62.356190 -0.017695 -0.161394 0.986731 0.143070 0.599934 1 16 1.000000
body
  16 8.894096 0.586545 62.356190 -0.017695 -0.161394 0.986731 0.143070 0.599934 1 16 1.000000
  16 10.560768 3.759933 62.622719 0.081508 0.103915 0.991241 0.188147 0.631158 1 16 1.000000
  16 9.201267 3.952685 62.550949 0.047642 0.069638 0.996434 0.192066 0.611643 1 16 1.000000
body
  16 10.560768 3.759933 62.622719 0.081508 0.103915 0.991241 0.188147 0.631158 1 16 1.000000
  16 9.466724 5.918416 61.942776 0.566404 0.698027 0.438114 0.221464 0.613594 1 16 1.000000
  16 9.201267 3.952685 62.550949 0.047642 0.069638 0.996434 0.192066 0.611643 1 16 1.000000
body
  16 10.560768 3.759933 62.622719 0.081508 0.103915 0.991241 0.188147 0.631158 1 16 1.000000
  16 12.757885 3.412325 60.660015 0.211090 0.129318 0.968874 0.180308 0.662383 1 16 1.000000
  16 9.466724 5.918416 61.942776 0.566404 0.698027 0.438114 0.221464 0.613594 1 16 1.000000
body
  16 12.757885 3.412325 60.660015 0.211090 0.129318 0.968874 0.180308 0.662383 1 16 1.000000
  16 12.043681 4.913240 60.065990 0.227382 0.886237 0.403585 0.209705 0.666287 1 16 1.000000
  16 9.466724 5.918416 61.942776 0.566404 0.698027 0.438114 0.221464 0.613594 1 16 1.000000
body
  16 9.466724 5.918416 61.942776 0.566404 0.698027 0.438114 0.221464 0.613594 1 16 1.000000
  16 12.043681 4.913240 60.065990 0.227382 0.886237 0.403585 0.209705 0.666287 1 16 1.000000
  16 9.038242 5.896588 58.197350 0.600001 0.685736 -0.412026 0.274381 0.629207 1 16 1.000000
body
  16 12.043681 4.913240 60.065990 0.227382 0.886237 0.403585 0.209705 0.666287 1 16 1.000000
  16 9.845924 4.957410 58.208115 0.135159 0.902986 -0.407857 0.250862 0.679947 1 16 1.000000
  16 9.038242 5.896588 58.197350 0.600001 0.685736 -0.412026 0.274381 0.629207 1 16 1.000000
body
  16 9.038242 5.896588 58.197350 0.600001 0.685736 -0.412026 0.274381 0.629207 1 16 1.000000
  16 9.845924 4.957410 58.208115 0.135159 0.902986 -0.407857 0.250862 0.679947 1 16 1.000000
  11 9.786341 2.394295 55.450027 -0.500691 -0.481941 -0.719056 0.317497 0.666287 1 11 1.000000
body
  16 9.845924 4.957410 58.208115 0.135159 0.902986 -0.407857 0.250862 0.679947 1 16 1.000000
  16 10.145024 2.216733 54.508011 0.076584 0.045329 -0.996032 0.288099 0.744347 1 16 1.000000
  11 9.786341 2.394295 55.450027 -0.500691 -0.481941 -0.719056 0.317497 0.666287 1 11 1.000000
body
  17 23.019974 -0.164189 42.811348 0.942099 -0.333346 0.036479 0.074475 0.974630 1 17 1.000000
  17 22.461290 0.369829 42.110180 0.942118 -0.333291 0.036471 0.060756 0.986339 1 17 1.000000
  17 24.029951 0.975115 43.111599 0.942130 -0.333258 0.036464 0.103873 0.988291 1 17 1.000000
body
  16 15.782185 0.389064 54.812763 -0.031004 -0.493774 0.869037 0.450769 0.693608 1 16 1.000000
  16 12.757885 3.412325 60.660015 0.211090 0.129318 0.968874 0.464488 0.576515 1 16 1.000000
  16 11.891068 -0.107652 60.633400 0.199319 -0.660998 0.723432 0.411571 0.592128 1 16 1.000000
body
  16 11.891068 -0.107652 60.633400 0.199319 -0.660998 0.723432 0.411571 0.592128 1 16 1.000000
  16 12.757885 3.412325 60.660015 0.211090 0.129318 0.968874 0.464488 0.576515 1 16 1.000000
  16 10.143106 0.439950 62.375935 0.148712 -0.298208 0.942845 0.409611 0.566757 1 16 1.000000
body
  16 12.757885 3.412325 60.660015 0.211090 0.129318 0.968874 0.464488 0.576515 1 16 1.000000
  16 10.560768 3.759933 62.622719 0.081508 0.103915 0.991241 0.456648 0.545291 1 16 1.000000
  16 10.143106 0.439950 62.375935 0.148712 -0.298208 0.942845 0.409611 0.566757 1 16 1.000000
body
  17 21.907135 1.194260 41.698616 0.941585 0.088051 -0.325061 0.031358 0.996097 1 17 1.000000
  17 20.165075 2.220758 41.261097 0.941587 0.088037 -0.325060 0.001960 0.978534 1 17 1.000000
  17 21.631020 3.957432 41.875534 0.941585 0.088059 -0.325060 0.001960 0.998049 1 17 1.000000
end
