// Created by Crowbar 0.74
version 1
nodes
  0 "ValveBiped.Bip01_Pelvis" -1
  1 "ValveBiped.Bip01_L_Thigh" 0
  2 "ValveBiped.Bip01_L_Calf" 1
  3 "ValveBiped.Bip01_L_Foot" 2
  4 "ValveBiped.Bip01_L_Toe0" 3
  5 "ValveBiped.Bip01_R_Thigh" 0
  6 "ValveBiped.Bip01_R_Calf" 5
  7 "ValveBiped.Bip01_R_Foot" 6
  8 "ValveBiped.Bip01_R_Toe0" 7
  9 "ValveBiped.Bip01_Spine" 0
  10 "ValveBiped.Bip01_Spine1" 9
  11 "ValveBiped.Bip01_Spine2" 10
  12 "ValveBiped.Bip01_Spine4" 11
  13 "ValveBiped.Bip01_Neck1" 12
  14 "ValveBiped.Bip01_Head1" 13
  15 "ValveBiped.Bip01_L_Clavicle" 12
  16 "ValveBiped.Bip01_L_UpperArm" 15
  17 "ValveBiped.Bip01_L_Forearm" 16
  18 "ValveBiped.Bip01_L_Hand" 17
  19 "ValveBiped.Bip01_L_Finger2" 18
  20 "ValveBiped.Bip01_L_Finger21" 19
  21 "ValveBiped.Bip01_L_Finger22" 20
  22 "ValveBiped.Bip01_L_Finger1" 18
  23 "ValveBiped.Bip01_L_Finger11" 22
  24 "ValveBiped.Bip01_L_Finger12" 23
  25 "ValveBiped.Bip01_L_Finger0" 18
  26 "ValveBiped.Bip01_L_Finger01" 25
  27 "ValveBiped.Bip01_L_Finger02" 26
  28 "ValveBiped.Bip01_R_Clavicle" 12
  29 "ValveBiped.Bip01_R_UpperArm" 28
  30 "ValveBiped.Bip01_R_Forearm" 29
  31 "ValveBiped.Bip01_R_Hand" 30
  32 "ValveBiped.Bip01_R_Finger2" 31
  33 "ValveBiped.Bip01_R_Finger21" 32
  34 "ValveBiped.Bip01_R_Finger22" 33
  35 "ValveBiped.Bip01_R_Finger1" 31
  36 "ValveBiped.Bip01_R_Finger11" 35
  37 "ValveBiped.Bip01_R_Finger12" 36
  38 "ValveBiped.Bip01_R_Finger0" 31
  39 "ValveBiped.Bip01_R_Finger01" 38
  40 "ValveBiped.Bip01_R_Finger02" 39
  41 "ValveBiped.Bip01_R_Wrist" 30
  42 "ValveBiped.Bip01_L_Wrist" 17
  43 "ValveBiped.Bip01_L_Ulna" 17
  44 "ValveBiped.Bip01_R_Ulna" 30
  45 "ValveBiped.weapon_bone" 9
  46 "ValveBiped.weapon_bone_RHand" 45
  47 "ValveBiped.weapon_bone_LHand" 46
  48 "ValveBiped.weapon_bone_Clip" 47
  49 "ValveBiped.forward" 14
end
skeleton
  time 0
    0 0.000000 -0.554942 40.109589 1.570796 0.000000 0.000000
    1 4.046065 0.000000 0.000000 -1.570425 0.051839 -1.565580
    2 18.562113 0.000000 0.000000 0.000000 0.000000 0.034200
    3 17.186249 0.000000 0.000000 -0.023996 -0.041104 -1.071631
    4 7.154627 0.000000 0.000001 -0.009979 -0.005353 -0.584358
    5 -4.046065 0.000000 0.000000 -1.571010 0.051839 -1.576015
    6 18.562090 0.000000 0.000000 0.000000 0.000000 0.034200
    7 17.186247 0.000000 0.000000 0.042340 0.040968 -1.071635
    8 7.154630 0.000000 0.000000 -0.084358 -0.004949 -0.584361
    9 0.000000 3.478935 -3.101174 1.570796 0.083193 1.570796
    10 4.155655 0.000000 0.000000 0.000000 0.000000 -0.028816
    11 3.661129 0.000000 0.000000 0.000000 0.000000 0.097307
    12 9.278336 0.000000 0.000000 0.000000 0.000000 0.186413
    13 3.438606 -0.000001 0.000000 3.141590 0.000000 0.406109
    14 3.746082 0.000000 0.000000 0.000000 -0.000001 0.405033
    15 2.141911 1.017039 2.015167 1.589740 -1.286515 2.950147
    16 6.269266 0.000000 0.000000 -1.437168 0.051344 -0.580810
    17 12.160242 0.000001 0.000008 0.000000 0.000000 -0.060372
    18 11.940941 -0.000001 -0.000031 1.568292 -0.038709 0.036022
    19 4.036621 0.223289 0.416267 0.087707 0.031641 -0.519952
    20 1.788361 -0.000008 -0.000002 0.000000 0.005005 -0.366486
    21 1.257549 0.000002 -0.000001 0.000000 0.002798 -0.216403
    22 4.026138 0.122124 1.352942 0.352467 -0.032975 -0.463848
    23 1.788210 0.000002 0.000002 0.000001 0.005107 -0.362997
    24 1.143646 0.000004 0.000000 0.000001 0.003256 -0.244323
    25 0.872383 -0.312286 1.365287 -1.251009 -0.669800 -0.720133
    26 1.861385 -0.000003 -0.000002 0.000000 -0.002159 0.228630
    27 1.255283 -0.000001 -0.000006 0.000000 -0.003300 0.363014
    28 2.141914 1.017039 -2.015167 -1.661569 1.286515 2.950147
    29 6.269262 0.000011 0.000000 1.520804 -0.011906 -0.583413
    30 12.160252 0.000001 -0.000008 0.000000 0.000000 -0.060372
    31 11.940960 0.000000 0.000000 -1.559993 0.038701 0.036022
    32 4.036597 0.219810 -0.418107 -0.087717 -0.035763 -0.519701
    33 1.788357 0.000000 0.000000 0.000000 -0.007584 -0.366444
    34 1.257545 -0.000002 0.000000 0.000000 -0.004241 -0.216381
    35 4.026107 0.110886 -1.353903 -0.352486 0.029262 -0.464071
    36 1.788195 -0.000004 0.000000 0.000000 -0.007737 -0.362954
    37 1.143646 0.000002 -0.000002 0.000000 -0.004929 -0.244296
    38 0.872357 -0.323635 -1.362646 1.248034 0.664310 -0.725027
    39 1.861374 0.000001 0.000004 0.000000 0.003280 0.228617
    40 1.255280 0.000001 0.000004 0.000000 0.005011 0.362995
    41 11.940960 0.000000 0.000000 0.008510 0.000000 0.000000
    42 11.940964 -0.000003 0.000004 -0.001005 0.000000 0.000000
    43 5.970486 -0.000001 0.000004 -0.000544 0.000000 0.000000
    44 5.970478 0.000000 0.000004 0.004600 0.000000 0.000000
    45 -43.648499 -1.081625 0.000030 0.000000 -1.570796 -1.487604
    46 -2.000000 4.000000 -2.354678 3.038658 0.018233 -2.311713
    47 -3.606653 -3.344002 -2.883345 -3.015749 0.086838 -1.481232
    48 0.000000 0.000000 0.000000 0.000000 0.000000 0.000000
    49 2.000008 -3.000002 0.000000 -1.570796 0.000000 -1.326450
end
triangles
body
  30 -22.708889 4.337337 42.797855 -0.892709 0.449698 -0.029013 0.168548 0.986339 1 30 1.000000
  30 -21.681377 4.074078 41.917809 -0.892712 0.449692 -0.029017 0.190107 1.000000 1 30 1.000000
  30 -23.520046 4.012980 43.171516 -0.892732 0.449653 -0.029024 0.152870 0.986339 1 30 1.000000
body
  11 -9.648754 2.493798 55.340591 0.290409 -0.118635 -0.949520 0.001960 0.621400 1 11 1.000000
  29 -8.376760 -1.495453 58.471737 -0.491693 -0.843903 -0.214630 0.066635 0.594079 1 29 1.000000
  29 -10.345893 2.341235 54.650776 -0.090787 0.044919 -0.994857 0.007840 0.711172 1 29 1.000000
body
  29 -8.376760 -1.495453 58.471737 -0.491693 -0.843903 -0.214630 0.066635 0.594079 1 29 1.000000
  29 -13.352063 -0.347545 53.397026 0.038617 -0.787360 -0.615283 0.060756 0.752154 1 29 1.000000
  29 -10.345893 2.341235 54.650776 -0.090787 0.044919 -0.994857 0.007840 0.711172 1 29 1.000000
body
  29 -10.345893 2.341235 54.650776 -0.090787 0.044919 -0.994857 0.007840 0.711172 1 29 1.000000
  29 -13.352063 -0.347545 53.397026 0.038617 -0.787360 -0.615283 0.060756 0.752154 1 29 1.000000
  29 -12.513744 2.126713 51.966274 0.108789 0.114546 -0.987443 0.011759 0.761912 1 29 1.000000
body
  29 -13.352063 -0.347545 53.397026 0.038617 -0.787360 -0.615283 0.060756 0.752154 1 29 1.000000
  30 -13.791318 2.136838 49.548996 0.024369 -0.115563 -0.993001 0.001960 0.802894 1 30 1.000000
  29 -12.513744 2.126713 51.966274 0.108789 0.114546 -0.987443 0.011759 0.761912 1 29 1.000000
body
  28 -9.753896 0.564121 62.275093 -0.185622 -0.304103 0.934380 0.137191 0.627255 1 28 1.000000
  29 -11.889998 0.102037 60.608604 -0.228203 -0.674571 0.702052 0.125431 0.650674 1 29 1.000000
  28 -8.303505 -1.019550 61.505173 -0.468259 -0.758012 0.454039 0.117592 0.592128 1 28 1.000000
body
  28 -8.303505 -1.019550 61.505173 -0.468259 -0.758012 0.454039 0.117592 0.592128 1 28 1.000000
  29 -11.889998 0.102037 60.608604 -0.228203 -0.674571 0.702052 0.125431 0.650674 1 29 1.000000
  29 -8.376760 -1.495453 58.471737 -0.491693 -0.843903 -0.214630 0.066635 0.594079 1 29 1.000000
body
  29 -11.889998 0.102037 60.608604 -0.228203 -0.674571 0.702052 0.125431 0.650674 1 29 1.000000
  29 -14.894228 -0.206197 54.439587 0.055296 -0.947483 0.314990 0.090154 0.754106 1 29 1.000000
  29 -8.376760 -1.495453 58.471737 -0.491693 -0.843903 -0.214630 0.066635 0.594079 1 29 1.000000
body
  29 -8.376760 -1.495453 58.471737 -0.491693 -0.843903 -0.214630 0.066635 0.594079 1 29 1.000000
  29 -14.894228 -0.206197 54.439587 0.055296 -0.947483 0.314990 0.090154 0.754106 1 29 1.000000
  29 -13.352063 -0.347545 53.397026 0.038617 -0.787360 -0.615283 0.060756 0.752154 1 29 1.000000
body
  29 -14.894228 -0.206197 54.439587 0.055296 -0.947483 0.314990 0.090154 0.754106 1 29 1.000000
  30 -15.477650 -0.825130 50.704006 0.022404 -0.951235 -0.307653 0.058796 0.804846 1 30 1.000000
  29 -13.352063 -0.347545 53.397026 0.038617 -0.787360 -0.615283 0.060756 0.752154 1 29 1.000000
body
  29 -13.352063 -0.347545 53.397026 0.038617 -0.787360 -0.615283 0.060756 0.752154 1 29 1.000000
  30 -15.477650 -0.825130 50.704006 0.022404 -0.951235 -0.307653 0.058796 0.804846 1 30 1.000000
  30 -13.791318 2.136838 49.548996 0.024369 -0.115563 -0.993001 0.001960 0.802894 1 30 1.000000
body
  30 -15.477650 -0.825130 50.704006 0.022404 -0.951235 -0.307653 0.058796 0.804846 1 30 1.000000
  30 -18.470982 -0.227850 46.196144 -0.045969 -0.896915 -0.439807 0.048996 0.888762 1 30 1.000000
  30 -13.791318 2.136838 49.548996 0.024369 -0.115563 -0.993001 0.001960 0.802894 1 30 1.000000
body
  30 -13.791318 2.136838 49.548996 0.024369 -0.115563 -0.993001 0.001960 0.802894 1 30 1.000000
  30 -18.470982 -0.227850 46.196144 -0.045969 -0.896915 -0.439807 0.048996 0.888762 1 30 1.000000
  30 -17.464882 2.525294 45.516121 -0.029380 0.165530 -0.985767 0.000000 0.888762 1 30 1.000000
body
  30 -18.470982 -0.227850 46.196144 -0.045969 -0.896915 -0.439807 0.048996 0.888762 1 30 1.000000
  30 -21.074606 0.292478 41.709232 -0.445497 -0.566357 -0.693377 0.033318 0.978534 1 30 1.000000
  30 -17.464882 2.525294 45.516121 -0.029380 0.165530 -0.985767 0.000000 0.888762 1 30 1.000000
body
  30 -17.464882 2.525294 45.516121 -0.029380 0.165530 -0.985767 0.000000 0.888762 1 30 1.000000
  30 -21.074606 0.292478 41.709232 -0.445497 -0.566357 -0.693377 0.033318 0.978534 1 30 1.000000
  30 -20.220560 2.341409 41.307236 -0.358295 0.060079 -0.931673 0.001960 0.978534 1 30 1.000000
body
  30 -21.074606 0.292478 41.709232 -0.445497 -0.566357 -0.693377 0.033318 0.978534 1 30 1.000000
  30 -21.960724 1.321628 41.743275 -0.641097 -0.057660 -0.765291 0.031358 0.996097 1 30 1.000000
  30 -20.220560 2.341409 41.307236 -0.358295 0.060079 -0.931673 0.001960 0.978534 1 30 1.000000
body
  30 -21.074606 0.292478 41.709232 -0.445497 -0.566357 -0.693377 0.033318 0.978534 1 30 1.000000
  30 -22.062260 -0.014552 42.245705 -0.648609 -0.726233 -0.227798 0.056836 0.972679 1 30 1.000000
  30 -21.960724 1.321628 41.743275 -0.641097 -0.057660 -0.765291 0.031358 0.996097 1 30 1.000000
body
  30 -21.960724 1.321628 41.743275 -0.641097 -0.057660 -0.765291 0.031358 0.996097 1 30 1.000000
  30 -22.062260 -0.014552 42.245705 -0.648609 -0.726233 -0.227798 0.056836 0.972679 1 30 1.000000
  30 -22.513174 0.495303 42.153568 0.069082 -0.916711 -0.393534 0.060756 0.986339 1 30 1.000000
body
  30 -22.513174 0.495303 42.153568 0.069082 -0.916711 -0.393534 0.060756 0.986339 1 30 1.000000
  30 -22.062260 -0.014552 42.245705 -0.648609 -0.726233 -0.227798 0.056836 0.972679 1 30 1.000000
  30 -23.070761 -0.041103 42.853920 -0.372517 -0.896131 0.241204 0.074475 0.974630 1 30 1.000000
body
  30 -22.062260 -0.014552 42.245705 -0.648609 -0.726233 -0.227798 0.056836 0.972679 1 30 1.000000
  30 -18.470982 -0.227850 46.196144 -0.045969 -0.896915 -0.439807 0.048996 0.888762 1 30 1.000000
  30 -23.070761 -0.041103 42.853920 -0.372517 -0.896131 0.241204 0.074475 0.974630 1 30 1.000000
body
  30 -23.070761 -0.041103 42.853920 -0.372517 -0.896131 0.241204 0.074475 0.974630 1 30 1.000000
  30 -18.470982 -0.227850 46.196144 -0.045969 -0.896915 -0.439807 0.048996 0.888762 1 30 1.000000
  30 -20.139057 0.087971 47.274818 -0.069726 -0.890775 0.449064 0.082314 0.892666 1 30 1.000000
body
  30 -18.470982 -0.227850 46.196144 -0.045969 -0.896915 -0.439807 0.048996 0.888762 1 30 1.000000
  30 -15.477650 -0.825130 50.704006 0.022404 -0.951235 -0.307653 0.058796 0.804846 1 30 1.000000
  30 -20.139057 0.087971 47.274818 -0.069726 -0.890775 0.449064 0.082314 0.892666 1 30 1.000000
body
  30 -20.139057 0.087971 47.274818 -0.069726 -0.890775 0.449064 0.082314 0.892666 1 30 1.000000
  30 -15.477650 -0.825130 50.704006 0.022404 -0.951235 -0.307653 0.058796 0.804846 1 30 1.000000
  30 -16.861349 -1.052977 51.814434 0.000026 -0.780836 0.624736 0.084274 0.804846 1 30 1.000000
body
  30 -18.470982 -0.227850 46.196144 -0.045969 -0.896915 -0.439807 0.048996 0.888762 1 30 1.000000
  30 -22.062260 -0.014552 42.245705 -0.648609 -0.726233 -0.227798 0.056836 0.972679 1 30 1.000000
  30 -21.074606 0.292478 41.709232 -0.445497 -0.566357 -0.693377 0.033318 0.978534 1 30 1.000000
body
  30 -15.477650 -0.825130 50.704006 0.022404 -0.951235 -0.307653 0.058796 0.804846 1 30 1.000000
  29 -14.894228 -0.206197 54.439587 0.055296 -0.947483 0.314990 0.090154 0.754106 1 29 1.000000
  30 -16.861349 -1.052977 51.814434 0.000026 -0.780836 0.624736 0.084274 0.804846 1 30 1.000000
body
  30 -16.861349 -1.052977 51.814434 0.000026 -0.780836 0.624736 0.084274 0.804846 1 30 1.000000
  29 -14.894228 -0.206197 54.439587 0.055296 -0.947483 0.314990 0.090154 0.754106 1 29 1.000000
  29 -15.771580 0.614020 54.789196 0.045193 -0.493112 0.868791 0.109752 0.759960 1 29 1.000000
body
  29 -14.894228 -0.206197 54.439587 0.055296 -0.947483 0.314990 0.090154 0.754106 1 29 1.000000
  29 -11.889998 0.102037 60.608604 -0.228203 -0.674571 0.702052 0.125431 0.650674 1 29 1.000000
  29 -15.771580 0.614020 54.789196 0.045193 -0.493112 0.868791 0.109752 0.759960 1 29 1.000000
body
  29 -15.771580 0.614020 54.789196 0.045193 -0.493112 0.868791 0.109752 0.759960 1 29 1.000000
  29 -11.889998 0.102037 60.608604 -0.228203 -0.674571 0.702052 0.125431 0.650674 1 29 1.000000
  29 -12.731578 3.481905 60.615402 -0.238846 0.128624 0.962501 0.180308 0.662383 1 29 1.000000
body
  29 -11.889998 0.102037 60.608604 -0.228203 -0.674571 0.702052 0.125431 0.650674 1 29 1.000000
  28 -9.753896 0.564121 62.275093 -0.185622 -0.304103 0.934380 0.137191 0.627255 1 28 1.000000
  29 -12.731578 3.481905 60.615402 -0.238846 0.128624 0.962501 0.180308 0.662383 1 29 1.000000
body
  29 -12.049902 4.917074 60.045826 -0.245373 0.879261 0.408279 0.209705 0.666287 1 29 1.000000
  29 -15.825953 3.881890 54.655312 0.005092 0.605654 0.795712 0.180308 0.769719 1 29 1.000000
  29 -12.731578 3.481905 60.615402 -0.238846 0.128624 0.962501 0.180308 0.662383 1 29 1.000000
body
  29 -15.825953 3.881890 54.655312 0.005092 0.605654 0.795712 0.180308 0.769719 1 29 1.000000
  29 -16.413242 2.332641 54.930168 0.094833 0.032970 0.994947 0.148950 0.767766 1 29 1.000000
  29 -12.731578 3.481905 60.615402 -0.238846 0.128624 0.962501 0.180308 0.662383 1 29 1.000000
body
  29 -12.731578 3.481905 60.615402 -0.238846 0.128624 0.962501 0.180308 0.662383 1 29 1.000000
  29 -16.413242 2.332641 54.930168 0.094833 0.032970 0.994947 0.148950 0.767766 1 29 1.000000
  29 -15.771580 0.614020 54.789196 0.045193 -0.493112 0.868791 0.109752 0.759960 1 29 1.000000
body
  29 -16.413242 2.332641 54.930168 0.094833 0.032970 0.994947 0.148950 0.767766 1 29 1.000000
  30 -17.971176 2.388635 53.688282 0.114331 0.050691 0.992148 0.145030 0.798991 1 30 1.000000
  29 -15.771580 0.614020 54.789196 0.045193 -0.493112 0.868791 0.109752 0.759960 1 29 1.000000
body
  29 -15.771580 0.614020 54.789196 0.045193 -0.493112 0.868791 0.109752 0.759960 1 29 1.000000
  30 -17.971176 2.388635 53.688282 0.114331 0.050691 0.992148 0.145030 0.798991 1 30 1.000000
  30 -16.861349 -1.052977 51.814434 0.000026 -0.780836 0.624736 0.084274 0.804846 1 30 1.000000
body
  30 -17.971176 2.388635 53.688282 0.114331 0.050691 0.992148 0.145030 0.798991 1 30 1.000000
  30 -18.916039 2.493252 52.520222 -0.015769 0.195600 0.980557 0.143070 0.822410 1 30 1.000000
  30 -16.861349 -1.052977 51.814434 0.000026 -0.780836 0.624736 0.084274 0.804846 1 30 1.000000
body
  30 -16.861349 -1.052977 51.814434 0.000026 -0.780836 0.624736 0.084274 0.804846 1 30 1.000000
  30 -18.916039 2.493252 52.520222 -0.015769 0.195600 0.980557 0.143070 0.822410 1 30 1.000000
  30 -21.475147 2.742466 48.332111 -0.097827 0.047796 0.994055 0.135231 0.898519 1 30 1.000000
body
  30 -18.916039 2.493252 52.520222 -0.015769 0.195600 0.980557 0.143070 0.822410 1 30 1.000000
  30 -18.247318 5.383694 49.735348 -0.067518 0.959022 0.275169 0.192066 0.859489 1 30 1.000000
  30 -21.475147 2.742466 48.332111 -0.097827 0.047796 0.994055 0.135231 0.898519 1 30 1.000000
body
  30 -16.299841 5.377565 52.155933 0.106224 0.894822 0.433601 0.201866 0.812651 1 30 1.000000
  30 -18.247318 5.383694 49.735348 -0.067518 0.959022 0.275169 0.192066 0.859489 1 30 1.000000
  30 -18.916039 2.493252 52.520222 -0.015769 0.195600 0.980557 0.143070 0.822410 1 30 1.000000
body
  30 -16.299841 5.377565 52.155933 0.106224 0.894822 0.433601 0.201866 0.812651 1 30 1.000000
  30 -18.916039 2.493252 52.520222 -0.015769 0.195600 0.980557 0.143070 0.822410 1 30 1.000000
  30 -17.971176 2.388635 53.688282 0.114331 0.050691 0.992148 0.145030 0.798991 1 30 1.000000
body
  30 -16.299841 5.377565 52.155933 0.106224 0.894822 0.433601 0.201866 0.812651 1 30 1.000000
  30 -17.971176 2.388635 53.688282 0.114331 0.050691 0.992148 0.145030 0.798991 1 30 1.000000
  29 -15.825953 3.881890 54.655312 0.005092 0.605654 0.795712 0.180308 0.769719 1 29 1.000000
body
  30 -17.971176 2.388635 53.688282 0.114331 0.050691 0.992148 0.145030 0.798991 1 30 1.000000
  29 -16.413242 2.332641 54.930168 0.094833 0.032970 0.994947 0.148950 0.767766 1 29 1.000000
  29 -15.825953 3.881890 54.655312 0.005092 0.605654 0.795712 0.180308 0.769719 1 29 1.000000
body
  30 -16.299841 5.377565 52.155933 0.106224 0.894822 0.433601 0.201866 0.812651 1 30 1.000000
  29 -15.825953 3.881890 54.655312 0.005092 0.605654 0.795712 0.180308 0.769719 1 29 1.000000
  29 -14.673429 4.676934 54.412010 0.035197 0.965935 0.256379 0.205785 0.767766 1 29 1.000000
body
  30 -20.139057 0.087971 47.274818 -0.069726 -0.890775 0.449064 0.082314 0.892666 1 30 1.000000
  30 -16.861349 -1.052977 51.814434 0.000026 -0.780836 0.624736 0.084274 0.804846 1 30 1.000000
  30 -21.475147 2.742466 48.332111 -0.097827 0.047796 0.994055 0.135231 0.898519 1 30 1.000000
body
  30 -24.270683 1.086862 43.644020 -0.410890 -0.419314 0.809534 0.107793 0.980485 1 30 1.000000
  30 -20.139057 0.087971 47.274818 -0.069726 -0.890775 0.449064 0.082314 0.892666 1 30 1.000000
  30 -21.475147 2.742466 48.332111 -0.097827 0.047796 0.994055 0.135231 0.898519 1 30 1.000000
body
  30 -24.270683 1.086862 43.644020 -0.410890 -0.419314 0.809534 0.107793 0.980485 1 30 1.000000
  30 -23.070761 -0.041103 42.853920 -0.372517 -0.896131 0.241204 0.074475 0.974630 1 30 1.000000
  30 -20.139057 0.087971 47.274818 -0.069726 -0.890775 0.449064 0.082314 0.892666 1 30 1.000000
body
  30 -24.270683 1.086862 43.644020 -0.410890 -0.419314 0.809534 0.107793 0.980485 1 30 1.000000
  30 -24.083057 1.095482 43.155952 -0.022277 -0.528264 0.848788 0.103873 0.988291 1 30 1.000000
  30 -23.070761 -0.041103 42.853920 -0.372517 -0.896131 0.241204 0.074475 0.974630 1 30 1.000000
body
  30 -24.270683 1.086862 43.644020 -0.410890 -0.419314 0.809534 0.107793 0.980485 1 30 1.000000
  30 -24.039577 3.076761 43.370346 -0.185393 0.262640 0.946916 0.133271 0.986339 1 30 1.000000
  30 -24.083057 1.095482 43.155952 -0.022277 -0.528264 0.848788 0.103873 0.988291 1 30 1.000000
body
  30 -24.270683 1.086862 43.644020 -0.410890 -0.419314 0.809534 0.107793 0.980485 1 30 1.000000
  30 -21.475147 2.742466 48.332111 -0.097827 0.047796 0.994055 0.135231 0.898519 1 30 1.000000
  30 -24.039577 3.076761 43.370346 -0.185393 0.262640 0.946916 0.133271 0.986339 1 30 1.000000
body
  30 -23.520046 4.012980 43.171516 -0.138483 0.841056 0.522922 0.152870 0.986339 1 30 1.000000
  30 -24.039577 3.076761 43.370346 -0.185393 0.262640 0.946916 0.133271 0.986339 1 30 1.000000
  30 -21.475147 2.742466 48.332111 -0.097827 0.047796 0.994055 0.135231 0.898519 1 30 1.000000
body
  30 -21.475147 2.742466 48.332111 -0.097827 0.047796 0.994055 0.135231 0.898519 1 30 1.000000
  30 -18.247318 5.383694 49.735348 -0.067518 0.959022 0.275169 0.192066 0.859489 1 30 1.000000
  30 -23.520046 4.012980 43.171516 -0.138483 0.841056 0.522922 0.152870 0.986339 1 30 1.000000
body
  30 -18.247318 5.383694 49.735348 -0.067518 0.959022 0.275169 0.192066 0.859489 1 30 1.000000
  30 -22.708889 4.337337 42.797855 -0.134106 0.990965 0.001752 0.168548 0.986339 1 30 1.000000
  30 -23.520046 4.012980 43.171516 -0.138483 0.841056 0.522922 0.152870 0.986339 1 30 1.000000
body
  30 -22.708889 4.337337 42.797855 -0.134106 0.990965 0.001752 0.168548 0.986339 1 30 1.000000
  30 -18.247318 5.383694 49.735348 -0.067518 0.959022 0.275169 0.192066 0.859489 1 30 1.000000
  30 -19.156746 4.740434 45.838882 -0.108580 0.879611 -0.463135 0.201866 0.919987 1 30 1.000000
body
  30 -19.156746 4.740434 45.838882 -0.108580 0.879611 -0.463135 0.201866 0.919987 1 30 1.000000
  30 -18.247318 5.383694 49.735348 -0.067518 0.959022 0.275169 0.192066 0.859489 1 30 1.000000
  30 -16.615900 4.889270 48.311356 -0.073694 0.749380 -0.658026 0.213625 0.867295 1 30 1.000000
body
  30 -18.247318 5.383694 49.735348 -0.067518 0.959022 0.275169 0.192066 0.859489 1 30 1.000000
  30 -14.620270 4.983240 50.925030 0.086022 0.805284 -0.586615 0.223424 0.816555 1 30 1.000000
  30 -16.615900 4.889270 48.311356 -0.073694 0.749380 -0.658026 0.213625 0.867295 1 30 1.000000
body
  30 -16.299841 5.377565 52.155933 0.106224 0.894822 0.433601 0.201866 0.812651 1 30 1.000000
  30 -14.620270 4.983240 50.925030 0.086022 0.805284 -0.586615 0.223424 0.816555 1 30 1.000000
  30 -18.247318 5.383694 49.735348 -0.067518 0.959022 0.275169 0.192066 0.859489 1 30 1.000000
body
  30 -16.299841 5.377565 52.155933 0.106224 0.894822 0.433601 0.201866 0.812651 1 30 1.000000
  29 -13.148167 4.648899 54.015553 0.084160 0.872431 -0.481436 0.233224 0.763864 1 29 1.000000
  30 -14.620270 4.983240 50.925030 0.086022 0.805284 -0.586615 0.223424 0.816555 1 30 1.000000
body
  30 -16.299841 5.377565 52.155933 0.106224 0.894822 0.433601 0.201866 0.812651 1 30 1.000000
  29 -14.673429 4.676934 54.412010 0.035197 0.965935 0.256379 0.205785 0.767766 1 29 1.000000
  29 -13.148167 4.648899 54.015553 0.084160 0.872431 -0.481436 0.233224 0.763864 1 29 1.000000
body
  29 -13.148167 4.648899 54.015553 0.084160 0.872431 -0.481436 0.233224 0.763864 1 29 1.000000
  29 -14.673429 4.676934 54.412010 0.035197 0.965935 0.256379 0.205785 0.767766 1 29 1.000000
  29 -9.947352 4.966812 58.260357 -0.163746 0.899242 -0.405648 0.250862 0.679947 1 29 1.000000
body
  29 -9.947352 4.966812 58.260357 -0.163746 0.899242 -0.405648 0.250862 0.679947 1 29 1.000000
  29 -14.673429 4.676934 54.412010 0.035197 0.965935 0.256379 0.205785 0.767766 1 29 1.000000
  29 -12.049902 4.917074 60.045826 -0.245373 0.879261 0.408279 0.209705 0.666287 1 29 1.000000
body
  29 -14.673429 4.676934 54.412010 0.035197 0.965935 0.256379 0.205785 0.767766 1 29 1.000000
  29 -15.825953 3.881890 54.655312 0.005092 0.605654 0.795712 0.180308 0.769719 1 29 1.000000
  29 -12.049902 4.917074 60.045826 -0.245373 0.879261 0.408279 0.209705 0.666287 1 29 1.000000
body
  30 -22.708889 4.337337 42.797855 -0.134106 0.990965 0.001752 0.168548 0.986339 1 30 1.000000
  30 -19.156746 4.740434 45.838882 -0.108580 0.879611 -0.463135 0.201866 0.919987 1 30 1.000000
  30 -21.681377 4.074078 41.917809 -0.515532 0.699695 -0.494625 0.190107 1.000000 1 30 1.000000
body
  30 -21.681377 4.074078 41.917809 -0.515532 0.699695 -0.494625 0.190107 1.000000 1 30 1.000000
  30 -19.156746 4.740434 45.838882 -0.108580 0.879611 -0.463135 0.201866 0.919987 1 30 1.000000
  30 -17.464882 2.525294 45.516121 -0.029380 0.165530 -0.985767 0.256742 0.923890 1 30 1.000000
body
  30 -19.156746 4.740434 45.838882 -0.108580 0.879611 -0.463135 0.201866 0.919987 1 30 1.000000
  30 -16.615900 4.889270 48.311356 -0.073694 0.749380 -0.658026 0.213625 0.867295 1 30 1.000000
  30 -17.464882 2.525294 45.516121 -0.029380 0.165530 -0.985767 0.256742 0.923890 1 30 1.000000
body
  30 -17.464882 2.525294 45.516121 -0.029380 0.165530 -0.985767 0.256742 0.923890 1 30 1.000000
  30 -16.615900 4.889270 48.311356 -0.073694 0.749380 -0.658026 0.213625 0.867295 1 30 1.000000
  30 -13.791318 2.136838 49.548996 0.024369 -0.115563 -0.993001 0.278301 0.838022 1 30 1.000000
body
  30 -16.615900 4.889270 48.311356 -0.073694 0.749380 -0.658026 0.213625 0.867295 1 30 1.000000
  30 -14.620270 4.983240 50.925030 0.086022 0.805284 -0.586615 0.223424 0.816555 1 30 1.000000
  30 -13.791318 2.136838 49.548996 0.024369 -0.115563 -0.993001 0.278301 0.838022 1 30 1.000000
body
  30 -13.791318 2.136838 49.548996 0.024369 -0.115563 -0.993001 0.278301 0.838022 1 30 1.000000
  30 -14.620270 4.983240 50.925030 0.086022 0.805284 -0.586615 0.223424 0.816555 1 30 1.000000
  29 -12.513744 2.126713 51.966274 0.108789 0.114546 -0.987443 0.278301 0.793136 1 29 1.000000
body
  30 -14.620270 4.983240 50.925030 0.086022 0.805284 -0.586615 0.223424 0.816555 1 30 1.000000
  29 -13.148167 4.648899 54.015553 0.084160 0.872431 -0.481436 0.233224 0.763864 1 29 1.000000
  29 -12.513744 2.126713 51.966274 0.108789 0.114546 -0.987443 0.278301 0.793136 1 29 1.000000
body
  29 -12.513744 2.126713 51.966274 0.108789 0.114546 -0.987443 0.278301 0.793136 1 29 1.000000
  29 -13.148167 4.648899 54.015553 0.084160 0.872431 -0.481436 0.233224 0.763864 1 29 1.000000
  29 -10.345893 2.341235 54.650776 -0.090787 0.044919 -0.994857 0.288099 0.744347 1 29 1.000000
body
  29 -10.345893 2.341235 54.650776 -0.090787 0.044919 -0.994857 0.288099 0.744347 1 29 1.000000
  29 -13.148167 4.648899 54.015553 0.084160 0.872431 -0.481436 0.233224 0.763864 1 29 1.000000
  29 -9.947352 4.966812 58.260357 -0.163746 0.899242 -0.405648 0.250862 0.679947 1 29 1.000000
body
  29 -10.345893 2.341235 54.650776 -0.090787 0.044919 -0.994857 0.288099 0.744347 1 29 1.000000
  29 -9.947352 4.966812 58.260357 -0.163746 0.899242 -0.405648 0.250862 0.679947 1 29 1.000000
  11 -9.648754 2.493798 55.340591 0.290409 -0.118635 -0.949520 0.317497 0.666287 1 11 1.000000
body
  11 -9.648754 2.493798 55.340591 0.290409 -0.118635 -0.949520 0.317497 0.666287 1 11 1.000000
  29 -9.947352 4.966812 58.260357 -0.163746 0.899242 -0.405648 0.250862 0.679947 1 29 1.000000
  29 -8.984081 5.993879 57.967926 -0.670803 0.657326 -0.343432 0.274381 0.629207 1 29 1.000000
body
  29 -9.947352 4.966812 58.260357 -0.163746 0.899242 -0.405648 0.250862 0.679947 1 29 1.000000
  29 -12.049902 4.917074 60.045826 -0.245373 0.879261 0.408279 0.209705 0.666287 1 29 1.000000
  29 -8.984081 5.993879 57.967926 -0.670803 0.657326 -0.343432 0.274381 0.629207 1 29 1.000000
body
  29 -8.984081 5.993879 57.967926 -0.670803 0.657326 -0.343432 0.274381 0.629207 1 29 1.000000
  29 -12.049902 4.917074 60.045826 -0.245373 0.879261 0.408279 0.209705 0.666287 1 29 1.000000
  28 -9.192735 5.904658 61.900417 -0.561461 0.674098 0.479951 0.221464 0.613594 1 28 1.000000
body
  29 -12.049902 4.917074 60.045826 -0.245373 0.879261 0.408279 0.209705 0.666287 1 29 1.000000
  29 -12.731578 3.481905 60.615402 -0.238846 0.128624 0.962501 0.180308 0.662383 1 29 1.000000
  28 -9.192735 5.904658 61.900417 -0.561461 0.674098 0.479951 0.221464 0.613594 1 28 1.000000
body
  28 -9.192735 5.904658 61.900417 -0.561461 0.674098 0.479951 0.221464 0.613594 1 28 1.000000
  29 -12.731578 3.481905 60.615402 -0.238846 0.128624 0.962501 0.180308 0.662383 1 29 1.000000
  28 -10.177523 3.884864 62.531685 -0.110199 0.104553 0.988395 0.188147 0.631158 1 28 1.000000
body
  29 -12.731578 3.481905 60.615402 -0.238846 0.128624 0.962501 0.180308 0.662383 1 29 1.000000
  28 -9.753896 0.564121 62.275093 -0.185622 -0.304103 0.934380 0.137191 0.627255 1 28 1.000000
  28 -10.177523 3.884864 62.531685 -0.110199 0.104553 0.988395 0.188147 0.631158 1 28 1.000000
body
  28 -10.177523 3.884864 62.531685 -0.110199 0.104553 0.988395 0.188147 0.631158 1 28 1.000000
  28 -9.753896 0.564121 62.275093 -0.185622 -0.304103 0.934380 0.137191 0.627255 1 28 1.000000
  28 -8.503808 0.685653 62.263409 0.030616 -0.212909 0.976592 0.143070 0.599934 1 28 1.000000
body
  28 -8.503808 0.685653 62.263409 0.030616 -0.212909 0.976592 0.143070 0.599934 1 28 1.000000
  28 -9.753896 0.564121 62.275093 -0.185622 -0.304103 0.934380 0.137191 0.627255 1 28 1.000000
  28 -8.303505 -1.019550 61.505173 -0.468259 -0.758012 0.454039 0.117592 0.592128 1 28 1.000000
body
  30 -21.681377 4.074078 41.917809 -0.515532 0.699695 -0.494625 0.190107 1.000000 1 30 1.000000
  30 -17.464882 2.525294 45.516121 -0.029380 0.165530 -0.985767 0.256742 0.923890 1 30 1.000000
  30 -20.220560 2.341409 41.307236 -0.358295 0.060079 -0.931673 0.233224 0.998049 1 30 1.000000
body
  28 -9.192735 5.904658 61.900417 -0.561461 0.674098 0.479951 0.221464 0.613594 1 28 1.000000
  28 -10.177523 3.884864 62.531685 -0.110199 0.104553 0.988395 0.188147 0.631158 1 28 1.000000
  28 -8.845668 4.051763 62.468163 -0.052162 0.062237 0.996697 0.192066 0.611643 1 28 1.000000
body
  28 -8.845668 4.051763 62.468163 -0.052162 0.062237 0.996697 0.192066 0.611643 1 28 1.000000
  28 -10.177523 3.884864 62.531685 -0.110199 0.104553 0.988395 0.188147 0.631158 1 28 1.000000
  28 -8.503808 0.685653 62.263409 0.030616 -0.212909 0.976592 0.143070 0.599934 1 28 1.000000
body
  38 -23.410780 -0.333811 39.118774 -0.071984 0.452013 -0.889102 0.041157 0.557000 1 38 1.000000
  31 -23.893227 0.549139 39.837883 -0.595980 0.583814 -0.551334 0.041157 0.543339 1 31 1.000000
  31 -22.284290 0.462748 41.247211 0.400211 -0.178612 -0.898849 0.011759 0.516017 1 31 1.000000
body
  38 -23.410780 -0.333811 39.118774 -0.071984 0.452013 -0.889102 0.041157 0.557000 1 38 1.000000
  38 -24.081436 -0.161572 39.109539 -0.708311 0.702872 0.065320 0.052916 0.557000 1 38 1.000000
  31 -23.893227 0.549139 39.837883 -0.595980 0.583814 -0.551334 0.041157 0.543339 1 31 1.000000
body
  38 -23.410780 -0.333811 39.118774 -0.071984 0.452013 -0.889102 0.041157 0.557000 1 38 1.000000
  38 -24.113792 -1.013198 37.700249 -0.693773 0.417820 -0.586605 0.064675 0.578466 1 38 1.000000
  38 -24.081436 -0.161572 39.109539 -0.708311 0.702872 0.065320 0.052916 0.557000 1 38 1.000000
body
  31 -23.893227 0.549139 39.837883 -0.595980 0.583814 -0.551334 0.041157 0.543339 1 31 1.000000
  30 -21.960724 1.321628 41.743275 -0.641097 -0.057660 -0.765291 0.009800 0.496502 1 30 1.000000
  31 -22.284290 0.462748 41.247211 0.400211 -0.178612 -0.898849 0.011759 0.516017 1 31 1.000000
body
  30 -21.960724 1.321628 41.743275 -0.641097 -0.057660 -0.765291 0.009800 0.496502 1 30 1.000000
  30 -22.513174 0.495303 42.153568 0.069082 -0.916711 -0.393534 0.003919 0.516017 1 30 1.000000
  31 -22.284290 0.462748 41.247211 0.400211 -0.178612 -0.898849 0.011759 0.516017 1 31 1.000000
body
  31 -22.284290 0.462748 41.247211 0.400211 -0.178612 -0.898849 0.011759 0.516017 1 31 1.000000
  30 -22.513174 0.495303 42.153568 0.069082 -0.916711 -0.393534 0.003919 0.516017 1 30 1.000000
  31 -22.961393 -0.360284 41.170807 0.599054 -0.800698 -0.004180 0.011759 0.537485 1 31 1.000000
body
  31 -22.284290 0.462748 41.247211 0.400211 -0.178612 -0.898849 0.011759 0.516017 1 31 1.000000
  31 -22.961393 -0.360284 41.170807 0.599054 -0.800698 -0.004180 0.011759 0.537485 1 31 1.000000
  38 -23.023317 -0.885199 39.800926 0.469975 -0.548015 -0.691955 0.019598 0.545291 1 38 1.000000
body
  38 -23.410780 -0.333811 39.118774 -0.071984 0.452013 -0.889102 0.041157 0.557000 1 38 1.000000
  31 -22.284290 0.462748 41.247211 0.400211 -0.178612 -0.898849 0.011759 0.516017 1 31 1.000000
  38 -23.023317 -0.885199 39.800926 0.469975 -0.548015 -0.691955 0.019598 0.545291 1 38 1.000000
body
  38 -23.410780 -0.333811 39.118774 -0.071984 0.452013 -0.889102 0.041157 0.557000 1 38 1.000000
  38 -23.023317 -0.885199 39.800926 0.469975 -0.548015 -0.691955 0.019598 0.545291 1 38 1.000000
  38 -23.906948 -1.767027 38.024109 0.022009 -0.656097 -0.754356 0.054877 0.588225 1 38 1.000000
body
  38 -23.410780 -0.333811 39.118774 -0.071984 0.452013 -0.889102 0.041157 0.557000 1 38 1.000000
  38 -23.906948 -1.767027 38.024109 0.022009 -0.656097 -0.754356 0.054877 0.588225 1 38 1.000000
  38 -24.113792 -1.013198 37.700249 -0.693773 0.417820 -0.586605 0.064675 0.578466 1 38 1.000000
body
  38 -23.906948 -1.767027 38.024109 0.022009 -0.656097 -0.754356 0.054877 0.588225 1 38 1.000000
  38 -24.468447 -1.639312 37.841110 -0.869465 -0.450628 -0.202399 0.064675 0.590176 1 38 1.000000
  38 -24.113792 -1.013198 37.700249 -0.693773 0.417820 -0.586605 0.064675 0.578466 1 38 1.000000
body
  31 -24.799919 4.422416 40.555508 -0.078883 0.870166 -0.486403 0.084274 0.486744 1 31 1.000000
  30 -23.520046 4.012980 43.171516 -0.138483 0.841056 0.522922 0.029398 0.465277 1 30 1.000000
  30 -22.215570 3.813200 42.138195 -0.645716 0.497115 -0.579592 0.025479 0.473083 1 30 1.000000
body
  30 -22.215570 3.813200 42.138195 -0.645716 0.497115 -0.579592 0.025479 0.473083 1 30 1.000000
  31 -23.645611 2.043239 40.802933 -0.456878 0.267740 -0.848279 0.041157 0.510163 1 31 1.000000
  31 -24.799919 4.422416 40.555508 -0.078883 0.870166 -0.486403 0.084274 0.486744 1 31 1.000000
body
  30 -21.960724 1.321628 41.743275 -0.641097 -0.057660 -0.765291 0.009800 0.496502 1 30 1.000000
  31 -23.645611 2.043239 40.802933 -0.456878 0.267740 -0.848279 0.041157 0.510163 1 31 1.000000
  30 -22.215570 3.813200 42.138195 -0.645716 0.497115 -0.579592 0.025479 0.473083 1 30 1.000000
body
  32 -26.638725 2.429176 37.900135 -0.078049 -0.385681 -0.919325 0.096033 0.543339 1 32 1.000000
  32 -26.762831 3.582837 36.506058 -0.417537 0.418573 -0.806511 0.129351 0.543339 1 32 1.000000
  32 -26.447542 4.486375 37.440826 -0.109411 0.512163 -0.851891 0.115632 0.514066 1 32 1.000000
body
  32 -26.703918 3.164910 36.244049 -0.451246 -0.423912 -0.785287 0.131310 0.555049 1 32 1.000000
  32 -26.762831 3.582837 36.506058 -0.417537 0.418573 -0.806511 0.129351 0.543339 1 32 1.000000
  32 -26.638725 2.429176 37.900135 -0.078049 -0.385681 -0.919325 0.096033 0.543339 1 32 1.000000
body
  32 -26.703918 3.164910 36.244049 -0.451246 -0.423912 -0.785287 0.131310 0.555049 1 32 1.000000
  32 -26.638725 2.429176 37.900135 -0.078049 -0.385681 -0.919325 0.096033 0.543339 1 32 1.000000
  32 -27.208366 2.035387 38.422680 -0.378408 -0.892962 0.243774 0.103873 0.551145 1 32 1.000000
body
  32 -26.703918 3.164910 36.244049 -0.451246 -0.423912 -0.785287 0.131310 0.555049 1 32 1.000000
  32 -27.208366 2.035387 38.422680 -0.378408 -0.892962 0.243774 0.103873 0.551145 1 32 1.000000
  32 -27.287111 2.889863 36.324108 -0.812943 -0.454282 0.364351 0.133271 0.560903 1 32 1.000000
body
  32 -26.703918 3.164910 36.244049 -0.451246 -0.423912 -0.785287 0.131310 0.555049 1 32 1.000000
  32 -27.287111 2.889863 36.324108 -0.812943 -0.454282 0.364351 0.133271 0.560903 1 32 1.000000
  32 -27.120659 3.391236 36.134586 -0.897120 0.424603 -0.122017 0.137191 0.553096 1 32 1.000000
body
  32 -26.703918 3.164910 36.244049 -0.451246 -0.423912 -0.785287 0.131310 0.555049 1 32 1.000000
  32 -27.120659 3.391236 36.134586 -0.897120 0.424603 -0.122017 0.137191 0.553096 1 32 1.000000
  32 -26.762831 3.582837 36.506058 -0.417537 0.418573 -0.806511 0.129351 0.543339 1 32 1.000000
body
  32 -27.328644 3.513664 36.569637 -0.767790 0.356939 0.532064 0.135231 0.545291 1 32 1.000000
  32 -26.762831 3.582837 36.506058 -0.417537 0.418573 -0.806511 0.129351 0.543339 1 32 1.000000
  32 -27.120659 3.391236 36.134586 -0.897120 0.424603 -0.122017 0.137191 0.553096 1 32 1.000000
body
  32 -26.762831 3.582837 36.506058 -0.417537 0.418573 -0.806511 0.129351 0.543339 1 32 1.000000
  32 -27.328644 3.513664 36.569637 -0.767790 0.356939 0.532064 0.135231 0.545291 1 32 1.000000
  32 -27.120457 3.975077 36.497086 -0.862985 0.504371 -0.029437 0.133271 0.535532 1 32 1.000000
body
  32 -26.447542 4.486375 37.440826 -0.109411 0.512163 -0.851891 0.115632 0.514066 1 32 1.000000
  32 -26.762831 3.582837 36.506058 -0.417537 0.418573 -0.806511 0.129351 0.543339 1 32 1.000000
  32 -27.120457 3.975077 36.497086 -0.862985 0.504371 -0.029437 0.133271 0.535532 1 32 1.000000
body
  32 -26.447542 4.486375 37.440826 -0.109411 0.512163 -0.851891 0.115632 0.514066 1 32 1.000000
  32 -27.120457 3.975077 36.497086 -0.862985 0.504371 -0.029437 0.133271 0.535532 1 32 1.000000
  32 -26.974848 4.811985 37.153263 -0.391742 0.837121 0.381794 0.129351 0.512115 1 32 1.000000
body
  32 -26.697617 4.726490 39.109669 0.083401 0.975852 0.201883 0.111712 0.496502 1 32 1.000000
  32 -26.447542 4.486375 37.440826 -0.109411 0.512163 -0.851891 0.115632 0.514066 1 32 1.000000
  32 -26.974848 4.811985 37.153263 -0.391742 0.837121 0.381794 0.129351 0.512115 1 32 1.000000
body
  32 -26.133076 4.610285 38.698959 -0.109307 0.521648 -0.846130 0.105833 0.500405 1 32 1.000000
  32 -26.447542 4.486375 37.440826 -0.109411 0.512163 -0.851891 0.115632 0.514066 1 32 1.000000
  32 -26.697617 4.726490 39.109669 0.083401 0.975852 0.201883 0.111712 0.496502 1 32 1.000000
body
  32 -26.697617 4.726490 39.109669 0.083401 0.975852 0.201883 0.111712 0.496502 1 32 1.000000
  31 -24.799919 4.422416 40.555508 -0.078883 0.870166 -0.486403 0.084274 0.486744 1 31 1.000000
  32 -26.133076 4.610285 38.698959 -0.109307 0.521648 -0.846130 0.105833 0.500405 1 32 1.000000
body
  31 -24.799919 4.422416 40.555508 -0.078883 0.870166 -0.486403 0.084274 0.486744 1 31 1.000000
  31 -24.929316 1.425545 39.962547 -0.409241 0.068808 -0.909828 0.070556 0.539436 1 31 1.000000
  32 -26.133076 4.610285 38.698959 -0.109307 0.521648 -0.846130 0.105833 0.500405 1 32 1.000000
body
  31 -23.645611 2.043239 40.802933 -0.456878 0.267740 -0.848279 0.041157 0.510163 1 31 1.000000
  31 -24.929316 1.425545 39.962547 -0.409241 0.068808 -0.909828 0.070556 0.539436 1 31 1.000000
  31 -24.799919 4.422416 40.555508 -0.078883 0.870166 -0.486403 0.084274 0.486744 1 31 1.000000
body
  31 -24.929316 1.425545 39.962547 -0.409241 0.068808 -0.909828 0.070556 0.539436 1 31 1.000000
  31 -23.645611 2.043239 40.802933 -0.456878 0.267740 -0.848279 0.041157 0.510163 1 31 1.000000
  31 -24.620037 0.491875 40.139832 -0.762560 0.073327 -0.642748 0.050956 0.543339 1 31 1.000000
body
  31 -24.620037 0.491875 40.139832 -0.762560 0.073327 -0.642748 0.050956 0.543339 1 31 1.000000
  31 -23.645611 2.043239 40.802933 -0.456878 0.267740 -0.848279 0.041157 0.510163 1 31 1.000000
  31 -23.893227 0.549139 39.837883 -0.595980 0.583814 -0.551334 0.041157 0.543339 1 31 1.000000
body
  31 -23.645611 2.043239 40.802933 -0.456878 0.267740 -0.848279 0.041157 0.510163 1 31 1.000000
  30 -21.960724 1.321628 41.743275 -0.641097 -0.057660 -0.765291 0.009800 0.496502 1 30 1.000000
  31 -23.893227 0.549139 39.837883 -0.595980 0.583814 -0.551334 0.041157 0.543339 1 31 1.000000
body
  32 -26.638725 2.429176 37.900135 -0.078049 -0.385681 -0.919325 0.096033 0.543339 1 32 1.000000
  31 -24.929316 1.425545 39.962547 -0.409241 0.068808 -0.909828 0.070556 0.539436 1 31 1.000000
  32 -27.208366 2.035387 38.422680 -0.378408 -0.892962 0.243774 0.103873 0.551145 1 32 1.000000
body
  31 -24.929316 1.425545 39.962547 -0.409241 0.068808 -0.909828 0.070556 0.539436 1 31 1.000000
  32 -26.638725 2.429176 37.900135 -0.078049 -0.385681 -0.919325 0.096033 0.543339 1 32 1.000000
  32 -26.133076 4.610285 38.698959 -0.109307 0.521648 -0.846130 0.105833 0.500405 1 32 1.000000
body
  32 -26.133076 4.610285 38.698959 -0.109307 0.521648 -0.846130 0.105833 0.500405 1 32 1.000000
  32 -26.638725 2.429176 37.900135 -0.078049 -0.385681 -0.919325 0.096033 0.543339 1 32 1.000000
  32 -26.447542 4.486375 37.440826 -0.109411 0.512163 -0.851891 0.115632 0.514066 1 32 1.000000
body
  35 -26.606358 0.154873 36.379227 -0.565105 -0.748369 0.347276 0.099953 0.582370 1 35 1.000000
  35 -26.079155 0.385862 36.334339 -0.167658 -0.488043 -0.856566 0.099953 0.578466 1 35 1.000000
  35 -26.530672 0.023262 38.437920 -0.017910 -0.997811 -0.063659 0.076435 0.568709 1 35 1.000000
body
  35 -26.629677 0.581439 36.100101 -0.975075 -0.113882 -0.190419 0.111712 0.580419 1 35 1.000000
  35 -26.079155 0.385862 36.334339 -0.167658 -0.488043 -0.856566 0.099953 0.578466 1 35 1.000000
  35 -26.606358 0.154873 36.379227 -0.565105 -0.748369 0.347276 0.099953 0.582370 1 35 1.000000
body
  35 -26.202875 0.967828 36.275143 -0.492656 0.588915 -0.640679 0.105833 0.570660 1 35 1.000000
  35 -26.079155 0.385862 36.334339 -0.167658 -0.488043 -0.856566 0.099953 0.578466 1 35 1.000000
  35 -26.629677 0.581439 36.100101 -0.975075 -0.113882 -0.190419 0.111712 0.580419 1 35 1.000000
body
  35 -26.855364 0.972477 36.354095 -0.608084 0.629531 0.483658 0.111712 0.572612 1 35 1.000000
  35 -26.202875 0.967828 36.275143 -0.492656 0.588915 -0.640679 0.105833 0.570660 1 35 1.000000
  35 -26.629677 0.581439 36.100101 -0.975075 -0.113882 -0.190419 0.111712 0.580419 1 35 1.000000
body
  35 -25.942019 0.962383 38.208046 -0.022884 0.546330 -0.837257 0.082314 0.555049 1 35 1.000000
  35 -26.202875 0.967828 36.275143 -0.492656 0.588915 -0.640679 0.105833 0.570660 1 35 1.000000
  35 -26.855364 0.972477 36.354095 -0.608084 0.629531 0.483658 0.111712 0.572612 1 35 1.000000
body
  35 -26.645508 1.154265 38.373444 -0.203935 0.944016 0.259314 0.086234 0.551145 1 35 1.000000
  35 -25.942019 0.962383 38.208046 -0.022884 0.546330 -0.837257 0.082314 0.555049 1 35 1.000000
  35 -26.855364 0.972477 36.354095 -0.608084 0.629531 0.483658 0.111712 0.572612 1 35 1.000000
body
  31 -24.929316 1.425545 39.962547 -0.409241 0.068808 -0.909828 0.070556 0.539436 1 31 1.000000
  35 -25.942019 0.962383 38.208046 -0.022884 0.546330 -0.837257 0.082314 0.555049 1 35 1.000000
  35 -26.645508 1.154265 38.373444 -0.203935 0.944016 0.259314 0.086234 0.551145 1 35 1.000000
body
  35 -25.942019 0.962383 38.208046 -0.022884 0.546330 -0.837257 0.082314 0.555049 1 35 1.000000
  31 -24.929316 1.425545 39.962547 -0.409241 0.068808 -0.909828 0.070556 0.539436 1 31 1.000000
  31 -25.055159 0.457026 39.846149 -0.157492 -0.585534 -0.795202 0.058796 0.547242 1 31 1.000000
body
  31 -25.055159 0.457026 39.846149 -0.157492 -0.585534 -0.795202 0.058796 0.547242 1 31 1.000000
  31 -24.929316 1.425545 39.962547 -0.409241 0.068808 -0.909828 0.070556 0.539436 1 31 1.000000
  31 -24.620037 0.491875 40.139832 -0.762560 0.073327 -0.642748 0.050956 0.543339 1 31 1.000000
body
  35 -25.942019 0.962383 38.208046 -0.022884 0.546330 -0.837257 0.082314 0.555049 1 35 1.000000
  35 -26.079155 0.385862 36.334339 -0.167658 -0.488043 -0.856566 0.099953 0.578466 1 35 1.000000
  35 -26.202875 0.967828 36.275143 -0.492656 0.588915 -0.640679 0.105833 0.570660 1 35 1.000000
body
  35 -26.079155 0.385862 36.334339 -0.167658 -0.488043 -0.856566 0.099953 0.578466 1 35 1.000000
  35 -25.942019 0.962383 38.208046 -0.022884 0.546330 -0.837257 0.082314 0.555049 1 35 1.000000
  35 -25.973312 0.355083 38.386421 0.044514 -0.561098 -0.826551 0.080354 0.562855 1 35 1.000000
body
  35 -26.530672 0.023262 38.437920 -0.017910 -0.997811 -0.063659 0.076435 0.568709 1 35 1.000000
  35 -26.079155 0.385862 36.334339 -0.167658 -0.488043 -0.856566 0.099953 0.578466 1 35 1.000000
  35 -25.973312 0.355083 38.386421 0.044514 -0.561098 -0.826551 0.080354 0.562855 1 35 1.000000
body
  31 -25.055159 0.457026 39.846149 -0.157492 -0.585534 -0.795202 0.058796 0.547242 1 31 1.000000
  35 -26.530672 0.023262 38.437920 -0.017910 -0.997811 -0.063659 0.076435 0.568709 1 35 1.000000
  35 -25.973312 0.355083 38.386421 0.044514 -0.561098 -0.826551 0.080354 0.562855 1 35 1.000000
body
  35 -25.973312 0.355083 38.386421 0.044514 -0.561098 -0.826551 0.080354 0.562855 1 35 1.000000
  35 -25.942019 0.962383 38.208046 -0.022884 0.546330 -0.837257 0.082314 0.555049 1 35 1.000000
  31 -25.055159 0.457026 39.846149 -0.157492 -0.585534 -0.795202 0.058796 0.547242 1 31 1.000000
body
  32 -27.022497 4.338223 39.086971 -0.077896 0.392445 0.916471 0.258702 0.529678 1 32 1.000000
  32 -26.697617 4.726490 39.109669 0.083401 0.975852 0.201883 0.256742 0.521872 1 32 1.000000
  32 -26.974848 4.811985 37.153263 -0.391742 0.837121 0.381794 0.223424 0.535532 1 32 1.000000
body
  31 -25.614754 3.805642 41.668224 0.158589 0.395255 0.904778 0.297899 0.521872 1 31 1.000000
  32 -26.697617 4.726490 39.109669 0.083401 0.975852 0.201883 0.256742 0.521872 1 32 1.000000
  32 -27.022497 4.338223 39.086971 -0.077896 0.392445 0.916471 0.258702 0.529678 1 32 1.000000
body
  31 -25.614754 3.805642 41.668224 0.158589 0.395255 0.904778 0.297899 0.521872 1 31 1.000000
  31 -24.799919 4.422416 40.555508 -0.078883 0.870166 -0.486403 0.284180 0.510163 1 31 1.000000
  32 -26.697617 4.726490 39.109669 0.083401 0.975852 0.201883 0.256742 0.521872 1 32 1.000000
body
  31 -25.614754 3.805642 41.668224 0.158589 0.395255 0.904778 0.297899 0.521872 1 31 1.000000
  30 -23.520046 4.012980 43.171516 -0.138483 0.841056 0.522922 0.335136 0.508211 1 30 1.000000
  31 -24.799919 4.422416 40.555508 -0.078883 0.870166 -0.486403 0.284180 0.510163 1 31 1.000000
body
  31 -25.614754 3.805642 41.668224 0.158589 0.395255 0.904778 0.297899 0.521872 1 31 1.000000
  30 -24.039577 3.076761 43.370346 -0.185393 0.262640 0.946916 0.344936 0.519921 1 30 1.000000
  30 -23.520046 4.012980 43.171516 -0.138483 0.841056 0.522922 0.335136 0.508211 1 30 1.000000
body
  31 -25.614754 3.805642 41.668224 0.158589 0.395255 0.904778 0.297899 0.521872 1 31 1.000000
  30 -24.083057 1.095482 43.155952 -0.022277 -0.528264 0.848788 0.356695 0.553096 1 30 1.000000
  30 -24.039577 3.076761 43.370346 -0.185393 0.262640 0.946916 0.344936 0.519921 1 30 1.000000
body
  38 -24.542160 -0.496026 40.870827 -0.010710 -0.827125 0.561915 0.335136 0.594079 1 38 1.000000
  31 -22.961393 -0.360284 41.170807 0.599054 -0.800698 -0.004180 0.346896 0.596030 1 31 1.000000
  30 -24.083057 1.095482 43.155952 -0.022277 -0.528264 0.848788 0.356695 0.553096 1 30 1.000000
body
  31 -22.961393 -0.360284 41.170807 0.599054 -0.800698 -0.004180 0.346896 0.596030 1 31 1.000000
  30 -22.513174 0.495303 42.153568 0.069082 -0.916711 -0.393534 0.358655 0.572612 1 30 1.000000
  30 -24.083057 1.095482 43.155952 -0.022277 -0.528264 0.848788 0.356695 0.553096 1 30 1.000000
body
  38 -24.542793 -0.895437 39.783207 -0.491733 -0.274448 0.826364 0.321418 0.615546 1 38 1.000000
  38 -23.808022 -1.214360 40.129032 0.344428 -0.913390 0.216999 0.339057 0.609691 1 38 1.000000
  38 -24.542160 -0.496026 40.870827 -0.010710 -0.827125 0.561915 0.335136 0.594079 1 38 1.000000
body
  38 -23.808022 -1.214360 40.129032 0.344428 -0.913390 0.216999 0.339057 0.609691 1 38 1.000000
  31 -22.961393 -0.360284 41.170807 0.599054 -0.800698 -0.004180 0.346896 0.596030 1 31 1.000000
  38 -24.542160 -0.496026 40.870827 -0.010710 -0.827125 0.561915 0.335136 0.594079 1 38 1.000000
body
  31 -22.961393 -0.360284 41.170807 0.599054 -0.800698 -0.004180 0.346896 0.596030 1 31 1.000000
  38 -23.808022 -1.214360 40.129032 0.344428 -0.913390 0.216999 0.339057 0.609691 1 38 1.000000
  38 -23.023317 -0.885199 39.800926 0.469975 -0.548015 -0.691955 0.342976 0.615546 1 38 1.000000
body
  38 -23.023317 -0.885199 39.800926 0.469975 -0.548015 -0.691955 0.342976 0.615546 1 38 1.000000
  38 -23.808022 -1.214360 40.129032 0.344428 -0.913390 0.216999 0.339057 0.609691 1 38 1.000000
  38 -23.906948 -1.767027 38.024109 0.022009 -0.656097 -0.754356 0.313578 0.650674 1 38 1.000000
body
  38 -23.808022 -1.214360 40.129032 0.344428 -0.913390 0.216999 0.339057 0.609691 1 38 1.000000
  38 -24.552824 -1.910218 38.279827 -0.295891 -0.870940 0.392315 0.309658 0.644819 1 38 1.000000
  38 -23.906948 -1.767027 38.024109 0.022009 -0.656097 -0.754356 0.313578 0.650674 1 38 1.000000
body
  38 -23.906948 -1.767027 38.024109 0.022009 -0.656097 -0.754356 0.313578 0.650674 1 38 1.000000
  38 -24.552824 -1.910218 38.279827 -0.295891 -0.870940 0.392315 0.309658 0.644819 1 38 1.000000
  38 -24.468447 -1.639312 37.841110 -0.869465 -0.450628 -0.202399 0.301819 0.644819 1 38 1.000000
body
  38 -24.468447 -1.639312 37.841110 -0.869465 -0.450628 -0.202399 0.301819 0.644819 1 38 1.000000
  38 -24.552824 -1.910218 38.279827 -0.295891 -0.870940 0.392315 0.309658 0.644819 1 38 1.000000
  38 -24.879566 -1.271391 38.199631 -0.841266 0.148592 0.519800 0.301819 0.633110 1 38 1.000000
body
  38 -24.879566 -1.271391 38.199631 -0.841266 0.148592 0.519800 0.301819 0.633110 1 38 1.000000
  38 -24.113792 -1.013198 37.700249 -0.693773 0.417820 -0.586605 0.295939 0.635062 1 38 1.000000
  38 -24.468447 -1.639312 37.841110 -0.869465 -0.450628 -0.202399 0.301819 0.644819 1 38 1.000000
body
  38 -24.081436 -0.161572 39.109539 -0.708311 0.702872 0.065320 0.307699 0.609691 1 38 1.000000
  38 -24.113792 -1.013198 37.700249 -0.693773 0.417820 -0.586605 0.295939 0.635062 1 38 1.000000
  38 -24.879566 -1.271391 38.199631 -0.841266 0.148592 0.519800 0.301819 0.633110 1 38 1.000000
body
  38 -24.542793 -0.895437 39.783207 -0.491733 -0.274448 0.826364 0.321418 0.615546 1 38 1.000000
  38 -24.081436 -0.161572 39.109539 -0.708311 0.702872 0.065320 0.307699 0.609691 1 38 1.000000
  38 -24.879566 -1.271391 38.199631 -0.841266 0.148592 0.519800 0.301819 0.633110 1 38 1.000000
body
  31 -24.537266 0.047592 39.931370 -0.983090 0.122409 0.136200 0.315538 0.597983 1 31 1.000000
  38 -24.081436 -0.161572 39.109539 -0.708311 0.702872 0.065320 0.307699 0.609691 1 38 1.000000
  38 -24.542793 -0.895437 39.783207 -0.491733 -0.274448 0.826364 0.321418 0.615546 1 38 1.000000
body
  38 -24.542160 -0.496026 40.870827 -0.010710 -0.827125 0.561915 0.335136 0.594079 1 38 1.000000
  31 -24.537266 0.047592 39.931370 -0.983090 0.122409 0.136200 0.315538 0.597983 1 31 1.000000
  38 -24.542793 -0.895437 39.783207 -0.491733 -0.274448 0.826364 0.321418 0.615546 1 38 1.000000
body
  31 -25.981262 0.100863 40.322281 -0.212845 -0.863516 0.457205 0.315538 0.582370 1 31 1.000000
  31 -24.537266 0.047592 39.931370 -0.983090 0.122409 0.136200 0.315538 0.597983 1 31 1.000000
  38 -24.542160 -0.496026 40.870827 -0.010710 -0.827125 0.561915 0.335136 0.594079 1 38 1.000000
body
  30 -24.083057 1.095482 43.155952 -0.022277 -0.528264 0.848788 0.356695 0.553096 1 30 1.000000
  31 -25.981262 0.100863 40.322281 -0.212845 -0.863516 0.457205 0.315538 0.582370 1 31 1.000000
  38 -24.542160 -0.496026 40.870827 -0.010710 -0.827125 0.561915 0.335136 0.594079 1 38 1.000000
body
  31 -26.380350 1.356469 40.322746 -0.067296 -0.087135 0.993921 0.293980 0.568709 1 31 1.000000
  31 -25.981262 0.100863 40.322281 -0.212845 -0.863516 0.457205 0.315538 0.582370 1 31 1.000000
  30 -24.083057 1.095482 43.155952 -0.022277 -0.528264 0.848788 0.356695 0.553096 1 30 1.000000
body
  31 -25.614754 3.805642 41.668224 0.158589 0.395255 0.904778 0.297899 0.521872 1 31 1.000000
  31 -26.380350 1.356469 40.322746 -0.067296 -0.087135 0.993921 0.293980 0.568709 1 31 1.000000
  30 -24.083057 1.095482 43.155952 -0.022277 -0.528264 0.848788 0.356695 0.553096 1 30 1.000000
body
  32 -27.424782 2.740213 38.596394 -0.051825 -0.096510 0.993982 0.268501 0.558951 1 32 1.000000
  31 -26.380350 1.356469 40.322746 -0.067296 -0.087135 0.993921 0.293980 0.568709 1 31 1.000000
  31 -25.614754 3.805642 41.668224 0.158589 0.395255 0.904778 0.297899 0.521872 1 31 1.000000
body
  32 -27.022497 4.338223 39.086971 -0.077896 0.392445 0.916471 0.258702 0.529678 1 32 1.000000
  32 -27.424782 2.740213 38.596394 -0.051825 -0.096510 0.993982 0.268501 0.558951 1 32 1.000000
  31 -25.614754 3.805642 41.668224 0.158589 0.395255 0.904778 0.297899 0.521872 1 31 1.000000
body
  38 -24.879566 -1.271391 38.199631 -0.841266 0.148592 0.519800 0.301819 0.633110 1 38 1.000000
  38 -24.552824 -1.910218 38.279827 -0.295891 -0.870940 0.392315 0.309658 0.644819 1 38 1.000000
  38 -24.542793 -0.895437 39.783207 -0.491733 -0.274448 0.826364 0.321418 0.615546 1 38 1.000000
body
  38 -24.552824 -1.910218 38.279827 -0.295891 -0.870940 0.392315 0.309658 0.644819 1 38 1.000000
  38 -23.808022 -1.214360 40.129032 0.344428 -0.913390 0.216999 0.339057 0.609691 1 38 1.000000
  38 -24.542793 -0.895437 39.783207 -0.491733 -0.274448 0.826364 0.321418 0.615546 1 38 1.000000
body
  35 -27.071724 0.523873 38.203838 -0.246897 -0.186055 0.951013 0.282220 0.590176 1 35 1.000000
  31 -25.981262 0.100863 40.322281 -0.212845 -0.863516 0.457205 0.315538 0.582370 1 31 1.000000
  31 -26.380350 1.356469 40.322746 -0.067296 -0.087135 0.993921 0.293980 0.568709 1 31 1.000000
body
  38 -24.081436 -0.161572 39.109539 -0.708311 0.702872 0.065320 0.307699 0.609691 1 38 1.000000
  31 -24.537266 0.047592 39.931370 -0.983090 0.122409 0.136200 0.315538 0.597983 1 31 1.000000
  31 -23.893227 0.549139 39.837883 -0.595980 0.583814 -0.551334 0.301819 0.601885 1 31 1.000000
body
  31 -23.893227 0.549139 39.837883 -0.595980 0.583814 -0.551334 0.301819 0.601885 1 31 1.000000
  31 -24.537266 0.047592 39.931370 -0.983090 0.122409 0.136200 0.315538 0.597983 1 31 1.000000
  31 -24.620037 0.491875 40.139832 -0.762560 0.073327 -0.642748 0.309658 0.594079 1 31 1.000000
body
  31 -24.537266 0.047592 39.931370 -0.983090 0.122409 0.136200 0.315538 0.597983 1 31 1.000000
  31 -25.981262 0.100863 40.322281 -0.212845 -0.863516 0.457205 0.315538 0.582370 1 31 1.000000
  31 -24.620037 0.491875 40.139832 -0.762560 0.073327 -0.642748 0.309658 0.594079 1 31 1.000000
body
  31 -24.620037 0.491875 40.139832 -0.762560 0.073327 -0.642748 0.309658 0.594079 1 31 1.000000
  31 -25.981262 0.100863 40.322281 -0.212845 -0.863516 0.457205 0.315538 0.582370 1 31 1.000000
  31 -25.055159 0.457026 39.846149 -0.157492 -0.585534 -0.795202 0.299859 0.599934 1 31 1.000000
body
  31 -25.981262 0.100863 40.322281 -0.212845 -0.863516 0.457205 0.315538 0.582370 1 31 1.000000
  35 -26.530672 0.023262 38.437920 -0.017910 -0.997811 -0.063659 0.288099 0.599934 1 35 1.000000
  31 -25.055159 0.457026 39.846149 -0.157492 -0.585534 -0.795202 0.299859 0.599934 1 31 1.000000
body
  35 -27.071724 0.523873 38.203838 -0.246897 -0.186055 0.951013 0.282220 0.590176 1 35 1.000000
  35 -26.530672 0.023262 38.437920 -0.017910 -0.997811 -0.063659 0.288099 0.599934 1 35 1.000000
  31 -25.981262 0.100863 40.322281 -0.212845 -0.863516 0.457205 0.315538 0.582370 1 31 1.000000
body
  35 -27.071724 0.523873 38.203838 -0.246897 -0.186055 0.951013 0.282220 0.590176 1 35 1.000000
  35 -26.606358 0.154873 36.379227 -0.565105 -0.748369 0.347276 0.250862 0.615546 1 35 1.000000
  35 -26.530672 0.023262 38.437920 -0.017910 -0.997811 -0.063659 0.288099 0.599934 1 35 1.000000
body
  35 -27.071724 0.523873 38.203838 -0.246897 -0.186055 0.951013 0.282220 0.590176 1 35 1.000000
  35 -26.855364 0.972477 36.354095 -0.608084 0.629531 0.483658 0.243023 0.601885 1 35 1.000000
  35 -26.606358 0.154873 36.379227 -0.565105 -0.748369 0.347276 0.250862 0.615546 1 35 1.000000
body
  35 -27.071724 0.523873 38.203838 -0.246897 -0.186055 0.951013 0.282220 0.590176 1 35 1.000000
  35 -26.645508 1.154265 38.373444 -0.203935 0.944016 0.259314 0.278301 0.582370 1 35 1.000000
  35 -26.855364 0.972477 36.354095 -0.608084 0.629531 0.483658 0.243023 0.601885 1 35 1.000000
body
  35 -27.071724 0.523873 38.203838 -0.246897 -0.186055 0.951013 0.282220 0.590176 1 35 1.000000
  31 -26.380350 1.356469 40.322746 -0.067296 -0.087135 0.993921 0.293980 0.568709 1 31 1.000000
  35 -26.645508 1.154265 38.373444 -0.203935 0.944016 0.259314 0.278301 0.582370 1 35 1.000000
body
  35 -26.645508 1.154265 38.373444 -0.203935 0.944016 0.259314 0.278301 0.582370 1 35 1.000000
  31 -26.380350 1.356469 40.322746 -0.067296 -0.087135 0.993921 0.293980 0.568709 1 31 1.000000
  31 -24.929316 1.425545 39.962547 -0.409241 0.068808 -0.909828 0.272420 0.574564 1 31 1.000000
body
  31 -24.929316 1.425545 39.962547 -0.409241 0.068808 -0.909828 0.272420 0.574564 1 31 1.000000
  31 -26.380350 1.356469 40.322746 -0.067296 -0.087135 0.993921 0.293980 0.568709 1 31 1.000000
  32 -27.208366 2.035387 38.422680 -0.378408 -0.892962 0.243774 0.268501 0.568709 1 32 1.000000
body
  32 -27.208366 2.035387 38.422680 -0.378408 -0.892962 0.243774 0.268501 0.568709 1 32 1.000000
  31 -26.380350 1.356469 40.322746 -0.067296 -0.087135 0.993921 0.293980 0.568709 1 31 1.000000
  32 -27.424782 2.740213 38.596394 -0.051825 -0.096510 0.993982 0.268501 0.558951 1 32 1.000000
body
  32 -27.595144 2.904866 37.521278 -0.393677 0.061236 0.917207 0.246943 0.562855 1 32 1.000000
  32 -27.208366 2.035387 38.422680 -0.378408 -0.892962 0.243774 0.268501 0.568709 1 32 1.000000
  32 -27.424782 2.740213 38.596394 -0.051825 -0.096510 0.993982 0.268501 0.558951 1 32 1.000000
body
  32 -27.287111 2.889863 36.324108 -0.812943 -0.454282 0.364351 0.229304 0.572612 1 32 1.000000
  32 -27.208366 2.035387 38.422680 -0.378408 -0.892962 0.243774 0.268501 0.568709 1 32 1.000000
  32 -27.595144 2.904866 37.521278 -0.393677 0.061236 0.917207 0.246943 0.562855 1 32 1.000000
body
  35 -26.855364 0.972477 36.354095 -0.608084 0.629531 0.483658 0.243023 0.601885 1 35 1.000000
  35 -26.629677 0.581439 36.100101 -0.975075 -0.113882 -0.190419 0.243023 0.609691 1 35 1.000000
  35 -26.606358 0.154873 36.379227 -0.565105 -0.748369 0.347276 0.250862 0.615546 1 35 1.000000
body
  32 -27.595144 2.904866 37.521278 -0.393677 0.061236 0.917207 0.246943 0.562855 1 32 1.000000
  32 -27.424782 2.740213 38.596394 -0.051825 -0.096510 0.993982 0.268501 0.558951 1 32 1.000000
  32 -27.022497 4.338223 39.086971 -0.077896 0.392445 0.916471 0.258702 0.529678 1 32 1.000000
body
  32 -26.974848 4.811985 37.153263 -0.391742 0.837121 0.381794 0.223424 0.535532 1 32 1.000000
  32 -27.595144 2.904866 37.521278 -0.393677 0.061236 0.917207 0.246943 0.562855 1 32 1.000000
  32 -27.022497 4.338223 39.086971 -0.077896 0.392445 0.916471 0.258702 0.529678 1 32 1.000000
body
  32 -27.120457 3.975077 36.497086 -0.862985 0.504371 -0.029437 0.223424 0.553096 1 32 1.000000
  32 -27.595144 2.904866 37.521278 -0.393677 0.061236 0.917207 0.246943 0.562855 1 32 1.000000
  32 -26.974848 4.811985 37.153263 -0.391742 0.837121 0.381794 0.223424 0.535532 1 32 1.000000
body
  32 -27.328644 3.513664 36.569637 -0.767790 0.356939 0.532064 0.227345 0.558951 1 32 1.000000
  32 -27.595144 2.904866 37.521278 -0.393677 0.061236 0.917207 0.246943 0.562855 1 32 1.000000
  32 -27.120457 3.975077 36.497086 -0.862985 0.504371 -0.029437 0.223424 0.553096 1 32 1.000000
body
  32 -27.328644 3.513664 36.569637 -0.767790 0.356939 0.532064 0.227345 0.558951 1 32 1.000000
  32 -27.287111 2.889863 36.324108 -0.812943 -0.454282 0.364351 0.229304 0.572612 1 32 1.000000
  32 -27.595144 2.904866 37.521278 -0.393677 0.061236 0.917207 0.246943 0.562855 1 32 1.000000
body
  32 -27.120659 3.391236 36.134586 -0.897120 0.424603 -0.122017 0.221464 0.564806 1 32 1.000000
  32 -27.287111 2.889863 36.324108 -0.812943 -0.454282 0.364351 0.229304 0.572612 1 32 1.000000
  32 -27.328644 3.513664 36.569637 -0.767790 0.356939 0.532064 0.227345 0.558951 1 32 1.000000
body
  30 -21.681377 4.074078 41.917809 -0.515465 0.699786 -0.494566 0.258702 0.951211 1 30 1.000000
  30 -21.960724 1.321628 41.743275 -0.641097 -0.057660 -0.765291 0.258702 0.984387 1 30 1.000000
  30 -22.215570 3.813200 42.138195 -0.645716 0.497115 -0.579592 0.264582 0.955115 1 30 1.000000
body
  30 -21.778156 0.548132 42.890068 -0.095722 -0.913334 -0.395800 0.221464 0.613594 1 30 1.000000
  30 -19.245281 1.888967 41.230816 -0.045906 -0.896932 -0.439778 0.219505 0.527727 1 30 1.000000
  30 -20.594522 0.354472 44.424137 -0.045931 -0.896942 -0.439756 0.184227 0.603836 1 30 1.000000
body
  30 -20.594522 0.354472 44.424137 -0.045931 -0.896942 -0.439756 0.184227 0.603836 1 30 1.000000
  30 -19.245281 1.888967 41.230816 -0.045906 -0.896932 -0.439778 0.219505 0.527727 1 30 1.000000
  30 -18.349367 1.814029 42.694981 0.006783 -0.896230 -0.443538 0.186187 0.525775 1 30 1.000000
body
  30 -21.681377 4.074078 41.917809 -0.941752 0.088016 -0.324585 0.001960 0.998049 1 30 1.000000
  30 -20.220560 2.341409 41.307236 -0.941746 0.088101 -0.324579 0.001960 0.978534 1 30 1.000000
  30 -21.960724 1.321628 41.743275 -0.941746 0.088106 -0.324579 0.031358 0.996097 1 30 1.000000
body
  30 -22.215570 3.813200 42.138195 -0.645716 0.497115 -0.579592 0.442929 0.246704 1 30 1.000000
  30 -23.520046 4.012980 43.171516 -0.138483 0.841056 0.522922 0.458608 0.250608 1 30 1.000000
  30 -21.681377 4.074078 41.917809 -0.515465 0.699786 -0.494566 0.440969 0.240850 1 30 1.000000
body
  30 -24.083057 1.095482 43.155952 -0.942107 -0.333331 0.036410 0.103873 0.988291 1 30 1.000000
  30 -22.513174 0.495303 42.153568 -0.942107 -0.333329 0.036408 0.060756 0.986339 1 30 1.000000
  30 -23.070761 -0.041103 42.853920 -0.942116 -0.333305 0.036404 0.074475 0.974630 1 30 1.000000
end
